<svg width="142" height="15" viewBox="0 0 142 15" fill="none" xmlns="http://www.w3.org/2000/svg">
<g id="Group 3463">
<path id="Vector" d="M28.0004 0.384766H23.5487C23.3013 0.384766 23.3013 1.06077 23.5487 1.06077C24.6369 1.06077 25.115 1.53892 25.115 2.91978V9.44487C25.115 11.3575 23.9815 13.2783 21.6031 13.2783C19.2247 13.2783 18.0953 11.3575 18.0953 9.44487V2.91978C18.0953 1.53892 18.5734 1.06077 19.6575 1.06077C19.9048 1.06077 19.9048 0.384766 19.6575 0.384766H13.829C13.5817 0.384766 13.5817 1.06077 13.829 1.06077C14.9131 1.06077 15.3913 1.53892 15.3913 2.91978V9.44487C15.3913 12.1406 16.9535 14.6468 20.9518 14.6468C24.8224 14.6468 26.434 12.1406 26.434 9.44487V2.91978C26.434 1.53892 26.9122 1.06077 28.0004 1.06077C28.2436 1.06077 28.2436 0.384766 28.0004 0.384766Z" fill="black"/>
<path id="Vector_2" d="M40.9097 11.1541C40.4192 11.8259 39.3681 13.5201 36.5816 13.5201C33.9971 13.5201 31.8702 11.356 31.8702 7.33712C31.8702 3.12446 33.9518 1.03874 36.5404 1.03874C39.5989 1.03874 40.2749 3.75924 40.3944 4.37754C40.4439 4.62486 41.1323 4.58364 41.1117 4.33632L40.8108 1.03874C40.8108 1.03874 39.298 0 36.1941 0C32.7894 0 28.9766 2.0074 28.9766 7.36597C28.9766 12.8482 33.0243 14.6866 36.1941 14.6866C37.9693 14.7047 39.6962 14.1091 41.0828 13.0007C41.2188 12.5184 41.1694 10.8037 40.9097 11.1541Z" fill="black"/>
<path id="Vector_3" d="M43.1826 13.6287C42.9352 13.6287 42.9352 14.3088 43.1826 14.3088H48.9781C49.2213 14.3088 49.2213 13.6287 48.9781 13.6287C47.8899 13.6287 47.4117 13.1547 47.4117 11.7697V7.71776C47.4091 7.69022 47.4126 7.66244 47.4221 7.63645C47.4316 7.61046 47.4468 7.58692 47.4665 7.56755C47.4863 7.54819 47.5101 7.53349 47.5363 7.52453C47.5625 7.51557 47.5903 7.51259 47.6178 7.51579H53.1948C53.3185 7.51579 53.4009 7.58174 53.4009 7.69715V11.7738C53.4009 13.1588 52.9228 13.6328 51.8346 13.6328C51.5873 13.6328 51.5873 14.3129 51.8346 14.3129H57.6301C57.8774 14.3129 57.8774 13.6328 57.6301 13.6328C56.5419 13.6328 56.0637 13.1588 56.0637 11.7738V2.9239C56.0637 1.53892 56.5419 1.06077 57.6301 1.06077C57.8774 1.06077 57.8774 0.384766 57.6301 0.384766H51.8346C51.5873 0.384766 51.5873 1.06077 51.8346 1.06077C52.9228 1.06077 53.4009 1.52655 53.4009 2.9239V6.25858C53.4009 6.374 53.3185 6.43583 53.1948 6.43583H47.6178C47.5903 6.43903 47.5625 6.43604 47.5363 6.42709C47.5101 6.41813 47.4863 6.40343 47.4665 6.38406C47.4468 6.3647 47.4316 6.34116 47.4221 6.31517C47.4126 6.28918 47.4091 6.26139 47.4117 6.23385V2.93627C47.4117 1.53892 47.8899 1.07314 48.9781 1.07314C49.2213 1.07314 49.2213 0.397132 48.9781 0.397132H43.1826C42.9352 0.397132 42.9352 1.07314 43.1826 1.07314C44.2708 1.07314 44.7448 1.55129 44.7448 2.93627V11.7697C44.7448 13.1547 44.2708 13.6287 43.1826 13.6287Z" fill="black"/>
<path id="Vector_4" d="M60.8925 13.6287C60.6452 13.6287 60.6452 14.3088 60.8925 14.3088H71.8364L72.1826 10.8711C72.2073 10.6279 71.519 10.5825 71.4695 10.834C71.148 12.4003 70.2329 13.2824 67.937 13.2824C66.1274 13.2824 65.1217 13.1011 65.1217 11.8068V7.89913C65.1183 7.86656 65.1224 7.83365 65.1335 7.80285C65.1446 7.77205 65.1625 7.74415 65.1859 7.72119C65.2092 7.69824 65.2374 7.68083 65.2684 7.67025C65.2994 7.65966 65.3324 7.65618 65.3649 7.66006H66.8405C68.3533 7.66006 68.9551 8.25362 68.9551 9.34182C68.9551 9.58502 69.6723 9.58502 69.6723 9.34182V5.00138C69.6723 4.75406 68.9551 4.75406 68.9551 5.00138C68.9551 6.08958 68.3533 6.68315 66.8405 6.68315H65.3649C65.3324 6.68702 65.2994 6.68354 65.2684 6.67296C65.2374 6.66238 65.2092 6.64496 65.1859 6.62201C65.1625 6.59906 65.1446 6.57115 65.1335 6.54035C65.1224 6.50955 65.1183 6.47665 65.1217 6.44407V1.70792C65.1217 1.52655 65.2206 1.43999 65.402 1.43175C65.707 1.41114 66.1934 1.41114 67.0137 1.41114C69.899 1.41114 70.4638 2.07478 70.8759 3.85959C70.9337 4.10691 71.6138 4.06569 71.5932 3.82249L71.284 0.384766H60.8925C60.6452 0.384766 60.6452 1.06077 60.8925 1.06077C61.9807 1.06077 62.4547 1.53892 62.4547 2.9239V11.7697C62.4547 13.1547 61.9807 13.6287 60.8925 13.6287Z" fill="black"/>
<path id="Vector_5" d="M8.87462 6.90161C10.2967 6.46468 11.6116 5.45892 11.6116 3.76479C11.6116 1.2916 9.70726 0.388888 7.28353 0.384766H0.185489C-0.0618297 0.384766 -0.0618297 1.06077 0.185489 1.06077C1.27369 1.06077 1.74772 1.53892 1.74772 2.91978V11.7697C1.74772 13.1547 1.27369 13.6287 0.185489 13.6287C-0.0618297 13.6287 -0.0618297 14.3088 0.185489 14.3088H7.55558C10.103 14.3088 12.267 12.9898 12.267 10.5207C12.267 8.28247 10.5976 7.20664 8.87462 6.90161ZM4.41464 1.67082C4.41464 1.34931 4.93401 1.25862 5.51521 1.25862C7.32888 1.25862 8.86225 1.93051 8.86225 3.86784C8.86225 5.92883 7.41956 6.62544 5.59352 6.62544C4.73203 6.62544 4.41464 6.51415 4.41464 6.15141V1.67082ZM6.1335 13.4185C4.89691 13.4185 4.41464 13.1711 4.41464 12.1035V8.02279C4.41464 7.66006 4.61249 7.54876 5.75016 7.54876C7.57619 7.54876 9.45994 8.47209 9.45994 10.5207C9.45994 12.5693 7.95954 13.4185 6.1335 13.4185Z" fill="black"/>
<path id="Vector_6" d="M88.0413 13.6261C86.8912 13.5436 86.071 12.7069 85.4279 11.5651L83.2433 7.60799C84.7231 7.13396 86.1287 6.01278 86.1287 4.16614C86.1287 1.69295 84.1378 0.398653 81.5945 0.394531H74.8427C74.5995 0.394531 74.5995 1.07054 74.8427 1.07054C75.9268 1.07054 76.4049 1.54868 76.4049 2.92955V11.7671C76.4049 13.152 75.9268 13.6261 74.8427 13.6261C74.5954 13.6261 74.5954 14.3021 74.8427 14.3021H80.6382C80.8855 14.3021 80.8855 13.6261 80.6382 13.6261C79.55 13.6261 79.076 13.152 79.076 11.7671V8.18095C79.0728 8.15346 79.0758 8.12561 79.0847 8.09944C79.0937 8.07326 79.1084 8.04942 79.1277 8.02966C79.1471 8.0099 79.1707 7.99472 79.1966 7.98523C79.2226 7.97575 79.2504 7.9722 79.278 7.97485H79.6902C79.946 7.95081 80.2024 8.0144 80.4173 8.1552C80.6323 8.296 80.793 8.50565 80.8732 8.74978C81.5409 10.0647 81.8913 10.7407 82.625 12.0103C83.5236 13.6013 84.5582 14.4257 86.8377 14.4257C87.2535 14.4389 87.6693 14.3973 88.0743 14.3021C88.3133 14.2238 88.2845 13.6426 88.0413 13.6261ZM80.1765 7.00618C79.3109 7.00618 79.076 6.89489 79.076 6.53215V1.70944C79.076 1.38381 79.4387 1.29724 80.0199 1.29724C81.8006 1.29724 83.3917 2.15874 83.3917 4.13729C83.3917 6.20652 82.0026 7.00618 80.1765 7.00618Z" fill="black"/>
<path id="Vector_7" d="M100.074 10.834C99.7565 12.4003 98.8372 13.2824 96.5413 13.2824C94.7318 13.2824 93.7301 13.1011 93.7301 11.8068V7.89913C93.7261 7.86678 93.7295 7.83393 93.7401 7.8031C93.7507 7.77227 93.7682 7.74426 93.7913 7.72121C93.8143 7.69816 93.8423 7.68067 93.8732 7.67007C93.904 7.65947 93.9368 7.65605 93.9692 7.66006H95.4449C96.9576 7.66006 97.5636 8.25362 97.5636 9.34182C97.5636 9.58502 98.2767 9.58502 98.2767 9.34182V5.00138C98.2767 4.75406 97.5636 4.75406 97.5636 5.00138C97.5636 6.08958 96.9576 6.68315 95.4449 6.68315H93.9857C93.9533 6.68716 93.9205 6.68373 93.8897 6.67314C93.8588 6.66254 93.8308 6.64505 93.8078 6.62199C93.7847 6.59894 93.7672 6.57093 93.7566 6.5401C93.746 6.50927 93.7426 6.47643 93.7466 6.44407V1.70792C93.7466 1.52655 93.8455 1.43999 94.0269 1.43175C94.3319 1.41114 94.8142 1.41114 95.6345 1.41114C98.5199 1.41114 99.0846 2.07478 99.5009 3.85959C99.5586 4.10691 100.239 4.06569 100.214 3.82249L99.8884 0.384766H89.4969C89.2537 0.384766 89.2537 1.06077 89.4969 1.06077C90.5851 1.06077 91.0632 1.53892 91.0632 2.9239V11.7697C91.0632 13.1547 90.5851 13.6287 89.4969 13.6287C89.2537 13.6287 89.2537 14.3088 89.4969 14.3088H100.441L100.791 10.8711C100.816 10.6279 100.123 10.5825 100.074 10.834Z" fill="black"/>
<path id="Vector_8" d="M116.648 13.6261C115.498 13.5436 114.678 12.7069 114.039 11.5651L111.85 7.60799C113.334 7.13397 114.736 6.01279 114.736 4.16614C114.736 1.69295 112.741 0.398653 110.201 0.394531H103.458C103.211 0.394531 103.211 1.07054 103.458 1.07054C104.546 1.07054 105.02 1.54869 105.02 2.92955V11.7671C105.02 13.1521 104.546 13.6261 103.458 13.6261C103.211 13.6261 103.211 14.3021 103.458 14.3021H109.229C109.472 14.3021 109.472 13.6261 109.229 13.6261C108.145 13.6261 107.666 13.1521 107.666 11.7671V8.18095C107.663 8.15309 107.666 8.12483 107.675 8.09832C107.685 8.07181 107.7 8.04772 107.72 8.02788C107.739 8.00804 107.763 7.99296 107.79 7.98377C107.816 7.97459 107.845 7.97154 107.873 7.97485H108.285C108.54 7.95103 108.796 8.01477 109.01 8.15561C109.224 8.29644 109.384 8.50598 109.464 8.74978C110.131 10.0647 110.482 10.7407 111.22 12.0103C112.114 13.6014 113.157 14.4257 115.436 14.4257C115.852 14.4382 116.268 14.3967 116.673 14.3021C116.912 14.2238 116.887 13.6426 116.648 13.6261ZM108.775 7.00619C107.914 7.00619 107.675 6.89489 107.675 6.53216V1.70944C107.675 1.38381 108.042 1.29724 108.619 1.29724C110.403 1.29724 111.99 2.15874 111.99 4.13729C111.99 6.20652 110.601 7.00619 108.775 7.00619Z" fill="black"/>
<path id="Vector_9" d="M120.327 0.986574V1.70792L121.597 1.16794V7.3303H122.289V0.384766H121.737L120.327 0.986574Z" fill="black"/>
<path id="Vector_10" d="M128.695 4.12133C128.561 3.97735 128.407 3.85375 128.237 3.75447C128.124 3.69182 128.007 3.63674 127.887 3.5896C127.991 3.55024 128.09 3.50052 128.184 3.4412C128.322 3.35435 128.445 3.24418 128.546 3.11557C128.656 2.97356 128.745 2.81674 128.81 2.64978C128.878 2.46081 128.912 2.26116 128.909 2.06034C128.911 1.80012 128.852 1.54304 128.736 1.31014C128.623 1.09052 128.466 0.896787 128.274 0.741309C128.077 0.593675 127.855 0.482042 127.619 0.41155C127.113 0.243676 126.567 0.243676 126.061 0.41155C125.823 0.489581 125.601 0.609645 125.405 0.76604C125.214 0.921519 125.057 1.11525 124.944 1.33487C124.831 1.5603 124.772 1.80847 124.771 2.06034C124.772 2.26542 124.812 2.46839 124.89 2.65803C124.953 2.82555 125.04 2.98261 125.15 3.12381C125.253 3.25256 125.377 3.36271 125.517 3.44945C125.609 3.50943 125.707 3.55919 125.809 3.59784C125.495 3.70371 125.211 3.88648 124.985 4.12957C124.84 4.28773 124.724 4.4706 124.643 4.66955C124.552 4.89889 124.507 5.14409 124.511 5.3909C124.507 5.688 124.573 5.98186 124.705 6.24827C124.832 6.49613 125.009 6.71505 125.224 6.8913C125.446 7.07002 125.697 7.20943 125.966 7.3035C126.534 7.49034 127.146 7.49034 127.714 7.3035C127.983 7.21034 128.234 7.07085 128.456 6.8913C128.672 6.71618 128.85 6.49699 128.975 6.24827C129.11 5.98288 129.178 5.68855 129.173 5.3909C129.183 4.92201 129.011 4.46742 128.695 4.12133ZM125.57 2.60444C125.491 2.44883 125.452 2.27612 125.455 2.10156C125.452 1.93232 125.492 1.76506 125.57 1.61517C125.644 1.46717 125.749 1.33756 125.88 1.23595C126.011 1.1313 126.16 1.05166 126.321 1.00099C126.488 0.944286 126.663 0.916409 126.84 0.918554C127.018 0.916419 127.195 0.94429 127.363 1.00099C127.523 1.05352 127.672 1.13299 127.804 1.23595C127.932 1.33985 128.038 1.46893 128.114 1.61517C128.189 1.76607 128.227 1.93286 128.225 2.10156C128.228 2.27558 128.19 2.44782 128.114 2.60444C128.038 2.74833 127.934 2.8758 127.809 2.97954C127.676 3.08396 127.527 3.16483 127.368 3.21862C127.024 3.32575 126.656 3.32575 126.312 3.21862C126.153 3.16483 126.003 3.08396 125.871 2.97954C125.747 2.87925 125.644 2.75436 125.57 2.61269V2.60444ZM128.34 5.935C128.253 6.10891 128.131 6.26318 127.982 6.38842C127.828 6.51505 127.652 6.61155 127.462 6.67284C127.062 6.81008 126.627 6.81008 126.226 6.67284C126.035 6.61156 125.857 6.51509 125.702 6.38842C125.553 6.26318 125.431 6.10891 125.344 5.935C125.252 5.7537 125.205 5.5529 125.208 5.34968C125.205 5.14431 125.251 4.9412 125.34 4.75612C125.424 4.58156 125.545 4.427 125.694 4.3027C125.849 4.17879 126.025 4.08384 126.213 4.0224C126.624 3.89059 127.065 3.89059 127.475 4.0224C127.664 4.08396 127.842 4.17888 127.998 4.3027C128.145 4.42826 128.264 4.58258 128.349 4.75612C128.437 4.94404 128.481 5.15011 128.476 5.35792C128.479 5.56114 128.432 5.76195 128.34 5.94324V5.935Z" fill="black"/>
<path id="Vector_11" d="M134.955 4.12133C134.82 3.9763 134.665 3.85259 134.493 3.75447C134.382 3.6911 134.266 3.63599 134.147 3.5896C134.25 3.55095 134.348 3.50119 134.44 3.4412C134.58 3.35446 134.704 3.24432 134.806 3.11557C134.916 2.97436 135.004 2.81731 135.066 2.64978C135.137 2.46162 135.172 2.26158 135.169 2.06034C135.171 1.80012 135.112 1.54304 134.996 1.31014C134.883 1.09052 134.726 0.896787 134.534 0.741309C134.337 0.593675 134.115 0.482042 133.879 0.41155C133.373 0.243676 132.827 0.243676 132.321 0.41155C132.083 0.489581 131.861 0.609645 131.665 0.76604C131.473 0.920365 131.315 1.11436 131.204 1.33487C131.091 1.5603 131.032 1.80847 131.031 2.06034C131.029 2.25978 131.062 2.45799 131.13 2.64566C131.195 2.81262 131.284 2.96944 131.393 3.11145C131.495 3.24006 131.617 3.35022 131.756 3.43708C131.849 3.49711 131.949 3.54686 132.053 3.58547C131.738 3.69134 131.455 3.87411 131.228 4.11721C130.913 4.46026 130.743 4.91253 130.754 5.37853C130.748 5.67585 130.815 5.97021 130.948 6.23591C131.081 6.49192 131.268 6.71566 131.496 6.8913C131.718 7.07085 131.969 7.21034 132.238 7.3035C132.806 7.49034 133.418 7.49034 133.986 7.3035C134.255 7.20943 134.506 7.07002 134.728 6.8913C134.944 6.71505 135.12 6.49613 135.247 6.24827C135.379 5.98186 135.445 5.688 135.441 5.3909C135.445 5.14409 135.401 4.89889 135.309 4.66955C135.225 4.46675 135.105 4.28095 134.955 4.12133ZM131.826 2.61269C131.75 2.45607 131.712 2.28383 131.715 2.10981C131.713 1.94111 131.751 1.77431 131.826 1.62341C131.902 1.47717 132.007 1.3481 132.135 1.24419C132.267 1.14038 132.417 1.06083 132.576 1.00924C132.745 0.952534 132.922 0.924663 133.1 0.926798C133.276 0.924653 133.452 0.95253 133.619 1.00924C133.779 1.05991 133.929 1.13954 134.06 1.24419C134.189 1.34696 134.295 1.47629 134.369 1.62341C134.448 1.77331 134.488 1.94056 134.485 2.10981C134.492 2.28333 134.457 2.45599 134.382 2.61269C134.309 2.75733 134.206 2.88509 134.081 2.98779C133.949 3.0922 133.799 3.17308 133.64 3.22686C133.296 3.33399 132.928 3.33399 132.585 3.22686C132.425 3.17308 132.276 3.0922 132.144 2.98779C132.014 2.88524 131.906 2.75769 131.826 2.61269ZM134.6 5.94324C134.513 6.11715 134.391 6.27143 134.242 6.39666C134.087 6.52203 133.911 6.61839 133.722 6.68108C133.321 6.81739 132.887 6.81739 132.486 6.68108C132.296 6.61979 132.12 6.5233 131.966 6.39666C131.817 6.27143 131.695 6.11715 131.608 5.94324C131.516 5.76195 131.469 5.56114 131.472 5.35792C131.469 5.15256 131.515 4.94944 131.604 4.76436C131.688 4.59083 131.807 4.4365 131.954 4.31094C132.11 4.18713 132.288 4.09221 132.477 4.03065C132.888 3.89883 133.329 3.89883 133.739 4.03065C133.927 4.09208 134.103 4.18703 134.258 4.31094C134.407 4.43524 134.528 4.5898 134.613 4.76436C134.702 4.94944 134.747 5.15256 134.745 5.35792C134.744 5.56182 134.695 5.76267 134.6 5.94324Z" fill="black"/>
<path id="Vector_12" d="M141.196 4.11569C141.061 3.97161 140.906 3.84802 140.735 3.74883C140.623 3.68461 140.505 3.62948 140.384 3.58395C140.489 3.5462 140.588 3.4964 140.681 3.43556C140.821 3.34882 140.945 3.23867 141.048 3.10992C141.156 2.96773 141.244 2.81091 141.308 2.64414C141.379 2.45597 141.414 2.25594 141.411 2.0547C141.413 1.79447 141.354 1.5374 141.238 1.3045C141.125 1.08487 140.968 0.891144 140.776 0.735666C140.579 0.579212 140.356 0.459167 140.116 0.381176C139.612 0.212134 139.067 0.212134 138.562 0.381176C138.323 0.459167 138.1 0.579212 137.903 0.735666C137.712 0.891304 137.557 1.08506 137.445 1.3045C137.325 1.53634 137.261 1.79347 137.26 2.0547C137.259 2.25438 137.294 2.4526 137.363 2.64002C137.428 2.80697 137.517 2.9638 137.627 3.1058C137.727 3.23537 137.85 3.34569 137.99 3.43144C138.081 3.49142 138.18 3.54118 138.282 3.57983C138.16 3.62367 138.043 3.67888 137.932 3.74471C137.763 3.84304 137.61 3.96677 137.478 4.11156C137.164 4.45557 136.993 4.90683 137 5.37289C136.996 5.66999 137.062 5.96385 137.194 6.23026C137.322 6.4783 137.501 6.6972 137.717 6.87329C137.939 7.05283 138.19 7.19233 138.459 7.28549C139.026 7.4723 139.637 7.4723 140.203 7.28549C140.474 7.1923 140.726 7.05283 140.949 6.87329C141.165 6.69704 141.342 6.47812 141.468 6.23026C141.6 5.96385 141.666 5.66999 141.662 5.37289C141.666 5.12608 141.622 4.88088 141.53 4.65154C141.448 4.4562 141.336 4.27528 141.196 4.11569ZM138.084 2.60704C138.007 2.45072 137.968 2.2785 137.969 2.10416C137.968 1.93515 138.008 1.76837 138.084 1.61777C138.16 1.47153 138.266 1.34246 138.393 1.23855C138.525 1.1339 138.674 1.05426 138.835 1.00359C139.003 0.946891 139.18 0.919021 139.358 0.921155C139.535 0.91901 139.71 0.946887 139.877 1.00359C140.038 1.05426 140.187 1.1339 140.318 1.23855C140.446 1.34246 140.552 1.47153 140.628 1.61777C140.706 1.76767 140.746 1.93492 140.743 2.10416C140.746 2.27872 140.707 2.45143 140.628 2.60704C140.553 2.75187 140.449 2.87961 140.323 2.98214C140.191 3.08817 140.042 3.16921 139.881 3.22122C139.539 3.32828 139.173 3.32828 138.83 3.22122C138.67 3.16921 138.52 3.08817 138.389 2.98214C138.264 2.8784 138.16 2.75093 138.084 2.60704ZM140.858 5.9376C140.771 6.11151 140.649 6.26578 140.5 6.39102C140.345 6.51769 140.167 6.61416 139.976 6.67543C139.576 6.81268 139.14 6.81268 138.74 6.67543C138.55 6.61414 138.374 6.51765 138.22 6.39102C138.07 6.26696 137.948 6.11242 137.862 5.9376C137.77 5.7563 137.723 5.5555 137.726 5.35228C137.722 5.14724 137.766 4.94414 137.853 4.75872C137.938 4.58416 138.059 4.4296 138.208 4.3053C138.364 4.18148 138.542 4.08656 138.731 4.025C139.142 3.89319 139.583 3.89319 139.993 4.025C140.181 4.08644 140.357 4.18139 140.512 4.3053C140.661 4.4296 140.782 4.58416 140.867 4.75872C140.946 4.94614 140.981 5.14916 140.97 5.35228C140.975 5.55482 140.931 5.75559 140.842 5.9376H140.858Z" fill="black"/>
</g>
</svg>
