<?xml version="1.0" standalone="no"?>
<!DOCTYPE svg PUBLIC "-//W3C//DTD SVG 20010904//EN"
 "http://www.w3.org/TR/2001/REC-SVG-20010904/DTD/svg10.dtd">
<svg version="1.0" xmlns="http://www.w3.org/2000/svg"
 width="3485.000000pt" height="3485.000000pt" viewBox="0 0 3485.000000 3485.000000"
 preserveAspectRatio="xMidYMid meet">
<metadata>
Created by potrace 1.14, written by Peter Selinger 2001-2017
</metadata>
<g transform="translate(0.000000,3485.000000) scale(0.100000,-0.100000)"
fill="#000000" stroke="none">
<path d="M8330 29675 c-47 -7 -107 -15 -135 -19 -27 -3 -84 -11 -125 -17 -41
-5 -88 -12 -105 -14 -85 -11 -273 -36 -295 -40 -14 -2 -54 -9 -90 -14 -36 -6
-74 -13 -85 -15 -11 -2 -40 -7 -65 -11 -25 -4 -54 -9 -65 -12 -11 -2 -54 -10
-95 -18 -41 -7 -109 -21 -150 -30 -41 -9 -82 -18 -92 -20 -264 -56 -723 -187
-1008 -287 -132 -46 -399 -148 -458 -174 -29 -13 -55 -24 -58 -24 -3 0 -35
-13 -71 -30 -35 -16 -66 -30 -68 -30 -6 0 -182 -83 -325 -153 -552 -271 -1105
-623 -1609 -1024 -79 -63 -155 -125 -170 -138 -14 -12 -62 -54 -106 -91 -44
-38 -85 -73 -91 -79 -6 -5 -51 -46 -100 -90 -116 -103 -536 -523 -645 -644
-46 -52 -89 -99 -94 -105 -14 -14 -230 -271 -275 -327 -152 -186 -389 -516
-530 -739 -146 -228 -167 -263 -206 -335 -14 -27 -35 -62 -45 -77 -11 -14 -19
-28 -19 -31 0 -3 -24 -49 -54 -101 -30 -53 -58 -106 -62 -119 -4 -12 -15 -34
-25 -49 -25 -35 -148 -292 -239 -498 -75 -169 -251 -620 -264 -675 -1 -5 -23
-73 -48 -150 -94 -286 -204 -698 -253 -946 -13 -67 -45 -238 -50 -269 -3 -19
-7 -46 -10 -60 -2 -14 -7 -43 -9 -65 -15 -117 -18 -141 -21 -156 -2 -9 -6 -40
-10 -70 -3 -30 -10 -81 -15 -114 -5 -33 -12 -87 -16 -119 -3 -33 -7 -67 -9
-76 -2 -9 -6 -39 -9 -66 -6 -49 -9 -68 -21 -154 -4 -25 -13 -71 -21 -102 -12
-47 -14 -167 -13 -655 0 -329 4 -621 9 -650 5 -29 11 -78 15 -110 3 -33 7 -70
10 -84 2 -13 9 -67 16 -119 7 -52 13 -102 14 -110 1 -8 5 -42 9 -75 9 -67 11
-81 25 -163 5 -31 12 -70 15 -87 8 -49 26 -148 30 -170 2 -11 12 -56 21 -100
9 -44 19 -91 21 -105 25 -135 137 -574 208 -816 92 -315 273 -814 372 -1032
13 -29 24 -54 24 -57 0 -3 34 -78 97 -215 196 -424 523 -987 776 -1336 84
-116 284 -381 297 -394 3 -3 25 -30 50 -60 231 -286 604 -680 870 -920 46 -41
88 -80 94 -85 6 -6 43 -37 81 -70 39 -33 72 -62 75 -65 37 -40 353 -286 621
-483 98 -73 496 -337 508 -337 5 0 11 -4 13 -8 2 -7 166 -108 301 -186 194
-113 769 -414 792 -416 3 0 22 -7 43 -16 108 -45 373 -154 376 -154 12 0 12
62 0 128 -8 42 -23 129 -34 192 -16 101 -22 139 -36 225 -3 23 -21 151 -28
210 -13 100 -33 289 -41 390 -4 39 -8 90 -10 115 -28 318 -28 1103 0 1425 2
22 6 76 10 120 3 44 8 91 10 105 2 14 6 57 10 95 3 39 8 81 10 95 2 14 6 52
10 85 4 32 8 67 10 76 2 9 6 40 10 70 11 88 12 92 19 129 3 19 8 51 10 70 3
19 10 58 15 85 5 28 13 70 18 95 4 25 8 77 8 117 0 63 -3 76 -30 114 -16 23
-57 65 -90 93 -34 28 -85 71 -114 96 -30 25 -59 50 -65 55 -6 6 -50 43 -96 84
-47 41 -173 163 -280 270 -176 177 -245 251 -351 376 -19 22 -36 42 -39 45
-14 14 -90 112 -179 231 -56 74 -104 139 -109 144 -14 18 -187 288 -225 351
-198 331 -376 737 -495 1129 -30 97 -106 399 -116 460 -3 17 -7 44 -10 60 -14
72 -19 102 -22 130 -2 17 -8 53 -14 80 -5 28 -11 73 -14 100 -6 57 -15 142
-21 200 -24 217 -24 858 -1 1005 3 14 7 66 11 115 4 50 8 92 10 95 2 3 6 35 9
72 4 37 9 77 11 89 3 13 7 41 10 64 10 67 25 158 30 185 3 14 8 41 11 60 3 19
12 62 19 95 8 33 16 71 19 85 9 46 14 66 45 184 17 65 41 150 53 190 12 39 22
73 23 76 7 31 82 242 131 365 194 497 513 1039 844 1435 8 9 33 39 55 66 22
27 60 71 85 99 73 82 420 427 484 480 32 28 64 55 70 61 31 29 263 209 346
267 52 37 100 71 107 77 36 30 318 204 438 270 151 84 396 203 525 255 30 13
94 39 142 58 76 32 393 142 437 152 9 3 50 14 91 25 219 61 476 118 600 135
25 3 52 8 60 10 18 4 65 11 135 20 28 3 64 8 80 10 28 4 107 12 206 20 180 16
907 19 5519 19 4548 0 5543 -4 5675 -19 17 -2 64 -6 105 -9 41 -3 93 -8 115
-11 50 -6 203 -26 230 -30 185 -25 454 -85 675 -150 85 -25 162 -47 170 -49
46 -13 245 -86 375 -138 272 -110 551 -253 840 -431 56 -34 280 -187 345 -235
67 -50 277 -217 290 -232 3 -3 39 -34 80 -69 73 -62 419 -406 470 -466 65 -77
136 -161 148 -173 7 -8 25 -30 40 -50 15 -21 29 -39 33 -42 27 -24 329 -450
329 -464 0 -4 16 -29 35 -57 20 -27 40 -60 46 -72 5 -12 19 -38 31 -57 65
-107 201 -367 258 -495 12 -27 32 -72 45 -100 109 -242 228 -598 311 -930 16
-64 62 -293 68 -336 3 -24 8 -55 11 -69 11 -53 43 -303 51 -395 23 -286 23
-709 0 -940 -2 -16 -7 -61 -10 -100 -4 -38 -9 -81 -11 -95 -2 -14 -7 -50 -11
-80 -4 -30 -8 -64 -9 -75 -2 -11 -13 -74 -25 -140 -12 -66 -24 -131 -26 -145
-3 -14 -16 -72 -30 -130 -14 -58 -28 -115 -30 -128 -10 -49 -95 -333 -133
-444 -42 -119 -123 -329 -162 -415 -79 -174 -162 -344 -213 -433 -14 -25 -29
-52 -33 -60 -32 -67 -192 -320 -307 -485 -61 -88 -268 -355 -307 -395 -8 -8
-41 -47 -74 -85 -104 -122 -431 -444 -542 -533 -23 -18 -54 -44 -70 -58 -72
-63 -252 -200 -343 -262 -14 -9 -48 -33 -76 -54 -28 -21 -53 -38 -56 -38 -3 0
-34 -19 -70 -43 -257 -173 -662 -378 -998 -506 -74 -29 -152 -58 -172 -66 -21
-8 -38 -13 -38 -10 0 3 -13 -1 -29 -10 -17 -8 -38 -16 -48 -18 -10 -2 -63 -18
-118 -35 -170 -53 -450 -119 -640 -151 -60 -10 -81 -14 -165 -26 -25 -4 -57
-8 -71 -11 -47 -7 -123 -15 -271 -29 -161 -15 -933 -18 -4658 -19 l-4274 -1
-12 -43 c-7 -23 -15 -59 -18 -80 -10 -65 -18 -116 -22 -137 -2 -11 -7 -47 -10
-80 -3 -33 -7 -62 -9 -65 -2 -4 -7 -49 -10 -101 -4 -52 -8 -114 -10 -139 -5
-55 -6 -489 -1 -545 2 -22 7 -83 11 -135 10 -133 22 -232 40 -340 15 -91 25
-148 30 -175 3 -16 8 -41 10 -55 3 -14 9 -41 14 -60 5 -19 15 -55 21 -79 7
-24 14 -53 16 -63 2 -10 6 -26 8 -35 2 -10 12 -45 22 -78 10 -33 17 -63 16
-67 -1 -5 3 -8 9 -8 5 0 7 -5 4 -10 -4 -6 -1 -17 5 -25 7 -8 9 -15 5 -15 -4 0
-2 -6 4 -13 6 -8 8 -17 4 -20 -3 -4 -1 -13 6 -21 6 -8 13 -23 16 -34 2 -11 14
-48 28 -83 31 -80 37 -98 34 -102 -1 -2 6 -15 16 -30 9 -15 15 -27 13 -27 -5
0 24 -67 82 -190 14 -30 27 -61 28 -69 1 -8 9 -18 16 -22 7 -5 10 -9 6 -9 -10
0 43 -99 150 -280 90 -153 137 -207 205 -234 39 -16 306 -17 4012 -12 2184 3
4022 7 4085 10 129 6 297 16 350 21 19 2 71 6 115 10 84 6 103 8 200 19 72 8
103 12 215 26 126 17 152 20 180 26 64 12 77 14 110 19 20 3 108 19 196 36 87
16 168 31 179 33 11 2 52 11 90 20 39 9 81 19 95 22 202 41 554 140 885 249
813 268 1632 689 2324 1194 94 68 495 385 526 414 7 7 45 41 86 77 293 259
608 574 829 829 30 35 60 69 65 75 10 10 99 115 140 165 11 13 25 28 30 35 60
66 311 393 432 561 129 180 328 482 411 623 20 35 42 71 47 80 183 307 374
685 520 1032 67 159 172 425 180 460 2 8 27 83 55 165 28 83 53 157 55 165 2
8 23 78 45 155 54 182 135 508 156 625 3 14 16 81 29 150 26 133 31 162 40
225 3 23 7 50 9 60 2 11 7 43 10 70 4 28 9 61 11 75 3 14 6 45 9 70 2 25 9 83
15 130 5 47 13 113 16 148 3 34 7 88 10 120 33 356 37 1004 10 1347 -2 28 -7
84 -10 125 -3 41 -8 95 -10 120 -2 25 -7 79 -10 120 -3 41 -8 82 -10 90 -2 8
-6 44 -10 80 -7 67 -9 84 -19 160 -19 139 -21 150 -41 275 -9 55 -18 111 -20
125 -1 14 -11 66 -20 115 -9 50 -19 101 -21 115 -7 43 -64 300 -91 410 -14 58
-26 110 -27 115 -2 6 -8 30 -15 55 -7 25 -14 52 -16 60 -4 18 -37 136 -60 209
-9 30 -18 62 -20 70 -12 53 -165 491 -204 586 -5 11 -16 38 -24 60 -20 50
-132 314 -159 375 -113 251 -298 601 -458 865 -54 89 -125 202 -157 250 -32
48 -62 94 -68 104 -36 60 -312 441 -367 506 -9 11 -47 59 -85 106 -37 47 -86
107 -108 133 -22 26 -48 57 -58 69 -10 12 -44 51 -75 86 -31 35 -65 73 -75 85
-185 215 -598 620 -872 856 -60 52 -115 99 -121 105 -6 5 -28 24 -49 40 -21
17 -43 35 -49 40 -6 6 -58 48 -116 93 -58 46 -112 88 -120 95 -17 13 -154 114
-265 194 -126 91 -410 278 -497 328 -10 6 -55 32 -100 59 -304 182 -636 351
-1038 528 -142 62 -445 176 -660 247 -150 50 -403 127 -480 147 -8 2 -94 23
-190 48 -96 24 -188 46 -205 49 -16 3 -52 10 -80 17 -27 6 -61 14 -75 16 -14
3 -68 14 -120 24 -119 24 -146 29 -190 36 -19 2 -46 7 -60 10 -53 10 -112 19
-265 40 -60 8 -121 17 -135 19 -26 4 -182 24 -235 30 -16 2 -83 11 -148 19
-106 14 -692 16 -5880 15 -4551 -1 -5780 -4 -5847 -14z"/>
<path d="M15207 23234 c-1 -1 -72 -5 -157 -8 -155 -7 -199 -10 -340 -21 -93
-8 -142 -13 -200 -20 -25 -3 -65 -7 -90 -10 -94 -11 -211 -27 -280 -40 -14 -3
-47 -7 -75 -10 -27 -4 -57 -8 -65 -10 -8 -3 -33 -7 -55 -10 -22 -3 -58 -10
-80 -15 -22 -5 -69 -14 -105 -21 -96 -17 -281 -57 -400 -85 -58 -14 -115 -28
-127 -30 -12 -2 -34 -9 -48 -14 -14 -5 -25 -7 -25 -5 0 2 -11 0 -25 -5 -14 -5
-36 -12 -48 -15 -12 -2 -53 -14 -92 -25 -38 -11 -77 -22 -85 -24 -109 -29
-572 -180 -645 -211 -16 -7 -57 -23 -90 -35 -413 -157 -948 -415 -1285 -620
-121 -73 -286 -176 -295 -182 -5 -5 -57 -40 -115 -78 -247 -164 -463 -325
-710 -530 -104 -86 -136 -114 -204 -175 -13 -11 -63 -56 -112 -100 -97 -87
-429 -417 -534 -530 -89 -97 -164 -182 -264 -299 -22 -27 -46 -54 -51 -60 -72
-76 -390 -487 -527 -681 -148 -209 -468 -708 -468 -730 0 -3 -16 -29 -35 -59
-19 -30 -35 -57 -35 -59 0 -3 -21 -42 -46 -88 -74 -134 -314 -618 -314 -634 0
-2 -13 -32 -29 -67 -16 -35 -59 -139 -96 -233 -36 -93 -70 -179 -75 -190 -32
-70 -218 -651 -235 -734 -2 -9 -20 -79 -40 -156 -19 -77 -37 -149 -40 -160 -2
-11 -17 -86 -34 -167 -17 -81 -33 -164 -37 -185 -3 -21 -7 -45 -9 -53 -3 -8
-7 -33 -10 -55 -4 -22 -8 -51 -10 -65 -39 -240 -49 -313 -60 -431 -3 -35 -8
-75 -10 -89 -2 -14 -7 -63 -11 -110 -3 -47 -7 -101 -9 -120 -31 -302 -25
-1083 9 -1455 3 -33 8 -87 11 -120 3 -33 7 -76 9 -95 3 -19 8 -62 11 -94 3
-33 8 -73 10 -90 3 -17 7 -49 10 -71 6 -54 16 -124 21 -155 2 -14 6 -45 10
-70 11 -87 51 -314 85 -485 11 -55 23 -111 25 -125 3 -14 14 -65 25 -115 12
-49 22 -97 24 -105 2 -8 17 -69 35 -135 17 -66 33 -127 35 -135 14 -64 96
-330 146 -477 33 -98 62 -182 63 -188 2 -5 6 -17 9 -25 4 -8 29 -74 56 -145
27 -72 58 -152 70 -178 12 -26 26 -59 32 -74 81 -214 370 -787 528 -1045 9
-14 36 -59 61 -100 25 -40 46 -76 48 -80 5 -10 130 -201 140 -213 4 -5 23 -32
42 -60 37 -56 198 -281 217 -305 6 -8 64 -82 129 -165 64 -82 122 -154 128
-160 6 -7 27 -31 46 -55 45 -57 90 -109 115 -136 11 -11 47 -51 80 -89 151
-172 453 -480 649 -660 60 -55 117 -107 125 -115 9 -8 48 -42 86 -75 38 -33
75 -64 81 -70 6 -5 33 -28 59 -50 27 -22 53 -44 59 -50 6 -5 27 -22 48 -37 20
-15 42 -33 50 -40 7 -8 33 -29 58 -48 25 -19 47 -37 50 -40 8 -8 225 -170 325
-242 75 -53 241 -164 425 -283 30 -20 256 -154 315 -188 213 -121 489 -263
665 -342 56 -25 121 -54 144 -65 250 -114 706 -281 1043 -381 367 -109 951
-238 1243 -275 25 -3 53 -8 63 -10 10 -3 37 -7 60 -9 23 -2 89 -11 147 -19 58
-8 128 -18 155 -21 28 -3 59 -7 71 -9 12 -2 45 -7 75 -11 30 -3 86 -10 124
-14 74 -9 11610 -7 11657 2 44 8 99 16 153 22 28 3 61 8 75 10 14 2 49 7 79
10 30 4 61 8 70 10 9 2 44 6 76 10 33 4 69 9 80 11 11 2 40 7 65 10 271 34
742 128 1045 208 6 2 24 6 40 10 79 20 301 85 445 131 63 21 133 43 155 50
127 40 437 161 642 250 137 58 385 172 408 186 6 4 75 40 155 82 80 41 161 83
180 94 85 48 220 127 280 163 36 21 78 47 95 56 60 34 501 329 515 344 3 3 39
30 80 60 76 54 368 280 392 303 7 6 38 32 68 57 30 25 60 49 66 55 6 5 40 35
75 65 290 249 703 664 944 945 33 39 62 72 65 75 3 3 25 30 50 60 25 30 47 57
50 60 34 33 318 409 412 545 157 228 314 477 423 670 88 155 136 247 212 400
46 94 90 181 97 195 62 115 252 583 348 855 122 349 267 873 321 1165 41 221
39 208 62 365 20 134 23 158 30 215 3 25 7 59 9 75 5 30 34 253 42 310 12 97
17 126 32 199 24 118 31 1235 7 1341 -15 72 -19 95 -30 200 -3 33 -8 74 -10
90 -2 17 -6 57 -10 90 -6 67 -14 137 -20 175 -2 14 -7 52 -10 85 -6 66 -38
260 -60 370 -8 39 -16 81 -19 95 -8 47 -47 215 -72 315 -14 55 -27 107 -29
116 -2 8 -26 101 -55 205 -95 349 -310 965 -429 1227 -34 75 -54 122 -56 132
-11 43 -274 570 -345 690 -10 17 -30 53 -45 80 -15 28 -66 114 -114 193 -47
78 -91 150 -96 160 -14 24 -154 233 -212 318 -184 267 -438 584 -713 889 -71
78 -427 435 -505 505 -38 35 -88 80 -110 100 -40 37 -90 80 -181 157 -27 23
-59 50 -71 60 -50 43 -71 59 -191 153 -70 55 -133 104 -139 110 -40 33 -375
270 -382 270 -5 0 -11 4 -13 8 -8 21 -486 320 -733 460 -355 200 -548 294
-958 467 -87 37 -161 65 -163 62 -12 -12 -14 -64 -5 -111 6 -28 13 -64 16 -81
5 -28 8 -46 20 -105 5 -29 11 -66 20 -130 8 -61 14 -100 20 -130 3 -14 7 -45
10 -70 3 -25 7 -61 10 -80 2 -19 7 -59 10 -89 4 -30 8 -61 10 -70 1 -9 6 -52
10 -96 4 -44 8 -93 10 -110 3 -16 7 -66 10 -110 4 -44 8 -102 10 -130 32 -418
22 -1195 -20 -1560 -2 -16 -6 -59 -10 -95 -3 -36 -8 -83 -11 -105 -4 -22 -7
-58 -9 -79 -4 -40 -15 -127 -20 -157 -2 -9 -6 -40 -10 -69 -4 -29 -8 -60 -10
-69 -1 -9 -6 -36 -9 -61 -4 -25 -11 -65 -16 -90 -5 -25 -11 -61 -14 -80 -3
-19 -8 -48 -12 -65 -12 -52 -7 -130 10 -166 21 -43 48 -73 116 -129 62 -51 73
-60 185 -156 133 -114 173 -152 350 -329 147 -146 221 -224 335 -355 28 -32
236 -292 275 -345 34 -46 89 -125 143 -205 20 -30 39 -57 42 -60 3 -3 11 -16
19 -30 8 -14 42 -70 76 -125 34 -55 68 -113 76 -130 9 -16 26 -48 39 -70 107
-186 340 -718 340 -777 0 -8 4 -18 9 -24 5 -5 30 -81 56 -169 55 -188 55 -188
60 -212 2 -10 17 -79 34 -153 16 -74 33 -155 36 -180 3 -25 8 -52 10 -60 2 -8
6 -28 9 -45 2 -16 7 -48 11 -70 7 -49 13 -93 20 -163 4 -29 8 -61 10 -70 1 -9
6 -62 10 -117 3 -55 8 -125 11 -155 5 -69 4 -571 -1 -625 -2 -22 -6 -83 -10
-135 -3 -52 -8 -113 -11 -135 -2 -22 -6 -60 -9 -85 -8 -77 -14 -124 -20 -162
-11 -80 -16 -115 -25 -178 -29 -205 -114 -562 -191 -805 -110 -346 -311 -801
-478 -1079 -39 -65 -71 -120 -71 -122 0 -15 -331 -488 -360 -514 -3 -3 -23
-27 -45 -55 -21 -27 -42 -52 -45 -55 -3 -3 -32 -36 -65 -75 -235 -275 -540
-561 -845 -791 -420 -318 -848 -552 -1415 -774 -11 -4 -42 -15 -70 -25 -27 -9
-59 -21 -70 -25 -47 -21 -398 -122 -505 -145 -8 -2 -58 -13 -110 -25 -52 -12
-106 -24 -120 -26 -14 -2 -34 -6 -46 -9 -12 -3 -39 -7 -60 -10 -21 -4 -50 -8
-64 -11 -47 -8 -155 -24 -200 -29 -25 -2 -54 -6 -65 -9 -11 -2 -58 -7 -105
-11 -47 -3 -103 -8 -125 -11 -22 -2 -92 -7 -155 -10 -147 -8 -10686 -7 -10800
0 -47 3 -134 8 -195 12 -60 3 -117 7 -125 9 -8 2 -49 6 -90 10 -41 4 -82 8
-90 10 -8 1 -40 6 -70 10 -82 10 -138 19 -235 37 -33 6 -69 12 -80 13 -35 5
-207 45 -320 75 -266 68 -623 194 -850 298 -153 71 -427 212 -490 253 -16 10
-41 25 -55 32 -14 6 -36 19 -50 28 -241 157 -313 205 -429 291 -75 56 -138
104 -141 108 -3 3 -27 24 -55 45 -226 181 -512 462 -723 715 -53 63 -99 117
-102 120 -19 16 -222 296 -299 412 -150 226 -353 592 -438 793 -102 240 -120
285 -116 285 3 0 1 6 -5 13 -20 24 -132 364 -182 550 -35 133 -32 120 -60 247
-11 52 -23 104 -25 115 -12 50 -55 329 -65 415 -6 52 -13 111 -15 130 -27 224
-26 812 0 1040 7 55 15 131 20 176 2 22 6 52 9 65 3 13 8 42 11 64 5 36 27
165 41 240 3 17 10 50 15 75 6 25 12 52 14 61 80 388 259 887 462 1294 142
282 374 649 578 911 38 49 74 94 80 100 5 6 28 33 50 59 65 77 73 86 153 175
172 189 394 398 587 554 91 74 90 73 160 126 33 25 62 48 63 53 2 4 10 7 17 7
7 0 15 4 17 9 4 10 270 188 383 256 234 141 504 278 730 370 50 20 104 43 122
51 17 8 36 14 42 14 6 0 19 4 29 9 68 38 531 178 712 216 136 29 279 57 335
65 39 6 81 13 95 15 51 8 187 25 245 31 33 3 76 7 95 9 146 16 847 19 4648 19
l4302 0 11 41 c6 22 12 47 14 55 2 8 6 33 10 55 3 22 8 54 11 70 7 37 9 53 19
130 3 33 8 71 10 83 35 224 24 847 -20 1137 -3 17 -7 48 -10 70 -3 22 -8 51
-11 65 -2 14 -6 34 -8 45 -10 59 -17 93 -22 115 -3 14 -6 35 -7 48 -1 12 -4
22 -7 22 -3 0 -6 8 -7 18 -1 10 -9 47 -18 83 -9 35 -19 72 -21 82 -2 9 -6 25
-9 35 -2 9 -14 53 -25 97 -29 111 -27 103 -50 170 -11 33 -25 69 -31 80 -6 12
-11 27 -13 35 -2 8 -8 28 -14 43 -7 16 -12 30 -12 32 0 3 -11 28 -24 57 -13
29 -29 70 -35 90 -7 21 -17 40 -22 44 -5 3 -7 10 -4 15 4 5 1 9 -4 9 -6 0 -11
5 -11 10 0 16 -61 144 -72 151 -5 3 -8 8 -6 11 7 11 -215 378 -251 416 -79 81
331 74 -4136 71 -2192 -1 -3986 -4 -3988 -5z"/>
</g>
</svg>
