<svg width="40" height="58" viewBox="0 0 40 58" fill="none" xmlns="http://www.w3.org/2000/svg">
<g id="Group 3460">
<path id="path12420" d="M39.7529 11.6918L39.7328 11.6446C39.7328 11.6446 35.9954 3.48288 35.4892 2.67474C34.73 5.00541 26.9863 10.7597 17.7162 14.5359C12.1141 16.8179 6.84926 17.4405 5.71804 16.3908C3.48976 14.323 10.3365 8.90027 18.163 4.6821C23.1553 1.9914 27.7465 0.530654 29.0123 0.135438L28.9675 0C8.61492 4.73761 -1.49336 15.0153 0.207821 18.3853C1.84582 21.6266 12.164 20.4782 22.1674 15.9C26.1978 14.0524 29.2907 12.3366 31.3552 10.9888C31.6958 10.7645 32.0389 10.6555 32.3746 11.2416C32.8525 12.0746 33.7943 14.2902 33.8205 14.3503C34.7128 16.3228 31.3246 20.631 23.6968 24.2544C16.6538 27.5977 9.39906 28.8381 6.2317 27.6714C5.75051 27.4957 5.28221 27.2869 4.68673 26.6869C4.17816 26.1773 3.42304 24.8298 3.18121 24.4116L3.07328 24.4707C3.90256 26.2374 4.69902 27.6728 5.03166 28.019C7.52446 30.6077 16.9397 29.3627 25.4773 25.3848C33.7974 21.507 41.3071 15.0284 39.7529 11.6918Z" fill="black"/>
<path id="path12422" d="M23.6014 56.4746L39.9848 56.6822L39.9853 56.8468L23.6014 57.0919H16.3839L0 56.8468L0.000358657 56.6822L16.3839 56.4746H23.6014Z" fill="black"/>
<path id="path12424" d="M21.6098 50.5892C21.6098 51.1622 21.5043 52.0742 20.6975 52.0742C19.7931 52.0742 19.7026 50.7626 19.7026 50.1218C19.7026 49.466 19.8911 48.6595 20.6073 48.6595C21.5345 48.6595 21.6098 49.9487 21.6098 50.5892ZM22.5216 50.363C22.5216 49.1571 21.9487 48.0566 20.66 48.0566C19.5822 48.0566 18.8057 49.0216 18.8057 50.363C18.8057 51.5615 19.3635 52.6698 20.66 52.6698C21.7378 52.6698 22.5216 51.7048 22.5216 50.363Z" fill="black"/>
<path id="path12426" d="M24.487 44.3095V44.1501L23.3737 43.6601V36.0519L24.487 35.5654V35.4058H20.4961V35.5654L21.6115 36.0519V43.6601L20.4961 44.1501V44.3095H24.487Z" fill="black"/>
<path id="path12428" d="M19.8266 35.5654V35.4058H16.0385V35.5654L17.0148 36.0519L15.9625 41.8825L14.2315 35.4058H12.8713L10.9703 41.8518L10.2103 36.0519L11.1706 35.5654V35.4058H7.13672V35.5654L8.28762 36.0519L9.9658 44.3095H11.6344L13.4584 38.4662L15.0197 44.3095H16.6894L18.6845 36.0519L19.8266 35.5654Z" fill="black"/>
<path id="path12430" d="M35.4336 51.523L35.3535 51.4954L34.986 51.9762H33.6224V50.5871H34.4369L34.6526 51.0023H34.7326V49.5986H34.6526L34.4369 50.0286H33.6224V48.7529H34.9345L35.1551 49.2814H35.2375V48.1943H32.2177V48.2725L32.7621 48.5103V52.2249L32.2168 52.4644V52.5421H35.2219L35.4336 51.523Z" fill="black"/>
<path id="path12432" d="M10.4344 51.523L10.3546 51.4954L9.98708 51.9762H8.62347V50.5871H9.43789L9.65362 51.0023H9.73369V49.5986H9.65362L9.43789 50.0286H8.62347V48.7529H9.93538L10.1562 49.2814H10.2385V48.1943H7.2187V48.2725L7.76314 48.5103V52.2249L7.21777 52.4644V52.5421H10.223L10.4344 51.523Z" fill="black"/>
<path id="path12434" d="M18.2804 52.5421V52.4644L17.7366 52.2249V48.5103L18.2806 48.2725V48.1943H16.3854V48.2725L16.8764 48.5103V50.0586H15.3213V48.5103L15.8118 48.2725V48.1943H13.8799V48.2725L14.4607 48.5103V52.2249L13.915 52.4644V52.5421H15.8044V52.4644L15.3213 52.2249V50.6249H16.8764V52.2249L16.3854 52.4644V52.5421H18.2804Z" fill="black"/>
<path id="path12436" d="M2.35297 52.5421V52.4644L1.80981 52.2249V48.5103L2.35297 48.2725V48.1943H0.404297V48.2725L0.949007 48.5103V52.2249L0.404297 52.4644V52.5421H2.35297Z" fill="black"/>
<path id="path12438" d="M31.7722 52.5421V52.4644L31.1714 52.2249L29.5745 50.1566L31.102 48.5103L31.6501 48.2725V48.1943H29.7386V48.2725L30.1583 48.4661L28.7921 50.044V48.5103L29.2425 48.2725V48.1943H27.3721V48.2708L27.9306 48.5103V52.2249L27.3872 52.4644V52.5421H29.2734V52.4644L28.7921 52.2249V50.4513L30.2967 52.5421H31.7722Z" fill="black"/>
<path id="path12440" d="M39.9989 48.2725V48.1943H38.1085V48.2725L38.5938 48.5103L37.9321 50.1646L37.2257 48.5103L37.7122 48.2725V48.1943H35.6973V48.2725L36.2442 48.5103L37.4481 50.7836V52.2249L36.9026 52.4644V52.5421H38.8509V52.4644L38.3092 52.2249V50.7687L39.4586 48.5103L39.9989 48.2725Z" fill="black"/>
<path id="path12442" d="M6.29755 41.8366C6.29755 39.9509 4.68978 39.3633 3.29879 38.6371C2.80427 38.3743 2.07759 37.9726 2.07759 37.4001C2.07759 36.8595 2.60566 36.3721 3.15945 36.3182C4.04104 36.2327 4.62292 36.5369 4.98071 36.8862L5.54655 38.1457H5.71022V35.6537C4.78257 35.3909 4.21084 35.1592 3.2062 35.1592C1.72168 35.1592 0.423288 36.2412 0.423288 37.5857C0.423288 38.9153 1.33558 39.6108 2.40233 40.1521C3.15945 40.5384 4.51972 40.956 4.51972 42.0839C4.51972 42.6868 3.90148 43.4267 3.06689 43.4134C2.07265 43.3981 1.50348 42.9536 1.09967 42.6334L0.559085 41.3761H0.392578V44.0782C1.28906 44.2792 2.09295 44.5572 3.02059 44.5572C4.90656 44.5572 6.29755 43.5063 6.29755 41.8366Z" fill="black"/>
<path id="path12444" d="M32.0964 41.8366C32.0964 39.9509 30.4886 39.3633 29.0976 38.6371C28.6031 38.3743 27.8767 37.9726 27.8767 37.4001C27.8767 36.8595 28.4047 36.3721 28.9583 36.3182C29.8401 36.2327 30.422 36.5369 30.7796 36.8862L31.3454 38.1457H31.5093V35.6537C30.5817 35.3909 30.0097 35.1592 29.005 35.1592C27.5205 35.1592 26.2221 36.2412 26.2221 37.5857C26.2221 38.9153 27.1347 39.6108 28.2012 40.1521C28.9583 40.5384 30.3186 40.956 30.3186 42.0839C30.3186 42.6868 29.7003 43.4267 28.8657 43.4134C27.8715 43.3981 27.3023 42.9536 26.8985 42.6334L26.3582 41.3761H26.1914V44.0782C27.0879 44.2792 27.8918 44.5572 28.8194 44.5572C30.7054 44.5572 32.0964 43.5063 32.0964 41.8366Z" fill="black"/>
<path id="path12446" d="M39.9313 41.8366C39.9313 39.9509 38.3236 39.3633 36.9325 38.6371C36.438 38.3743 35.7116 37.9726 35.7116 37.4001C35.7116 36.8595 36.2397 36.3721 36.7932 36.3182C37.675 36.2327 38.2569 36.5369 38.6145 36.8862L39.1804 38.1457H39.3442V35.6537C38.4166 35.3909 37.8446 35.1592 36.84 35.1592C35.3555 35.1592 34.0571 36.2412 34.0571 37.5857C34.0571 38.9153 34.9696 39.6108 36.0361 40.1521C36.7932 40.5384 38.1535 40.956 38.1535 42.0839C38.1535 42.6868 37.5352 43.4267 36.7006 43.4134C35.7064 43.3981 35.1373 42.9536 34.7334 42.6334L34.1931 41.3761H34.0264V44.0782C34.9228 44.2792 35.7267 44.5572 36.6544 44.5572C38.5403 44.5572 39.9313 43.5063 39.9313 41.8366Z" fill="black"/>
<path id="path12448" d="M26.6834 51.2643H26.6074L26.3235 51.8911C25.9643 52.0563 25.7927 52.0984 25.4334 52.0984C24.8371 52.0984 24.2937 51.5774 24.2937 50.2868C24.2937 49.0415 24.9427 48.6526 25.5314 48.649C25.8033 48.6472 26.1025 48.7726 26.2149 48.8344L26.4669 49.4222H26.5429V48.2717C26.2045 48.1588 25.8559 48.0605 25.5466 48.0605C24.3842 48.0605 23.3477 48.936 23.3477 50.317C23.3477 51.9475 24.2106 52.6718 25.4181 52.6718C25.8059 52.6718 26.1738 52.5892 26.6114 52.4383C26.6353 52.4305 26.6542 52.4227 26.6834 52.4113V51.2643Z" fill="black"/>
<path id="path12450" d="M6.37774 51.2741H6.3017L6.01786 51.9008C5.65867 52.0661 5.48694 52.1082 5.12776 52.1082C4.53145 52.1082 3.98804 51.5872 3.98804 50.2966C3.98804 49.0513 4.63703 48.6624 5.22576 48.6588C5.49761 48.6569 5.79682 48.7823 5.90921 48.8442L6.1612 49.432H6.23724V48.2814C5.8988 48.1686 5.55023 48.0703 5.24086 48.0703C4.07849 48.0703 3.04199 48.9458 3.04199 50.3269C3.04199 51.9573 3.90491 52.6816 5.1124 52.6816C5.50016 52.6816 5.86813 52.5989 6.30574 52.448C6.32958 52.4402 6.34846 52.4324 6.37774 52.4211V51.2741Z" fill="black"/>
</g>
</svg>
