<svg width="111" height="22" viewBox="0 0 111 22" fill="none" xmlns="http://www.w3.org/2000/svg">
<g id="Isolationsmodus" clip-path="url(#clip0_56_3167)">
<path id="Vector" d="M65.6219 9.44767C65.6645 9.57708 65.6804 9.67635 65.7265 9.7579C66.6093 11.3233 67.4496 12.917 68.3981 14.4416C69.2348 15.7871 70.2028 17.0493 71.0963 18.3594C71.5199 18.9781 71.9135 19.6181 72.3053 20.2581C72.4932 20.5648 72.5375 20.8998 72.3124 21.2154C72.0713 21.5522 71.7132 21.6657 71.3391 21.4653C71.059 21.3146 70.7559 21.1285 70.5768 20.8785C69.1497 18.8877 67.689 16.9164 66.3594 14.8617C65.2053 13.0801 64.2657 11.169 63.3226 9.26507C63.0407 8.69601 63.0833 8.10922 63.0992 7.52065C63.1099 7.15369 63.5779 6.87536 63.9271 7.02959C64.8171 7.42315 65.6964 7.32388 66.5757 7.01896C67.1359 6.82573 67.6996 6.63604 68.2474 6.40735C68.9831 6.09889 69.4458 5.52096 69.6958 4.77817C69.7294 4.68066 69.678 4.52643 69.616 4.4307C69.3447 4.00346 68.9583 3.70209 68.5275 3.43972C67.5773 2.86356 66.5296 2.60119 65.4499 2.39378C64.0211 2.119 62.6029 2.16509 61.1829 2.42037C60.8194 2.48596 60.7911 2.51255 60.8088 2.89725C60.9329 5.55642 61.0393 8.21558 61.1953 10.873C61.2644 12.0448 61.4488 13.2095 61.5463 14.3795C61.6119 15.1542 61.6332 15.9343 61.642 16.7125C61.6473 17.1663 61.3211 17.5138 60.8762 17.5989C60.5181 17.668 60.2539 17.4908 60.0962 17.2071C59.9543 16.9536 59.8338 16.6629 59.8001 16.3775C59.6228 14.8741 59.4686 13.3673 59.3232 11.8604C59.0502 9.05234 58.9616 6.23716 58.9439 3.41844C58.9439 3.34753 58.9492 3.27662 58.9439 3.20571C58.9244 2.92916 58.818 2.86002 58.5556 2.95398C58.4617 2.98766 58.3783 3.0568 58.2844 3.07098C58.1496 3.09048 57.9954 3.11175 57.8749 3.06566C57.2633 2.83343 56.8094 2.0924 56.8502 1.44179C56.8644 1.22374 56.953 1.04824 57.1551 0.970236C57.5239 0.828413 57.8926 0.674182 58.2755 0.58377C60.2858 0.112211 62.321 -0.109387 64.3881 0.0537089C65.8754 0.170712 67.2901 0.555405 68.6002 1.26806C69.4423 1.72544 70.1868 2.32109 70.7399 3.11175C71.3108 3.92723 71.582 4.84553 71.4526 5.84183C71.3799 6.39849 71.1158 6.89841 70.7559 7.32388C70.0911 8.11276 69.2561 8.62687 68.2474 8.90519C67.4514 9.12502 66.6537 9.28989 65.8346 9.37853C65.7815 9.38385 65.7301 9.41221 65.6255 9.44589L65.6219 9.44767Z" fill="black"/>
<path id="Vector_2" d="M44.8396 15.2633C44.8396 14.7723 44.8608 14.3769 44.8343 13.9869C44.7882 13.3097 44.7084 12.6343 44.6499 11.9571C44.5932 11.3083 44.5435 10.6594 44.4868 10.0106C44.3769 8.7271 44.2723 7.44361 44.1482 6.16189C44.0737 5.38186 44.095 4.60361 44.1925 3.83068C44.2829 3.12157 44.5311 2.45678 44.9672 1.88063C45.1002 1.70512 45.2899 1.56153 45.4795 1.44452C45.7862 1.25661 46.0291 1.38602 46.1816 1.72108C46.4989 2.41601 46.3252 3.08966 46.0894 3.74027C45.7685 4.62489 45.6533 5.50773 45.7721 6.44553C45.9564 7.89212 46.0752 9.3458 46.2277 10.7942C46.35 11.9482 46.4936 13.0988 46.6106 14.2529C46.7152 15.2882 46.6531 16.3199 46.3907 17.3286C46.334 17.5502 46.178 17.7576 46.0291 17.9402C45.8961 18.1069 45.6994 18.1264 45.4866 18.0572C44.8697 17.8551 44.3361 17.5165 43.8557 17.0858C42.5669 15.9317 41.5635 14.5525 40.6771 13.0775C39.9449 11.8614 39.3652 10.5726 38.7731 9.2873C38.5604 8.8246 38.314 8.37786 38.0782 7.92758C38.0481 7.86907 37.9949 7.82475 37.9452 7.76448C37.768 7.87439 37.8229 8.02685 37.8247 8.15626C37.846 10.3651 37.8814 12.5723 37.8903 14.7811C37.8938 15.7721 37.8513 16.7631 37.8265 17.7523C37.8229 17.864 37.8211 17.981 37.7892 18.0891C37.69 18.4295 37.3974 18.5589 37.0659 18.4366C36.6883 18.2966 36.4862 18.0306 36.371 17.646C36.192 17.0379 36.1707 16.421 36.1689 15.7987C36.16 14.0295 36.16 12.2585 36.1299 10.4892C36.1086 9.24298 36.0023 7.99849 36.0147 6.754C36.0235 5.78074 36.1476 4.80926 36.2363 3.83777C36.2646 3.52931 36.332 3.22262 36.4011 2.91947C36.4384 2.75815 36.5022 2.59683 36.5802 2.44969C36.6706 2.28305 36.8231 2.23341 37.0163 2.27418C37.4435 2.36282 37.7928 2.54187 37.9257 2.99748C37.9328 3.02407 37.9523 3.04889 37.9576 3.07548C38.1846 4.20651 38.8405 5.1514 39.2979 6.18493C39.6701 7.02523 40.0176 7.87616 40.3917 8.71469C41.2408 10.6222 42.269 12.4269 43.5313 14.0915C43.8114 14.4603 44.173 14.7687 44.5063 15.0949C44.5772 15.1641 44.6907 15.1907 44.8413 15.2633H44.8396Z" fill="black"/>
<path id="Vector_3" d="M88.9923 6.64286C88.9639 6.83787 88.9391 6.94423 88.9356 7.0506C88.9054 8.28268 88.8771 9.51476 88.8505 10.7451C88.8292 11.7219 88.7991 12.6987 88.792 13.6755C88.7849 14.6806 88.7973 15.6858 88.8097 16.691C88.815 17.0562 88.776 17.3965 88.5172 17.6802C88.1821 18.0454 87.7247 18.0135 87.4411 17.6022C87.0919 17.0987 86.8986 16.5456 86.9004 15.9322C86.9057 14.3048 86.9057 12.6756 86.9305 11.0482C86.9625 8.8677 87.0192 6.68718 87.0546 4.50666C87.06 4.15388 87.0298 3.79932 86.9926 3.44831C86.9412 2.95371 87.0564 2.70552 87.4606 2.50874C87.7655 2.3616 88.0811 2.4201 88.3754 2.7392C88.8274 3.22671 89.2724 3.72309 89.6872 4.24252C90.3024 5.01368 90.9831 5.70151 91.8571 6.18016C92.3251 6.43722 92.802 6.51699 93.3303 6.39467C93.9791 6.24398 94.6209 6.09153 95.2484 5.85929C95.8742 5.62706 96.3972 5.25477 96.8971 4.83285C97.2322 4.54921 97.5654 4.26202 97.9005 3.97837C97.9874 3.90569 98.0778 3.83655 98.1735 3.77805C98.5671 3.53872 98.856 3.57418 99.1503 3.91987C99.4038 4.21947 99.5687 4.56339 99.5297 4.96936C99.4783 5.50474 99.4304 6.04011 99.3577 6.57195C99.2389 7.42643 99.0652 8.27559 98.9784 9.13362C98.8259 10.6245 98.661 12.1207 98.7709 13.6241C98.8525 14.7391 98.9606 15.8524 99.0634 16.9658C99.0883 17.2299 99.0581 17.4728 98.911 17.6979C98.6628 18.0808 98.1983 18.1039 97.982 17.7068C97.7658 17.3114 97.5761 16.8948 97.4413 16.4658C96.8723 14.6718 96.7712 12.8263 96.8882 10.9614C96.9467 10.0431 97.0106 9.12475 97.0708 8.20645C97.0779 8.10718 97.085 8.00613 97.0673 7.9104C97.0283 7.69234 96.8918 7.61612 96.7003 7.71716C95.7395 8.2295 94.6918 8.46882 93.6494 8.73474C93.0431 8.88897 92.4634 8.84288 91.8943 8.64965C91.2313 8.42628 90.6286 8.07881 90.0985 7.61966C89.8414 7.39806 89.6074 7.14987 89.3575 6.91941C89.2617 6.83255 89.1518 6.76164 88.9905 6.63754L88.9923 6.64286Z" fill="black"/>
<path id="Vector_4" d="M74.3146 10.911C74.3146 9.57965 74.3058 8.2483 74.3199 6.91871C74.3235 6.49147 74.1675 6.16528 73.8821 5.85682C73.6853 5.64409 73.5452 5.37285 73.4123 5.11225C73.352 4.99348 73.3573 4.83747 73.3467 4.69742C73.3325 4.48114 73.4513 4.34996 73.6534 4.30032C73.7757 4.27018 73.9051 4.24536 74.0292 4.24891C75.4669 4.28436 76.8834 4.08227 78.2963 3.86776C79.1366 3.74012 79.9716 3.58412 80.8136 3.46357C81.4022 3.37847 81.9943 3.31997 82.5882 3.27388C83.0367 3.2402 83.4657 3.29693 83.783 3.68339C84.1801 4.16382 83.9656 4.90661 83.3611 5.02893C82.4588 5.2133 81.5511 5.36399 80.6452 5.51999C80.1151 5.61218 79.5815 5.68663 79.0497 5.76818C78.1403 5.90823 77.2308 6.04296 76.3214 6.18656C75.9491 6.24506 75.9349 6.28583 75.9456 6.65811C75.9669 7.408 75.9775 8.15789 75.9917 8.90777C76.0005 9.38997 76.0803 9.4662 76.5412 9.38465C77.2947 9.25169 78.041 9.07973 78.798 8.97514C80.0762 8.79963 81.3632 8.67376 82.6467 8.91309C82.8966 8.95918 83.1484 9.1081 83.3505 9.26942C83.5543 9.43074 83.6589 9.68602 83.5508 9.95726C83.4285 10.2639 83.2157 10.4873 82.8754 10.537C82.5953 10.5777 82.3116 10.5955 82.0298 10.622C81.4518 10.677 80.8721 10.7125 80.296 10.7905C79.6223 10.8826 78.9522 10.9997 78.2856 11.1308C77.7024 11.2461 77.1262 11.395 76.5465 11.5297C76.4916 11.5421 76.4349 11.5528 76.3817 11.5687C76.0413 11.6698 75.9988 11.7194 75.9917 12.0722C75.9757 12.893 75.9651 13.7138 75.9509 14.5363C75.9473 14.7207 75.9332 14.9051 75.942 15.0877C75.958 15.4156 76.0502 15.4936 76.3693 15.4334C78.0995 15.1036 79.8528 14.9671 81.6078 14.9051C82.4942 14.8732 83.3859 14.999 84.2741 15.077C84.6251 15.1072 84.9194 15.4476 84.9336 15.756C84.946 16.0361 84.6907 16.4031 84.3929 16.497C84.1908 16.5591 83.9816 16.6105 83.7724 16.63C82.4605 16.7541 81.1469 16.8516 79.8368 16.9899C79.1614 17.0608 78.4931 17.1991 77.8229 17.3072C77.3053 17.3905 76.7841 17.4543 76.2735 17.566C76.0324 17.6174 75.7984 17.7362 75.5857 17.8656C75.3889 17.9844 75.1992 18.0677 74.99 17.9596C74.3359 17.6192 73.6764 17.2842 73.2226 16.669C73.001 16.3694 72.8999 16.045 73.0116 15.6709C73.1286 15.2845 73.3875 15.1621 73.7633 15.327C74.2437 15.538 74.2614 15.5344 74.2632 14.9884C74.2685 13.6287 74.265 12.2707 74.265 10.911C74.2792 10.911 74.2951 10.911 74.3093 10.911H74.3146Z" fill="black"/>
<path id="Vector_5" d="M12.06 10.8993C12.06 9.55378 12.0511 8.20824 12.0653 6.86271C12.0689 6.47624 11.9253 6.18728 11.6576 5.92668C11.3456 5.62353 11.1222 5.2672 11.1063 4.81515C11.0921 4.40741 11.202 4.28508 11.6133 4.24608C11.67 4.24077 11.7267 4.24077 11.7835 4.24254C13.1201 4.28331 14.4391 4.10781 15.7563 3.89862C16.7632 3.73907 17.7684 3.56179 18.7771 3.41642C19.3231 3.33842 19.8762 3.29765 20.4275 3.26928C20.8158 3.24801 21.1916 3.3136 21.4806 3.62384C21.9131 4.08653 21.6897 4.91088 21.0764 5.0332C20.1598 5.21579 19.238 5.36648 18.3162 5.52603C17.8269 5.61112 17.3376 5.68735 16.8465 5.76358C15.9513 5.90186 15.0542 6.0295 14.159 6.17309C13.6537 6.25464 13.6573 6.28123 13.6874 6.77052C13.7211 7.33604 13.7229 7.90155 13.7353 8.46884C13.7388 8.65321 13.7282 8.83758 13.7353 9.02195C13.7477 9.36587 13.8452 9.45983 14.1838 9.4031C14.8823 9.28609 15.5754 9.14073 16.2739 9.0255C17.6212 8.8039 18.9739 8.68867 20.3336 8.90317C20.5499 8.93686 20.7785 9.0255 20.9558 9.15314C21.1845 9.318 21.3884 9.55024 21.3121 9.86934C21.2359 10.1884 21.0374 10.426 20.7059 10.5217C20.6243 10.5448 20.5392 10.5536 20.4541 10.5625C19.6085 10.6423 18.7558 10.683 17.9173 10.8089C16.9653 10.9507 16.0257 11.1635 15.0808 11.3514C14.7617 11.4152 14.4444 11.4914 14.1288 11.5748C13.7778 11.6669 13.7424 11.7183 13.7353 12.0711C13.714 13.0196 13.6945 13.968 13.6732 14.9164C13.6732 14.9874 13.6679 15.0583 13.6768 15.1292C13.7158 15.4128 13.8222 15.489 14.1111 15.4465C14.7422 15.3508 15.368 15.2267 16.0027 15.1664C17.2011 15.0529 18.403 14.9288 19.605 14.8987C20.4063 14.8792 21.2146 14.9998 22.0159 15.0831C22.3829 15.1203 22.6187 15.3915 22.6488 15.7248C22.679 16.0617 22.4645 16.4003 22.1223 16.5048C21.9078 16.5704 21.6809 16.6254 21.4593 16.636C19.3621 16.7477 17.2826 17.0048 15.2173 17.3788C14.8131 17.4515 14.4019 17.4834 14.0012 17.5721C13.7743 17.6235 13.5456 17.7245 13.3524 17.8557C13.113 18.017 12.8826 18.072 12.6397 17.9266C12.2036 17.6642 11.7622 17.4054 11.3598 17.0987C11.1435 16.9321 10.968 16.6874 10.8368 16.4428C10.7428 16.2691 10.7074 16.0368 10.7251 15.8365C10.773 15.3047 11.1063 15.1398 11.5885 15.3791C11.9217 15.544 12.0033 15.5015 12.0121 15.1132C12.0405 13.7109 12.06 12.3087 12.0831 10.9082C12.0777 10.9082 12.0707 10.9082 12.0653 10.9082L12.06 10.8993Z" fill="black"/>
<path id="Vector_6" d="M26.4524 13.0754C26.2556 13.781 26.0518 14.4404 25.8887 15.1105C25.6582 16.0572 25.4597 17.0127 25.2469 17.9629C25.2292 18.0445 25.2008 18.1278 25.1654 18.204C24.9845 18.5976 24.7559 18.6685 24.3978 18.4381C24.2666 18.3547 24.1496 18.2501 24.0219 18.1597C23.7808 17.9878 23.678 17.7467 23.7028 17.4595C23.7347 17.0943 23.7631 16.7238 23.8358 16.3657C24.0202 15.4793 24.2382 14.6018 24.4261 13.7154C24.6672 12.5772 25.0448 11.4799 25.4792 10.4074C25.9365 9.28165 26.4825 8.19316 26.9647 7.07631C27.3672 6.14383 27.7962 5.21667 28.0107 4.21505C28.0231 4.16009 28.0284 4.09627 28.0603 4.05372C28.3475 3.68676 28.6312 3.31802 28.9361 2.96701C28.9928 2.90142 29.1524 2.86951 29.2428 2.8961C29.7852 3.0521 30.2213 3.34993 30.3844 3.92254C30.7142 5.07839 31.0386 6.23424 31.1751 7.43441C31.246 8.06552 31.3985 8.68777 31.5048 9.31356C31.5935 9.83121 31.6998 10.3347 32.0172 10.7779C32.104 10.9002 32.12 11.1058 32.1023 11.2672C32.0207 12.0082 32.2264 12.696 32.4568 13.3839C32.7085 14.1337 32.9248 14.896 33.2138 15.6317C33.4726 16.2877 33.7988 16.917 34.1144 17.5463C34.2845 17.8885 34.4973 18.2076 34.5434 18.5994C34.5753 18.86 34.5877 19.1277 34.343 19.2908C34.102 19.4539 33.8254 19.4432 33.5737 19.3049C33.2475 19.1241 32.9833 18.8724 32.7741 18.5586C32.1714 17.658 31.7406 16.6759 31.3914 15.6566C31.1255 14.8819 30.8737 14.1018 30.6202 13.3218C30.4748 12.8768 30.3614 12.8077 29.9111 12.8822C29.2126 12.9992 28.5159 13.1286 27.8139 13.2154C27.5267 13.2509 27.2253 13.1959 26.9328 13.1694C26.7839 13.1552 26.6385 13.1126 26.4471 13.0736L26.4524 13.0754ZM29.1719 6.75012C29.0619 6.85471 29.0176 6.87776 29.0034 6.91144C28.5177 8.05489 28.0373 9.20187 27.5533 10.3453C27.4877 10.5013 27.3884 10.6431 27.3335 10.8027C27.2519 11.0367 27.3548 11.1572 27.6029 11.1307C27.9256 11.0952 28.25 11.058 28.5709 11.0048C28.9059 10.9498 29.2392 10.8878 29.569 10.8027C29.9359 10.7087 29.9572 10.6556 29.8934 10.2975C29.7516 9.50325 29.6186 8.70904 29.4661 7.91838C29.3952 7.54964 29.2853 7.188 29.1736 6.74835L29.1719 6.75012Z" fill="black"/>
<path id="Vector_7" d="M8.01022 2.6983C7.9854 3.0369 7.96944 3.37727 7.93222 3.7141C7.74785 5.41065 7.82408 7.1072 7.90208 8.80552C7.94108 9.65468 7.97122 10.5038 8.02972 11.3512C8.0829 12.1135 8.16622 12.8741 8.24068 13.6346C8.33995 14.6486 8.47823 15.6591 8.53673 16.6767C8.57396 17.3361 8.54914 18.0098 8.4605 18.6639C8.34882 19.4883 7.61666 20.0077 6.73204 19.9652C6.00875 19.9315 5.33864 19.7294 4.75362 19.2862C4.14379 18.8235 3.5109 18.3892 2.93121 17.8928C1.80017 16.9231 0.890737 15.7708 0.270264 14.4093C0.142624 14.1292 0.0734855 13.8189 0.00611989 13.5176C-0.0133807 13.4289 0.0380299 13.2782 0.108941 13.2286C0.181625 13.1772 0.321675 13.1932 0.422723 13.2162C0.498952 13.2339 0.568091 13.3031 0.626593 13.3633C0.865918 13.6027 1.10879 13.842 1.3357 14.0937C1.63885 14.4288 1.92249 14.7833 2.22918 15.1184C3.09785 16.0704 4.13492 16.8025 5.2695 17.4017C5.48223 17.5134 5.6861 17.6428 5.90061 17.751C6.24808 17.9247 6.57072 17.7917 6.6434 17.4141C6.6895 17.1695 6.67531 16.9071 6.65227 16.6572C6.49449 14.9943 6.26758 13.3367 6.17716 11.6703C6.04243 9.16894 5.99989 6.66223 5.92366 4.1573C5.91657 3.91797 5.94138 3.67687 5.95557 3.43577C6.00166 2.68766 6.05484 1.93778 6.09739 1.18966C6.11689 0.85638 6.19666 0.544371 6.3899 0.271363C6.54767 0.0462204 6.69304 0.00899202 6.93591 0.131314C7.60602 0.468142 8.03858 0.960974 8.00135 1.76404C7.98717 2.07428 7.99958 2.38629 7.99958 2.6983C8.0049 2.6983 8.00844 2.6983 8.01376 2.6983H8.01022Z" fill="black"/>
<path id="Vector_8" d="M105.426 9.94581C105.537 9.8749 105.626 9.84831 105.67 9.78626C106.285 8.93887 106.945 8.11808 107.489 7.22637C107.966 6.44457 108.363 5.6025 108.7 4.75157C108.991 4.02119 109.166 3.24116 109.358 2.47532C109.483 1.97185 109.882 1.80344 110.308 2.1119C110.873 2.51787 111.072 3.07629 110.989 3.7464C110.861 4.76575 110.54 5.7266 110.1 6.65199C109.161 8.63041 107.938 10.4351 106.644 12.1919C105.619 13.5836 104.61 14.9841 103.777 16.5033C103.6 16.826 103.429 17.1522 103.245 17.4695C103.174 17.5918 103.084 17.7017 102.99 17.8081C102.612 18.23 102.364 18.2601 101.88 17.9517C101.543 17.7372 101.46 17.5581 101.556 17.1646C101.687 16.631 101.822 16.1062 102.121 15.624C102.949 14.2891 103.74 12.9312 104.55 11.5839C104.727 11.2896 104.715 11.2736 104.459 11.0219C104.209 10.7755 103.949 10.522 103.77 10.2241C103.341 9.50971 102.908 8.78819 102.564 8.03121C102.109 7.02427 101.804 5.96238 101.701 4.85085C101.655 4.34383 101.577 3.83859 101.536 3.3298C101.513 3.0497 101.522 2.76428 101.547 2.48241C101.566 2.24841 101.669 2.02504 101.907 1.95058C102.16 1.8708 102.405 1.91512 102.605 2.1314C102.93 2.48241 103.169 2.85647 103.233 3.35285C103.339 4.19492 103.451 5.04053 103.637 5.86842C103.913 7.09518 104.19 8.33081 105.025 9.3413C105.167 9.51325 105.273 9.71535 105.426 9.94759V9.94581Z" fill="black"/>
<path id="Vector_9" d="M51.3154 12.9109C50.8474 12.9109 50.3812 12.9145 49.9132 12.9092C49.7448 12.9074 49.571 12.9039 49.4079 12.8631C48.8814 12.7301 48.6687 12.4057 48.7272 11.8597C48.7768 11.397 49.08 11.1027 49.571 11.069C49.8529 11.0495 50.1383 11.0371 50.4184 11.0655C51.5299 11.1789 52.6433 11.2942 53.7512 11.4449C54.1678 11.5016 54.572 11.6487 54.978 11.7693C55.0968 11.8047 55.1996 11.8916 55.306 11.9607C55.4567 12.06 55.5648 12.1894 55.5169 12.3844C55.4726 12.5617 55.3255 12.6149 55.1641 12.6415C54.9408 12.6769 54.7174 12.7248 54.4923 12.7408C53.4339 12.8188 52.3756 12.8879 51.319 12.9606C51.319 12.9446 51.3172 12.9287 51.3154 12.9127V12.9109Z" fill="black"/>
</g>
<defs>
<clipPath id="clip0_56_3167">
<rect width="111.008" height="21.5623" fill="white"/>
</clipPath>
</defs>
</svg>
