<svg width="85" height="19" viewBox="0 0 85 19" fill="none" xmlns="http://www.w3.org/2000/svg">
<path d="M84.5634 16.5527C82.561 16.5557 80.5585 16.5616 78.5561 16.5645C77.2821 16.5645 76.011 16.5645 74.737 16.5645H74.3389V0.839844H84.1742V1.90742H75.4477V7.43996H82.9886V8.52523H75.4507V15.494H84.5605V16.5527H84.5634Z" fill="black"/>
<path d="M50.2018 16.9166C45.6012 16.9107 41.8942 13.1005 41.9679 8.44679C42.0387 4.03197 45.7781 0.357369 50.2903 0.375064C54.8408 0.392758 58.5448 4.12634 58.5272 8.67387C58.5095 13.2538 54.7995 16.9255 50.2018 16.9137V16.9166ZM43.0738 8.65913C43.0738 12.608 46.2883 15.8284 50.2372 15.8343C54.1861 15.8402 57.4389 12.5873 57.4301 8.64438C57.4212 4.69846 54.2008 1.48098 50.2578 1.47213C46.2972 1.46329 43.0738 4.68667 43.0767 8.65913H43.0738Z" fill="black"/>
<path d="M8.56934 16.5888C11.5273 11.0267 14.4469 5.54139 17.396 0C20.3451 5.54728 23.2618 11.0297 26.2168 16.5829C25.7863 16.5829 25.4147 16.6035 25.046 16.5681C24.9517 16.5593 24.8573 16.3794 24.7954 16.2644C23.6835 14.1793 22.5688 12.0973 21.4688 10.0063C21.3508 9.77926 21.221 9.69374 20.9586 9.69374C18.5786 9.70553 16.1987 9.70553 13.8188 9.69374C13.574 9.69374 13.4472 9.76452 13.3322 9.9857C12.2321 12.0766 11.1144 14.1587 10.0144 16.2496C9.88169 16.5032 9.73718 16.6212 9.44522 16.5917C9.1798 16.5652 8.91143 16.5858 8.57229 16.5858L8.56934 16.5888ZM17.396 2.36519C16.2665 4.4856 15.1753 6.54113 14.0665 8.62616H20.7256C19.6167 6.53819 18.5255 4.48855 17.396 2.36519Z" fill="black"/>
<path d="M60.7398 0.826211H61.8015C61.8103 0.976616 61.8221 1.12407 61.8221 1.26858C61.8221 4.75148 61.8782 8.23733 61.8044 11.7173C61.7514 14.109 63.4235 15.4981 65.1782 15.8077C66.9329 16.1203 68.493 15.7428 69.7936 14.4629C70.4955 13.7728 70.7668 12.9264 70.7668 11.9739C70.7668 8.40838 70.7668 4.8429 70.7668 1.27743V0.835058H71.8462C71.8521 0.964819 71.8639 1.10048 71.8639 1.23614C71.8639 4.75443 71.8403 8.27272 71.8727 11.791C71.8993 14.6428 69.77 16.4654 67.5287 16.8252C65.9804 17.0729 64.4616 16.9726 63.0902 16.1262C61.595 15.2031 60.7428 13.8465 60.7251 12.0741C60.6926 8.39069 60.7133 4.70724 60.7162 1.0238C60.7162 0.967768 60.728 0.908786 60.7398 0.820312V0.826211Z" fill="black"/>
<path d="M36.7506 15.4694V16.5369H27.3135V0.847656H28.384V15.4694H36.7506Z" fill="black"/>
<path d="M1.07643 15.4743H8.02159C7.83579 15.8459 7.68244 16.1673 7.50844 16.4799C7.47895 16.533 7.36983 16.5625 7.29611 16.5625C4.88078 16.5625 2.46546 16.5596 0.0501349 16.5537C0.0412876 16.5537 0.0294911 16.5419 0 16.5242V0.84375H1.07643V15.4743Z" fill="black"/>
<path d="M38.7002 0.832031H39.7648V16.542H38.7002V0.832031Z" fill="black"/>
<path d="M58.2525 17.7227V18.7873H48.2373V17.7227H58.2525Z" fill="black"/>
</svg>
