<svg width="85" height="19" viewBox="0 0 85 19" fill="none" xmlns="http://www.w3.org/2000/svg">
<g id="Group 3461">
<path id="Vector" d="M84.5634 16.5537C82.561 16.5566 80.5585 16.5625 78.5561 16.5655C77.2821 16.5655 76.011 16.5655 74.737 16.5655H74.3389V0.84082H84.1742V1.9084H75.4477V7.44094H82.9886V8.52621H75.4507V15.495H84.5605V16.5537H84.5634Z" fill="black"/>
<path id="Vector_2" d="M50.2018 16.9186C45.6012 16.9127 41.8942 13.1024 41.9679 8.44874C42.0387 4.03392 45.7781 0.359322 50.2903 0.377017C54.8408 0.394711 58.5448 4.12829 58.5272 8.67582C58.5095 13.2558 54.7995 16.9274 50.2018 16.9156V16.9186ZM43.0738 8.66108C43.0738 12.6099 46.2883 15.8304 50.2372 15.8363C54.1861 15.8422 57.4389 12.5893 57.4301 8.64633C57.4212 4.70042 54.2008 1.48293 50.2578 1.47409C46.2972 1.46524 43.0738 4.68862 43.0767 8.66108H43.0738Z" fill="black"/>
<path id="Vector_3" d="M8.56934 16.5888C11.5273 11.0267 14.4469 5.54139 17.396 0C20.3451 5.54728 23.2618 11.0297 26.2168 16.5829C25.7863 16.5829 25.4147 16.6035 25.046 16.5681C24.9517 16.5593 24.8573 16.3794 24.7954 16.2644C23.6835 14.1793 22.5688 12.0973 21.4688 10.0063C21.3508 9.77926 21.221 9.69374 20.9586 9.69374C18.5786 9.70553 16.1987 9.70553 13.8188 9.69374C13.574 9.69374 13.4472 9.76452 13.3322 9.9857C12.2321 12.0766 11.1144 14.1587 10.0144 16.2496C9.88169 16.5032 9.73718 16.6212 9.44522 16.5917C9.1798 16.5652 8.91143 16.5858 8.57229 16.5858L8.56934 16.5888ZM17.396 2.36519C16.2665 4.4856 15.1753 6.54113 14.0665 8.62616H20.7256C19.6167 6.53819 18.5255 4.48855 17.396 2.36519Z" fill="black"/>
<path id="Vector_4" d="M60.7398 0.825722H61.8015C61.8103 0.976127 61.8221 1.12358 61.8221 1.26809C61.8221 4.75099 61.8782 8.23685 61.8044 11.7168C61.7514 14.1085 63.4235 15.4976 65.1782 15.8072C66.9329 16.1198 68.493 15.7423 69.7936 14.4624C70.4955 13.7723 70.7668 12.9259 70.7668 11.9734C70.7668 8.40789 70.7668 4.84242 70.7668 1.27694V0.83457H71.8462C71.8521 0.964331 71.8639 1.09999 71.8639 1.23565C71.8639 4.75394 71.8403 8.27223 71.8727 11.7905C71.8993 14.6423 69.77 16.4649 67.5287 16.8247C65.9804 17.0724 64.4616 16.9721 63.0902 16.1257C61.595 15.2027 60.7428 13.8461 60.7251 12.0736C60.6926 8.3902 60.7133 4.70676 60.7162 1.02331C60.7162 0.96728 60.728 0.908298 60.7398 0.819824V0.825722Z" fill="black"/>
<path id="Vector_5" d="M36.7506 15.4684V16.536H27.3135V0.84668H28.384V15.4684H36.7506Z" fill="black"/>
<path id="Vector_6" d="M1.07643 15.4733H8.02159C7.83579 15.8449 7.68244 16.1664 7.50844 16.479C7.47895 16.5321 7.36983 16.5615 7.29611 16.5615C4.88078 16.5615 2.46546 16.5586 0.0501349 16.5527C0.0412876 16.5527 0.0294911 16.5409 0 16.5232V0.842773H1.07643V15.4733Z" fill="black"/>
<path id="Vector_7" d="M38.7002 0.831543H39.7648V16.5415H38.7002V0.831543Z" fill="black"/>
<path id="Vector_8" d="M58.2525 17.7222V18.7868H48.2373V17.7222H58.2525Z" fill="black"/>
</g>
</svg>
