<svg width="97" height="21" viewBox="0 0 97 21" fill="none" xmlns="http://www.w3.org/2000/svg">
<g id="Ebene_1" clip-path="url(#clip0_56_3177)">
<path id="Vector" d="M39.6689 9.65235C39.6689 6.70004 37.623 4.4007 34.8224 4.4007C32.0218 4.4007 29.8223 6.25238 29.8223 9.62461C29.8223 12.9968 32.0643 15.0427 34.8501 15.0427C38.067 15.0427 39.6689 12.3679 39.6689 9.65235ZM34.8649 16.1989C32.5379 16.1989 31.0765 15.0853 30.0036 13.6924V20.977H28.7217V3.52389H30.0036V5.61419C31.0617 4.36001 32.7043 3.28711 34.8076 3.28711C38.2483 3.28711 40.9509 6.18393 40.9509 9.74855C40.9509 13.3132 38.276 16.197 34.8649 16.197V16.1989Z" fill="black"/>
<path id="Vector_2" d="M44.0505 15.9765H42.7686V0.447266H44.0505V5.3789C44.6905 4.3208 46.0982 3.2886 47.7409 3.2886C50.3584 3.2886 52.0177 4.97379 52.0177 7.20282V15.9765H50.7357V7.20282C50.7357 5.29565 49.1763 4.42994 47.6428 4.42994C45.4711 4.42994 44.0505 6.43515 44.0505 7.60609V15.9765Z" fill="black"/>
<path id="Vector_3" d="M56.3635 15.9755H55.0816V3.5243H56.3635V15.9755ZM55.6957 0.00038498C56.1693 0.00038498 56.6021 0.390698 56.6021 0.877202C56.6021 1.42105 56.197 1.85206 55.6402 1.85206C55.1389 1.85206 54.7764 1.40625 54.7764 0.89015C54.7764 0.403647 55.1944 -0.00146484 55.6957 -0.00146484V0.00038498Z" fill="black"/>
<path id="Vector_4" d="M60.6795 15.9765H59.3994V0.447266H60.6795V15.9765Z" fill="black"/>
<path id="Vector_5" d="M8.56738 10.7266C8.56738 11.5924 9.34801 12.3915 10.2359 12.3915C11.2052 12.3915 11.9359 11.622 11.9359 10.7174C11.9359 9.81282 11.2052 9.02295 10.2563 9.02295C9.30731 9.02295 8.56738 9.75363 8.56738 10.7266Z" fill="black"/>
<path id="Vector_6" d="M78.0153 7.6046V15.9751H76.7334V3.52389H78.0153V4.94455C78.6572 3.9142 79.6857 3.28711 81.0786 3.28711C81.0786 3.28711 82.3328 3.3426 84.0051 4.44325L83.2244 5.75108C83.2244 5.75108 81.4135 4.53944 80.6069 4.53944C78.7682 4.53944 78.0153 6.43366 78.0153 7.60275V7.6046Z" fill="black"/>
<path id="Vector_7" d="M84.9317 9.81884C84.9317 12.5066 87.3272 15.0279 90.0982 15.0279C93.0783 15.0279 95.3203 12.6047 95.3203 9.77629C95.3203 6.94791 93.0783 4.46915 90.1667 4.46915C87.2551 4.46915 84.9298 6.76848 84.9298 9.81884H84.9317ZM90.113 3.28711C93.7331 3.28711 96.506 6.21168 96.506 9.75039C96.506 13.2891 93.6647 16.1989 90.1408 16.1989C86.6169 16.1989 83.7607 13.2743 83.7607 9.77814C83.7607 6.28197 86.5484 3.28711 90.113 3.28711Z" fill="black"/>
<path id="Vector_8" d="M63.5979 9.708C63.5979 12.3958 65.9805 14.9171 68.7645 14.9171C71.7446 14.9171 73.9884 12.492 73.9884 9.6673C73.9884 6.84262 71.7446 4.36016 68.8219 4.36016C65.8991 4.36016 63.5979 6.65764 63.5979 9.708ZM68.7812 3.17627C72.3883 3.17627 75.1723 6.10084 75.1723 9.63955C75.1723 13.1783 72.331 16.088 68.7941 16.088C65.2572 16.088 62.4141 13.1635 62.4141 9.6673C62.4141 6.17113 65.2147 3.17627 68.7793 3.17627H68.7812Z" fill="black"/>
<path id="Vector_9" d="M0.000976562 0.449219V5.91175C1.12012 3.51623 3.05689 1.56836 5.47276 0.449219H0.000976562Z" fill="black"/>
<path id="Vector_10" d="M20.5147 0.449219V5.91175C19.3956 3.51623 17.4588 1.56836 15.043 0.449219H20.5147Z" fill="black"/>
<path id="Vector_11" d="M0.000976562 20.9655V15.5029C1.12012 17.8985 3.05689 19.8463 5.47276 20.9655H0.000976562Z" fill="black"/>
<path id="Vector_12" d="M20.5147 20.9655V15.5029C19.3956 17.8985 17.4588 19.8463 15.043 20.9655H20.5147Z" fill="black"/>
</g>
<defs>
<clipPath id="clip0_56_3177">
<rect width="96.509" height="20.977" fill="white"/>
</clipPath>
</defs>
</svg>
