<svg width="109" height="37" viewBox="0 0 109 37" fill="none" xmlns="http://www.w3.org/2000/svg">
<path d="M99.5342 0.000117487H8.61696C8.28556 0.000117487 7.95813 0.000117487 7.6276 0.00192499C7.35092 0.00373249 7.07644 0.00898327 6.7971 0.0134026C6.19024 0.0205439 5.58482 0.0739324 4.98608 0.173104C4.38818 0.274435 3.80901 0.465472 3.26816 0.739755C2.72797 1.01636 2.23438 1.37578 1.8053 1.80497C1.37397 2.23295 1.01443 2.72765 0.740487 3.27003C0.465793 3.81133 0.275319 4.39138 0.175644 4.99015C0.0750211 5.58817 0.0208752 6.19308 0.0136918 6.79946C0.00530501 7.07655 0.00441934 7.35456 0 7.63168V28.5212C0.00441934 28.8018 0.00530501 29.0736 0.0136918 29.3544C0.0208774 29.9607 0.0750233 30.5656 0.175644 31.1636C0.275043 31.7627 0.465529 32.3431 0.740487 32.8846C1.0143 33.4252 1.3739 33.9179 1.8053 34.3435C2.23275 34.7746 2.72666 35.1343 3.26816 35.4087C3.809 35.6838 4.38811 35.8759 4.98608 35.9788C5.58492 36.0772 6.19028 36.1306 6.7971 36.1386C7.07644 36.1448 7.35092 36.1483 7.6276 36.1483C7.95812 36.1501 8.28558 36.1501 8.61696 36.1501H99.5342C99.8591 36.1501 100.189 36.1501 100.514 36.1483C100.789 36.1483 101.072 36.1448 101.347 36.1386C101.953 36.1311 102.557 36.0776 103.155 35.9788C103.754 35.8752 104.336 35.6831 104.879 35.4087C105.42 35.1341 105.914 34.7745 106.341 34.3435C106.771 33.9162 107.131 33.4239 107.409 32.8846C107.681 32.3427 107.87 31.7623 107.968 31.1636C108.069 30.5655 108.125 29.9608 108.136 29.3544C108.139 29.0736 108.139 28.8018 108.139 28.5212C108.146 28.1929 108.146 27.8663 108.146 27.5327V8.61839C108.146 8.28743 108.146 7.95911 108.139 7.63168C108.139 7.35456 108.139 7.07655 108.136 6.79942C108.125 6.19299 108.069 5.58821 107.968 4.99012C107.87 4.39169 107.681 3.81168 107.409 3.26999C106.851 2.18285 105.966 1.29792 104.879 0.739674C104.336 0.466061 103.754 0.275075 103.155 0.173023C102.557 0.0734141 101.953 0.020007 101.347 0.0132761C101.072 0.00886578 100.789 0.00356981 100.514 0.0018075C100.189 0 99.8591 0.000117487 99.5342 0.000117487Z" fill="#A6A6A6"/>
<path d="M7.63209 35.3575C7.35674 35.3575 7.08803 35.354 6.81484 35.3478C6.2489 35.3404 5.68427 35.2912 5.12561 35.2004C4.60468 35.1107 4.10003 34.9438 3.62833 34.7052C3.16095 34.4687 2.73466 34.1584 2.36579 33.7865C1.99158 33.4189 1.68004 32.9926 1.4435 32.5244C1.20436 32.0532 1.03886 31.5481 0.952768 31.0267C0.859794 30.4665 0.809491 29.9 0.802293 29.3322C0.796564 29.1416 0.789062 28.507 0.789062 28.507V7.62985C0.789062 7.62985 0.797052 7.00499 0.802339 6.82141C0.80923 6.25447 0.859241 5.68888 0.951936 5.12953C1.03819 4.60673 1.20382 4.10017 1.44309 3.6274C1.67875 3.15955 1.98857 2.7329 2.36052 2.36401C2.73205 1.99161 3.15971 1.6798 3.62788 1.43995C4.09851 1.20216 4.60219 1.03645 5.12207 0.948366C5.68257 0.856696 6.24916 0.807134 6.81706 0.800097L7.63253 0.789062H100.51L101.335 0.80054C101.898 0.807227 102.459 0.856347 103.014 0.947481C103.539 1.03667 104.048 1.20354 104.524 1.4426C105.462 1.92597 106.225 2.6907 106.707 3.62961C106.942 4.09912 107.105 4.60154 107.191 5.11982C107.284 5.68376 107.337 6.2538 107.348 6.82539C107.35 7.08133 107.35 7.35625 107.35 7.62985C107.357 7.96875 107.357 8.29133 107.357 8.61655V27.5308C107.357 27.8592 107.357 28.1795 107.35 28.5025C107.35 28.7964 107.35 29.0657 107.347 29.3428C107.336 29.9041 107.285 30.464 107.192 31.0179C107.108 31.543 106.943 32.052 106.704 32.5271C106.466 32.9902 106.156 33.4128 105.786 33.7794C105.417 34.1534 104.99 34.4654 104.522 34.7035C104.047 34.9439 103.539 35.1114 103.014 35.2004C102.456 35.2916 101.891 35.3409 101.325 35.3478C101.06 35.354 100.783 35.3575 100.514 35.3575L99.5343 35.3593L7.63209 35.3575Z" fill="white"/>
<path d="M22.3838 18.3436C22.3935 17.5893 22.5939 16.8497 22.9663 16.1936C23.3386 15.5375 23.8709 14.9863 24.5135 14.5912C24.1053 14.0081 23.5667 13.5283 22.9406 13.1898C22.3144 12.8513 21.618 12.6635 20.9065 12.6412C19.3889 12.4819 17.9177 13.5493 17.1443 13.5493C16.356 13.5493 15.1653 12.657 13.8831 12.6834C13.0538 12.7102 12.2455 12.9514 11.5371 13.3834C10.8287 13.8155 10.2442 14.4236 9.84074 15.1487C8.09289 18.1748 9.39663 22.6222 11.0709 25.0683C11.9086 26.2661 12.8876 27.6041 14.1686 27.5566C15.4222 27.5046 15.8904 26.7573 17.4035 26.7573C18.9026 26.7573 19.3419 27.5566 20.6489 27.5265C21.994 27.5046 22.8415 26.3234 23.6498 25.1142C24.2517 24.2608 24.7148 23.3175 25.0221 22.3194C24.2406 21.9889 23.5737 21.4356 23.1045 20.7286C22.6354 20.0216 22.3847 19.1921 22.3838 18.3436Z" fill="black"/>
<path d="M19.9155 11.0336C20.6489 10.1531 21.0103 9.02146 20.9228 7.87891C19.8023 7.99659 18.7672 8.53212 18.0239 9.37878C17.6605 9.79239 17.3821 10.2736 17.2048 10.7948C17.0274 11.3161 16.9545 11.8672 16.9903 12.4166C17.5507 12.4224 18.1052 12.3009 18.6119 12.0614C19.1186 11.8218 19.5643 11.4704 19.9155 11.0336Z" fill="black"/>
<path d="M38.2293 24.5253H33.9515L32.9242 27.5587H31.1123L35.1642 16.3359H37.0467L41.0986 27.5587H39.2557L38.2293 24.5253ZM34.3946 23.1256H37.7854L36.1139 18.2026H36.0671L34.3946 23.1256Z" fill="black"/>
<path d="M49.8501 23.4678C49.8501 26.0105 48.4892 27.6441 46.4354 27.6441C45.9152 27.6713 45.3978 27.5515 44.9425 27.2983C44.4872 27.0451 44.1124 26.6688 43.861 26.2125H43.8221V30.2653H42.1426V19.3762H43.7683V20.7371H43.7992C44.0621 20.283 44.4433 19.9087 44.902 19.654C45.3608 19.3992 45.8801 19.2737 46.4045 19.2906C48.4812 19.2906 49.8501 20.9322 49.8501 23.4678ZM48.1238 23.4678C48.1238 21.8112 47.2677 20.7221 45.9615 20.7221C44.6782 20.7221 43.8151 21.8341 43.8151 23.4678C43.8151 25.1164 44.6782 26.2205 45.9615 26.2205C47.2677 26.2205 48.1238 25.1394 48.1238 23.4678Z" fill="black"/>
<path d="M58.855 23.4678C58.855 26.0104 57.494 27.6441 55.4403 27.6441C54.9201 27.6713 54.4027 27.5514 53.9474 27.2983C53.492 27.0451 53.1172 26.6688 52.8659 26.2125H52.827V30.2653H51.1475V19.3762H52.7731V20.7371H52.804C53.067 20.283 53.4481 19.9087 53.9069 19.654C54.3657 19.3992 54.8849 19.2737 55.4094 19.2906C57.4861 19.2906 58.855 20.9321 58.855 23.4678ZM57.1286 23.4678C57.1286 21.8112 56.2726 20.7221 54.9664 20.7221C53.6831 20.7221 52.8199 21.8341 52.8199 23.4678C52.8199 25.1164 53.6831 26.2205 54.9664 26.2205C56.2726 26.2205 57.1286 25.1393 57.1286 23.4678Z" fill="black"/>
<path d="M64.8072 24.4314C64.9316 25.5443 66.0128 26.275 67.4902 26.275C68.9058 26.275 69.9243 25.5443 69.9243 24.5408C69.9243 23.6697 69.31 23.1481 67.8555 22.7907L66.4011 22.4403C64.3403 21.9425 63.3836 20.9787 63.3836 19.4148C63.3836 17.4785 65.0711 16.1484 67.4672 16.1484C69.8387 16.1484 71.4644 17.4785 71.5191 19.4148H69.8237C69.7222 18.2948 68.7963 17.6188 67.4434 17.6188C66.0904 17.6188 65.1646 18.3028 65.1646 19.2983C65.1646 20.0918 65.7559 20.5586 67.2024 20.916L68.4389 21.2196C70.7415 21.7642 71.6982 22.6891 71.6982 24.3307C71.6982 26.4303 70.0258 27.7453 67.3657 27.7453C64.8769 27.7453 63.1964 26.4612 63.0879 24.4313L64.8072 24.4314Z" fill="black"/>
<path d="M75.3235 17.4414V19.3778H76.8794V20.7078H75.3235V25.2186C75.3235 25.9194 75.635 26.2459 76.319 26.2459C76.5037 26.2427 76.6881 26.2297 76.8715 26.207V27.5291C76.564 27.5866 76.2514 27.6126 75.9386 27.6068C74.282 27.6068 73.636 26.9846 73.636 25.3977V20.7078H72.4463V19.3778H73.636V17.4414H75.3235Z" fill="black"/>
<path d="M77.7803 23.4695C77.7803 20.8951 79.2965 19.2773 81.6609 19.2773C84.0333 19.2773 85.5425 20.8951 85.5425 23.4695C85.5425 26.0511 84.0412 27.6617 81.6609 27.6617C79.2815 27.6617 77.7803 26.051 77.7803 23.4695ZM83.8312 23.4695C83.8312 21.7035 83.0218 20.6612 81.6609 20.6612C80.3 20.6612 79.4916 21.7115 79.4916 23.4695C79.4916 25.2426 80.3 26.277 81.6609 26.277C83.0218 26.277 83.8312 25.2426 83.8312 23.4695Z" fill="black"/>
<path d="M86.9277 19.3761H88.5296V20.7688H88.5685C88.6768 20.3338 88.9317 19.9494 89.2901 19.6802C89.6485 19.411 90.0887 19.2734 90.5366 19.2905C90.7301 19.2898 90.9232 19.3108 91.112 19.3532V20.9241C90.8677 20.8495 90.6128 20.8152 90.3574 20.8226C90.1134 20.8127 89.8702 20.8558 89.6444 20.9487C89.4186 21.0417 89.2156 21.1825 89.0493 21.3613C88.883 21.5401 88.7574 21.7529 88.6811 21.9848C88.6048 22.2168 88.5796 22.4625 88.6073 22.7051V27.5584H86.9277L86.9277 19.3761Z" fill="black"/>
<path d="M98.8555 25.157C98.6296 26.6424 97.1831 27.6617 95.3323 27.6617C92.952 27.6617 91.4746 26.0669 91.4746 23.5084C91.4746 20.9419 92.96 19.2773 95.2617 19.2773C97.5255 19.2773 98.9491 20.8324 98.9491 23.3133V23.8888H93.17V23.9903C93.1434 24.2914 93.1811 24.5947 93.2806 24.8802C93.3802 25.1656 93.5394 25.4266 93.7476 25.6458C93.9557 25.865 94.2082 26.0374 94.4881 26.1516C94.768 26.2657 95.069 26.319 95.3712 26.3079C95.768 26.3451 96.1663 26.2531 96.5068 26.0458C96.8472 25.8384 97.1117 25.5267 97.2607 25.157L98.8555 25.157ZM93.178 22.7149H97.2687C97.2837 22.4442 97.2427 22.1732 97.1481 21.9191C97.0535 21.6649 96.9074 21.4331 96.7189 21.2381C96.5305 21.0431 96.3038 20.8892 96.053 20.7859C95.8022 20.6827 95.5328 20.6324 95.2617 20.6383C94.9882 20.6366 94.7171 20.6892 94.464 20.7929C94.2109 20.8966 93.9809 21.0494 93.7871 21.2424C93.5934 21.4355 93.4398 21.665 93.3353 21.9178C93.2307 22.1705 93.1773 22.4414 93.178 22.7149Z" fill="black"/>
<path d="M34.1861 7.88893C34.5382 7.86366 34.8916 7.91686 35.2206 8.04468C35.5497 8.1725 35.8463 8.37176 36.089 8.62808C36.3317 8.88441 36.5146 9.19141 36.6243 9.52695C36.734 9.86248 36.7679 10.2182 36.7235 10.5684C36.7235 12.2912 35.7924 13.2815 34.1861 13.2815H32.2383V7.88893H34.1861ZM33.0758 12.5188H34.0925C34.3442 12.5339 34.596 12.4926 34.8296 12.3981C35.0633 12.3035 35.2729 12.1581 35.4432 11.9723C35.6136 11.7865 35.7404 11.5651 35.8144 11.3241C35.8883 11.0832 35.9077 10.8288 35.8709 10.5794C35.905 10.331 35.8837 10.0782 35.8086 9.83898C35.7335 9.59979 35.6064 9.38018 35.4364 9.19587C35.2665 9.01157 35.0578 8.86715 34.8255 8.77294C34.5932 8.67874 34.3429 8.63709 34.0925 8.65098H33.0758V12.5188Z" fill="black"/>
<path d="M37.6692 11.2482C37.6437 10.9808 37.6742 10.711 37.7591 10.456C37.8439 10.2011 37.981 9.96673 38.1617 9.76792C38.3424 9.56911 38.5627 9.41027 38.8083 9.30157C39.054 9.19287 39.3197 9.13672 39.5884 9.13672C39.857 9.13672 40.1227 9.19287 40.3684 9.30157C40.6141 9.41027 40.8344 9.56911 41.015 9.76792C41.1957 9.96673 41.3329 10.2011 41.4177 10.456C41.5025 10.711 41.5331 10.9808 41.5075 11.2482C41.5336 11.5159 41.5034 11.7861 41.4188 12.0415C41.3342 12.2968 41.1971 12.5316 41.0164 12.7308C40.8356 12.93 40.6152 13.0892 40.3693 13.1981C40.1234 13.3071 39.8574 13.3633 39.5884 13.3633C39.3194 13.3633 39.0534 13.3071 38.8075 13.1981C38.5615 13.0892 38.3411 12.93 38.1604 12.7308C37.9796 12.5316 37.8426 12.2968 37.758 12.0415C37.6734 11.7861 37.6432 11.5159 37.6692 11.2482ZM40.6814 11.2482C40.6814 10.3661 40.2852 9.85024 39.5897 9.85024C38.8916 9.85024 38.4989 10.3661 38.4989 11.2482C38.4989 12.1374 38.8916 12.6493 39.5897 12.6493C40.2852 12.6493 40.6814 12.1339 40.6814 11.2482Z" fill="black"/>
<path d="M46.6092 13.2844H45.776L44.935 10.2872H44.8714L44.0339 13.2844H43.2087L42.0869 9.21484H42.9015L43.6305 12.3201H43.6905L44.5272 9.21484H45.2977L46.1344 12.3201H46.1979L46.9234 9.21484H47.7265L46.6092 13.2844Z" fill="black"/>
<path d="M48.6699 9.21537H49.4431V9.86185H49.5031C49.6049 9.62966 49.7766 9.43502 49.9943 9.30505C50.212 9.17509 50.4648 9.11628 50.7175 9.13682C50.9155 9.12193 51.1143 9.15179 51.2992 9.22417C51.4841 9.29656 51.6504 9.40962 51.7857 9.55499C51.9209 9.70035 52.0218 9.87428 52.0807 10.0639C52.1396 10.2535 52.1551 10.454 52.1261 10.6504V13.2848H51.3229V10.8521C51.3229 10.1981 51.0387 9.87289 50.4448 9.87289C50.3103 9.86663 50.1761 9.88951 50.0514 9.93996C49.9266 9.99042 49.8142 10.0673 49.7219 10.1652C49.6296 10.2632 49.5596 10.3799 49.5166 10.5075C49.4737 10.635 49.4588 10.7703 49.4731 10.9042V13.2849H48.6699L48.6699 9.21537Z" fill="black"/>
<path d="M53.4062 7.625H54.2094V13.2831H53.4062V7.625Z" fill="black"/>
<path d="M55.3255 11.2483C55.2999 10.9808 55.3305 10.711 55.4153 10.4561C55.5002 10.2011 55.6373 9.96675 55.8181 9.76793C55.9988 9.56912 56.219 9.41027 56.4647 9.30157C56.7104 9.19287 56.9762 9.13672 57.2448 9.13672C57.5135 9.13672 57.7792 9.19287 58.0249 9.30157C58.2706 9.41027 58.4909 9.56912 58.6716 9.76793C58.8523 9.96675 58.9895 10.2011 59.0743 10.4561C59.1591 10.711 59.1898 10.9808 59.1642 11.2483C59.1902 11.516 59.16 11.7862 59.0754 12.0416C58.9908 12.2969 58.8537 12.5317 58.6729 12.7309C58.4921 12.9301 58.2717 13.0893 58.0258 13.1982C57.7798 13.3071 57.5138 13.3634 57.2448 13.3634C56.9758 13.3634 56.7098 13.3071 56.4639 13.1982C56.218 13.0893 55.9975 12.9301 55.8168 12.7309C55.636 12.5317 55.4989 12.2969 55.4143 12.0416C55.3297 11.7862 55.2994 11.516 55.3255 11.2483ZM58.3377 11.2483C58.3377 10.3662 57.9414 9.85031 57.2459 9.85031C56.5478 9.85031 56.1551 10.3662 56.1551 11.2483C56.1551 12.1375 56.5478 12.6494 57.2459 12.6494C57.9414 12.6494 58.3377 12.134 58.3377 11.2483Z" fill="black"/>
<path d="M60.0088 12.1339C60.0088 11.4014 60.5542 10.9791 61.5224 10.9191L62.6247 10.8555V10.5043C62.6247 10.0744 62.3405 9.83174 61.7916 9.83174C61.3432 9.83174 61.0326 9.99634 60.9434 10.2841H60.1659C60.248 9.58506 60.9055 9.13672 61.8286 9.13672C62.8489 9.13672 63.4243 9.64463 63.4243 10.5043V13.2848H62.6512V12.7129H62.5877C62.4587 12.918 62.2776 13.0853 62.0628 13.1975C61.8481 13.3098 61.6074 13.363 61.3653 13.3518C61.1945 13.3696 61.0218 13.3514 60.8584 13.2983C60.6951 13.2453 60.5446 13.1586 60.4168 13.0438C60.289 12.9291 60.1867 12.7888 60.1164 12.6321C60.0461 12.4754 60.0095 12.3057 60.0088 12.1339ZM62.6247 11.7862V11.446L61.6309 11.5095C61.0705 11.547 60.8163 11.7376 60.8163 12.0964C60.8163 12.4627 61.1341 12.6758 61.571 12.6758C61.699 12.6888 61.8283 12.6758 61.9512 12.6378C62.0741 12.5998 62.1881 12.5374 62.2864 12.4544C62.3847 12.3714 62.4654 12.2694 62.5235 12.1547C62.5816 12.0399 62.616 11.9145 62.6247 11.7862Z" fill="black"/>
<path d="M64.4814 11.2466C64.4814 9.96073 65.1425 9.14612 66.1707 9.14612C66.425 9.1344 66.6774 9.19532 66.8984 9.32175C67.1194 9.44817 67.2998 9.6349 67.4186 9.86008H67.4787V7.625H68.2818V13.2831H67.5122V12.6402H67.4486C67.3207 12.8639 67.1339 13.0483 66.9087 13.1734C66.6834 13.2986 66.4282 13.3597 66.1707 13.3502C65.1354 13.3503 64.4814 12.5356 64.4814 11.2466ZM65.3111 11.2466C65.3111 12.1098 65.718 12.6292 66.3984 12.6292C67.0753 12.6292 67.4937 12.1023 67.4937 11.2502C67.4937 10.402 67.0709 9.86762 66.3984 9.86762C65.7223 9.86762 65.3111 10.3905 65.3111 11.2466Z" fill="black"/>
<path d="M71.6048 11.2482C71.5792 10.9808 71.6098 10.711 71.6946 10.456C71.7794 10.2011 71.9166 9.96673 72.0973 9.76792C72.278 9.56911 72.4982 9.41027 72.7439 9.30157C72.9896 9.19287 73.2553 9.13672 73.5239 9.13672C73.7926 9.13672 74.0583 9.19287 74.304 9.30157C74.5496 9.41027 74.7699 9.56911 74.9506 9.76792C75.1313 9.96673 75.2684 10.2011 75.3532 10.456C75.4381 10.711 75.4687 10.9808 75.4431 11.2482C75.4691 11.5159 75.4389 11.7861 75.3543 12.0415C75.2697 12.2968 75.1327 12.5316 74.9519 12.7308C74.7712 12.93 74.5508 13.0892 74.3048 13.1981C74.0589 13.3071 73.7929 13.3633 73.5239 13.3633C73.2549 13.3633 72.9889 13.3071 72.743 13.1981C72.4971 13.0892 72.2767 12.93 72.0959 12.7308C71.9152 12.5316 71.7781 12.2968 71.6935 12.0415C71.6089 11.7861 71.5787 11.5159 71.6048 11.2482ZM74.617 11.2482C74.617 10.3661 74.2207 9.85024 73.5252 9.85024C72.8271 9.85024 72.4344 10.3661 72.4344 11.2482C72.4344 12.1374 72.8272 12.6493 73.5252 12.6493C74.2207 12.6493 74.617 12.1339 74.617 11.2482Z" fill="black"/>
<path d="M76.5195 9.21537H77.2927V9.86185H77.3527C77.4545 9.62966 77.6262 9.43502 77.8439 9.30505C78.0616 9.17509 78.3144 9.11628 78.5671 9.13682C78.7651 9.12193 78.9639 9.15179 79.1488 9.22417C79.3337 9.29656 79.5 9.40962 79.6353 9.55499C79.7705 9.70035 79.8714 9.87428 79.9303 10.0639C79.9892 10.2535 80.0047 10.454 79.9757 10.6504V13.2848H79.1725V10.8521C79.1725 10.1981 78.8884 9.87289 78.2944 9.87289C78.1599 9.86663 78.0257 9.88951 77.901 9.93996C77.7762 9.99042 77.6638 10.0673 77.5715 10.1652C77.4792 10.2632 77.4092 10.3799 77.3662 10.5075C77.3233 10.635 77.3084 10.7703 77.3227 10.9042V13.2849H76.5195V9.21537Z" fill="black"/>
<path d="M84.5145 8.19922V9.23094H85.3962V9.90743H84.5145V12C84.5145 12.4263 84.6901 12.6129 85.0899 12.6129C85.1923 12.6126 85.2946 12.6064 85.3962 12.5944V13.2634C85.252 13.2892 85.1058 13.3029 84.9593 13.3044C84.0662 13.3044 83.7105 12.9902 83.7105 12.2056V9.9074H83.0645V9.2309H83.7105V8.19922H84.5145Z" fill="black"/>
<path d="M86.4932 7.625H87.2892V9.86761H87.3528C87.4595 9.63325 87.636 9.4375 87.858 9.30705C88.0801 9.1766 88.3369 9.11778 88.5936 9.13861C88.7906 9.12789 88.9875 9.16078 89.1703 9.23492C89.3531 9.30907 89.5173 9.42264 89.6512 9.56755C89.7851 9.71245 89.8853 9.88512 89.9448 10.0732C90.0042 10.2613 90.0214 10.4602 89.9951 10.6557V13.2831H89.1912V10.8539C89.1912 10.2039 88.8885 9.87466 88.321 9.87466C88.183 9.86334 88.0441 9.88231 87.9142 9.93026C87.7842 9.97821 87.6663 10.054 87.5687 10.1522C87.4711 10.2505 87.3962 10.3689 87.3491 10.4992C87.3021 10.6294 87.2841 10.7684 87.2963 10.9064V13.2831H86.4932L86.4932 7.625Z" fill="black"/>
<path d="M94.6772 12.1861C94.5681 12.558 94.3317 12.8797 94.0093 13.0949C93.6869 13.3102 93.2992 13.4052 92.9138 13.3634C92.6457 13.3705 92.3793 13.3191 92.133 13.2129C91.8867 13.1067 91.6665 12.9482 91.4877 12.7483C91.3088 12.5484 91.1756 12.3121 91.0972 12.0556C91.0189 11.7991 90.9973 11.5286 91.034 11.2629C90.9983 10.9964 91.0202 10.7253 91.0984 10.4681C91.1765 10.2108 91.3091 9.97331 91.487 9.7717C91.6649 9.5701 91.8841 9.40908 92.1296 9.29954C92.3752 9.19 92.6414 9.13449 92.9103 9.13679C94.0426 9.13679 94.7257 9.9104 94.7257 11.1883V11.4685H91.8521V11.5135C91.8395 11.6629 91.8583 11.8132 91.9072 11.9549C91.9561 12.0965 92.0341 12.2264 92.1361 12.3362C92.2382 12.4459 92.362 12.5332 92.4998 12.5923C92.6375 12.6514 92.786 12.681 92.9359 12.6794C93.128 12.7024 93.3226 12.6679 93.495 12.58C93.6674 12.4922 93.8098 12.355 93.9041 12.186L94.6772 12.1861ZM91.8521 10.8746H93.9076C93.9177 10.738 93.8991 10.6008 93.8531 10.4718C93.807 10.3428 93.7345 10.2249 93.6402 10.1256C93.5458 10.0263 93.4318 9.94789 93.3053 9.89531C93.1788 9.84274 93.0428 9.8172 92.9059 9.82034C92.767 9.81859 92.6291 9.84467 92.5004 9.89704C92.3718 9.94941 92.2549 10.027 92.1567 10.1253C92.0585 10.2235 91.9809 10.3404 91.9286 10.4691C91.8763 10.5978 91.8503 10.7357 91.8521 10.8746Z" fill="black"/>
</svg>
