<?xml version="1.0" encoding="UTF-8"?>
<!-- Generated by Pixelmator Pro 2.4.3 -->
<svg width="125" height="36" viewBox="0 0 125 36" xmlns="http://www.w3.org/2000/svg" xmlns:xlink="http://www.w3.org/1999/xlink">
    <path id="Path" fill="black" stroke="none" d="M 120 0.721123 C 122.137001 0.721123 123.875999 2.4165 123.875999 4.5 L 123.875999 31.5 C 123.875999 33.5835 122.137001 35.2789 120 35.2789 L 4.61538 35.2789 C 2.47846 35.2789 0.739615 33.5835 0.739615 31.5 L 0.739615 4.5 C 0.739615 2.4165 2.47846 0.721123 4.61538 0.721123 L 120 0.721123 Z M 120 0 L 4.61538 0 C 2.07808 0 -0 2.026131 -0 4.5 L -0 31.5 C -0 33.9739 2.07808 36 4.61538 36 L 120 36 C 122.537003 36 124.614998 33.9739 124.614998 31.5 L 124.614998 4.5 C 124.614998 2.026131 122.537003 0 120 0 Z"/>
    <path id="path1" fill="black" stroke="none" d="M 27.8104 17.805599 C 27.7836 14.9049 30.246401 13.4937 30.358999 13.428001 C 28.9643 11.445301 26.802401 11.1744 26.0427 11.1528 C 24.226999 10.966499 22.465799 12.212101 21.540899 12.212101 C 20.5975 12.212101 19.173201 11.170799 17.6381 11.201401 C 15.6627 11.2311 13.8147 12.346199 12.8012 14.077801 C 10.7095 17.6085 12.2695 22.797001 14.2735 25.6509 C 15.2759 27.048599 16.4473 28.6092 17.9806 28.5543 C 19.4806 28.493999 20.040899 27.621901 21.851 27.621901 C 23.6446 27.621901 24.1707 28.5543 25.7344 28.519199 C 27.344299 28.493999 28.3578 27.1152 29.325199 25.704901 C 30.483601 24.1029 30.9489 22.5252 30.9673 22.444201 C 30.929501 22.431601 27.8409 21.282301 27.8104 17.805599 Z"/>
    <path id="path2" fill="black" stroke="none" d="M 24.8566 9.275379 C 25.6633 8.291679 26.2153 6.953381 26.062099 5.59528 C 24.8944 5.645679 23.434099 6.38278 22.593201 7.344879 C 21.849199 8.19268 21.184601 9.582279 21.3563 10.889099 C 22.6679 10.984501 24.0147 10.243801 24.8566 9.275379 Z"/>
    <path id="path3" fill="black" stroke="none" d="M 45.277 9.00808 C 45.277 10.0674 44.951199 10.864799 44.3004 11.400299 C 43.697601 11.8944 42.841 12.141899 41.731499 12.141899 C 41.181301 12.141899 40.710602 12.1185 40.316399 12.071701 L 40.316399 6.283779 C 40.830601 6.20278 41.384399 6.161381 41.982601 6.161381 C 43.039501 6.161381 43.836102 6.385479 44.373299 6.833679 C 44.975201 7.34038 45.277 8.06488 45.277 9.00808 Z M 44.257 9.03418 C 44.257 8.347481 44.070599 7.82098 43.697601 7.453781 C 43.324699 7.087481 42.780102 6.903881 42.062901 6.903881 C 41.758301 6.903881 41.498901 6.923679 41.283798 6.96508 L 41.283798 11.3652 C 41.402901 11.3832 41.620701 11.3913 41.937302 11.3913 C 42.677601 11.3913 43.249001 11.190601 43.651501 10.7892 C 44.054001 10.3878 44.257 9.80278 44.257 9.03418 Z"/>
    <path id="path4" fill="black" stroke="none" d="M 50.6852 9.933281 C 50.6852 10.5858 50.494099 11.120399 50.112 11.539799 C 49.7113 11.9709 49.180599 12.186001 48.517799 12.186001 C 47.879002 12.186001 47.370399 11.9799 46.991001 11.565899 C 46.612598 11.1528 46.423302 10.631699 46.423302 10.0035 C 46.423302 9.346481 46.618099 8.807381 47.009499 8.38888 C 47.400902 7.970379 47.926998 7.760681 48.589802 7.760681 C 49.2286 7.760681 49.741798 7.96678 50.130402 8.379879 C 50.499599 8.781281 50.6852 9.299679 50.6852 9.933281 Z M 49.681801 9.963879 C 49.681801 9.57238 49.595001 9.236679 49.422401 8.956779 C 49.219299 8.61838 48.930401 8.449181 48.554699 8.449181 C 48.1661 8.449181 47.870701 8.61838 47.667599 8.956779 C 47.494099 9.236679 47.408298 9.57778 47.408298 9.98098 C 47.408298 10.372501 47.494999 10.7082 47.667599 10.9881 C 47.877201 11.3265 48.1689 11.495701 48.545502 11.495701 C 48.9147 11.495701 49.204601 11.323799 49.4132 10.979099 C 49.5923 10.6938 49.681801 10.3554 49.681801 9.963879 Z"/>
    <path id="path5" fill="black" stroke="none" d="M 57.936901 7.847111 L 56.575401 12.089699 L 55.689201 12.089699 L 55.125198 10.2474 C 54.982201 9.78751 54.865898 9.330311 54.775398 8.876709 L 54.7579 8.876709 C 54.673901 9.342911 54.557598 9.79921 54.408001 10.2474 L 53.808899 12.089699 L 52.912601 12.089699 L 51.632301 7.847111 L 52.626499 7.847111 L 53.1185 9.86401 C 53.237598 10.341 53.3354 10.7955 53.413898 11.2257 L 53.4314 11.2257 C 53.503399 10.871101 53.622501 10.4193 53.790501 9.873009 L 54.408001 7.848011 L 55.196301 7.848011 L 55.787998 9.829811 C 55.931099 10.313099 56.047401 10.7784 56.136902 11.226601 L 56.1637 11.226601 C 56.229198 10.7901 56.327999 10.324799 56.459099 9.829811 L 56.987099 7.848011 L 57.936901 7.848011 L 57.936901 7.847111 Z"/>
    <path id="path6" fill="black" stroke="none" d="M 62.952301 12.089699 L 61.984901 12.089699 L 61.984901 9.6597 C 61.984901 8.9109 61.693199 8.536499 61.108002 8.536499 C 60.8209 8.536499 60.589298 8.639099 60.409302 8.8452 C 60.231098 9.0513 60.140598 9.2943 60.140598 9.572399 L 60.140598 12.0888 L 59.173302 12.0888 L 59.173302 9.059399 C 59.173302 8.6868 59.161301 8.2827 59.138199 7.845301 L 59.9883 7.845301 L 60.0336 8.5086 L 60.060299 8.5086 C 60.173 8.3025 60.3409 8.132401 60.5616 7.9965 C 60.8237 7.8381 61.117298 7.757999 61.438499 7.757999 C 61.844601 7.757999 62.182499 7.885799 62.451099 8.1423 C 62.785198 8.4564 62.952301 8.925301 62.952301 9.5481 L 62.952301 12.089699 Z"/>
    <path id="path7" fill="black" stroke="none" d="M 65.619797 12.089699 L 64.653297 12.089699 L 64.653297 5.900391 L 65.619797 5.900391 L 65.619797 12.089699 Z"/>
    <path id="path8" fill="black" stroke="none" d="M 71.315102 9.933281 C 71.315102 10.5858 71.124001 11.120399 70.741798 11.539799 C 70.341202 11.9709 69.809502 12.186001 69.147697 12.186001 C 68.508003 12.186001 67.999397 11.9799 67.620903 11.565899 C 67.2425 11.1528 67.0532 10.631699 67.0532 10.0035 C 67.0532 9.346481 67.248001 8.807381 67.639397 8.38888 C 68.0308 7.970379 68.5569 7.760681 69.218803 7.760681 C 69.858498 7.760681 70.370796 7.96678 70.7603 8.379879 C 71.129501 8.781281 71.315102 9.299679 71.315102 9.933281 Z M 70.310799 9.963879 C 70.310799 9.57238 70.223999 9.236679 70.051399 8.956779 C 69.849197 8.61838 69.559402 8.449181 69.184601 8.449181 C 68.795097 8.449181 68.499702 8.61838 68.297501 8.956779 C 68.124001 9.236679 68.038101 9.57778 68.038101 9.98098 C 68.038101 10.372501 68.124901 10.7082 68.297501 10.9881 C 68.507103 11.3265 68.798798 11.495701 69.1754 11.495701 C 69.544601 11.495701 69.833504 11.323799 70.042099 10.979099 C 70.222099 10.6938 70.310799 10.3554 70.310799 9.963879 Z"/>
    <path id="path9" fill="black" stroke="none" d="M 75.997101 12.089699 L 75.128502 12.089699 L 75.056503 11.601 L 75.029701 11.601 C 74.732498 11.9907 74.3088 12.186001 73.758598 12.186001 C 73.3479 12.186001 73.015602 12.057301 72.765404 11.801701 C 72.5383 11.5695 72.424797 11.2806 72.424797 10.9377 C 72.424797 10.4193 72.646301 10.0242 73.092201 9.75058 C 73.537102 9.47698 74.163002 9.34288 74.968803 9.34918 L 74.968803 9.269981 C 74.968803 8.711079 74.6679 8.432079 74.065102 8.432079 C 73.635902 8.432079 73.257401 8.53738 72.930702 8.74618 L 72.734001 8.12698 C 73.138298 7.88308 73.637703 7.760681 74.2267 7.760681 C 75.363899 7.760681 75.934303 8.34568 75.934303 9.51568 L 75.934303 11.0781 C 75.934303 11.501999 75.955597 11.8395 75.997101 12.089699 Z M 74.992798 10.631699 L 74.992798 9.977379 C 73.925697 9.959381 73.392197 10.244701 73.392197 10.832401 C 73.392197 11.053799 73.453102 11.2194 73.577698 11.330101 C 73.702301 11.4408 73.861099 11.495701 74.050301 11.495701 C 74.262604 11.495701 74.461098 11.43 74.641998 11.2995 C 74.823898 11.1681 74.9356 11.0016 74.977097 10.7973 C 74.987297 10.7514 74.992798 10.695599 74.992798 10.631699 Z"/>
    <path id="path10" fill="black" stroke="none" d="M 81.494202 12.089699 L 80.635696 12.089699 L 80.5905 11.4084 L 80.563698 11.4084 C 80.289597 11.9268 79.822502 12.186001 79.166199 12.186001 C 78.641899 12.186001 78.205299 11.9853 77.8591 11.5839 C 77.512901 11.182499 77.340302 10.6614 77.340302 10.0215 C 77.340302 9.334789 77.527702 8.778591 77.904297 8.35379 C 78.268898 7.95779 78.715698 7.75979 79.247398 7.75979 C 79.831703 7.75979 80.240601 7.95149 80.473198 8.335789 L 80.491699 8.335789 L 80.491699 5.900391 L 81.459999 5.900391 L 81.459999 10.946701 C 81.459999 11.3598 81.4711 11.740501 81.494202 12.089699 Z M 80.491699 10.300499 L 80.491699 9.59309 C 80.491699 9.47069 80.482498 9.371689 80.464897 9.296089 C 80.4105 9.06929 80.293198 8.87849 80.115097 8.72459 C 79.935097 8.57069 79.718201 8.49329 79.468002 8.49329 C 79.107101 8.49329 78.8246 8.63279 78.616898 8.912689 C 78.411102 9.192589 78.306801 9.549889 78.306801 9.986389 C 78.306801 10.4058 78.405602 10.746 78.603996 11.0079 C 78.813599 11.2869 79.096001 11.426399 79.4496 11.426399 C 79.767097 11.426399 80.020897 11.310299 80.213898 11.0772 C 80.400299 10.862099 80.491699 10.6029 80.491699 10.300499 Z"/>
    <path id="path11" fill="black" stroke="none" d="M 89.7677 9.933281 C 89.7677 10.5858 89.576599 11.120399 89.194504 11.539799 C 88.7939 11.9709 88.264 12.186001 87.600304 12.186001 C 86.962502 12.186001 86.453903 11.9799 86.073601 11.565899 C 85.695099 11.1528 85.505898 10.631699 85.505898 10.0035 C 85.505898 9.346481 85.7006 8.807381 86.092003 8.38888 C 86.483398 7.970379 87.009499 7.760681 87.673203 7.760681 C 88.311096 7.760681 88.825203 7.96678 89.212898 8.379879 C 89.582199 8.781281 89.7677 9.299679 89.7677 9.933281 Z M 88.765198 9.963879 C 88.765198 9.57238 88.678497 9.236679 88.505898 8.956779 C 88.301903 8.61838 88.013901 8.449181 87.637199 8.449181 C 87.249603 8.449181 86.954201 8.61838 86.750198 8.956779 C 86.576599 9.236679 86.490799 9.57778 86.490799 9.98098 C 86.490799 10.372501 86.577499 10.7082 86.750198 10.9881 C 86.959702 11.3265 87.251404 11.495701 87.627998 11.495701 C 87.9972 11.495701 88.288002 11.323799 88.496597 10.979099 C 88.674797 10.6938 88.765198 10.3554 88.765198 9.963879 Z"/>
    <path id="path12" fill="black" stroke="none" d="M 94.969002 12.089699 L 94.002502 12.089699 L 94.002502 9.6597 C 94.002502 8.9109 93.7108 8.536499 93.124702 8.536499 C 92.837601 8.536499 92.605904 8.639099 92.426804 8.8452 C 92.247803 9.0513 92.158203 9.2943 92.158203 9.572399 L 92.158203 12.0888 L 91.189903 12.0888 L 91.189903 9.059399 C 91.189903 8.6868 91.178802 8.2827 91.1558 7.845301 L 92.004997 7.845301 L 92.050201 8.5086 L 92.077003 8.5086 C 92.190498 8.3025 92.358498 8.132401 92.578201 7.9965 C 92.841301 7.8381 93.133904 7.757999 93.4561 7.757999 C 93.861298 7.757999 94.199097 7.885799 94.467796 8.1423 C 94.802803 8.4564 94.969002 8.925301 94.969002 9.5481 L 94.969002 12.089699 Z"/>
    <path id="path13" fill="black" stroke="none" d="M 101.480003 8.553631 L 100.415001 8.553631 L 100.415001 10.614601 C 100.415001 11.138401 100.603996 11.400299 100.978996 11.400299 C 101.152 11.400299 101.295998 11.385899 101.410004 11.356201 L 101.434998 12.071701 C 101.242996 12.141899 100.991997 12.177 100.682999 12.177 C 100.301003 12.177 100.003998 12.063599 99.788696 11.8368 C 99.572701 11.610001 99.465599 11.228401 99.465599 10.6929 L 99.465599 8.553631 L 98.829597 8.553631 L 98.829597 7.84713 L 99.465599 7.84713 L 99.465599 7.06953 L 100.414001 6.790531 L 100.414001 7.84623 L 101.478996 7.84623 L 101.478996 8.553631 L 101.480003 8.553631 Z"/>
    <path id="path14" fill="black" stroke="none" d="M 106.600998 12.089699 L 105.633003 12.089699 L 105.633003 9.677689 C 105.633003 8.917191 105.341003 8.536491 104.757004 8.536491 C 104.307999 8.536491 104.000999 8.75699 103.833 9.19799 C 103.805 9.290691 103.788002 9.404091 103.788002 9.537289 L 103.788002 12.0888 L 102.821999 12.0888 L 102.821999 5.900391 L 103.788002 5.900391 L 103.788002 8.457291 L 103.806999 8.457291 C 104.111 7.991989 104.547997 7.75979 105.113998 7.75979 C 105.514 7.75979 105.846001 7.88759 106.109001 8.144089 C 106.436996 8.463589 106.600998 8.938789 106.600998 9.56699 L 106.600998 12.089699 Z"/>
    <path id="path15" fill="black" stroke="none" d="M 111.883003 9.76766 C 111.883003 9.936859 111.870003 10.0791 111.847 10.1952 L 108.945999 10.1952 C 108.959 10.614601 109.097 10.934101 109.365997 11.1555 C 109.612 11.3535 109.928001 11.452499 110.316002 11.452499 C 110.745003 11.452499 111.136002 11.385899 111.488998 11.251801 L 111.639999 11.907 C 111.227997 12.0816 110.741997 12.1689 110.18 12.1689 C 109.505997 12.1689 108.975998 11.975399 108.592003 11.5884 C 108.206001 11.201401 108.014999 10.6821 108.014999 10.0305 C 108.014999 9.39056 108.193001 8.857761 108.552002 8.432961 C 108.927002 7.979361 109.432999 7.75256 110.072998 7.75256 C 110.698997 7.75256 111.174004 7.979361 111.496002 8.432961 C 111.754997 8.792961 111.883003 9.238461 111.883003 9.76766 Z M 110.959999 9.52376 C 110.968002 9.24386 110.903999 9.002659 110.773003 8.799259 C 110.605003 8.537361 110.348999 8.40596 110.002998 8.40596 C 109.686996 8.40596 109.43 8.53376 109.233002 8.79026 C 109.071999 8.99456 108.976997 9.238461 108.945999 9.52376 L 110.959999 9.52376 Z"/>
    <path id="path16" fill="black" stroke="none" d="M 49.5182 28.3535 L 47.421902 28.3535 L 46.273602 24.8354 L 42.2822 24.8354 L 41.1884 28.3535 L 39.147499 28.3535 L 43.101898 16.376301 L 45.544399 16.376301 L 49.5182 28.3535 Z M 45.927502 23.3594 L 44.889 20.231899 C 44.779202 19.912399 44.573299 19.16 44.2696 17.975599 L 44.2327 17.975599 C 44.111801 18.485001 43.917 19.2374 43.6493 20.231899 L 42.629299 23.3594 L 45.927502 23.3594 Z"/>
    <path id="path17" fill="black" stroke="none" d="M 59.687901 23.929199 C 59.687901 25.398001 59.2808 26.559 58.466599 27.411301 C 57.7374 28.17 56.831902 28.548901 55.7509 28.548901 C 54.584202 28.548901 53.745998 28.140301 53.2356 27.323099 L 53.198601 27.323099 L 53.198601 31.872601 L 51.230598 31.872601 L 51.230598 22.560301 C 51.230598 21.6369 51.2057 20.689199 51.1577 19.717199 L 52.8885 19.717199 L 52.998299 21.0861 L 53.035301 21.0861 C 53.691601 20.054701 54.687599 19.5399 56.0242 19.5399 C 57.069099 19.5399 57.941399 19.9422 58.639301 20.7477 C 59.338902 21.5541 59.687901 22.6143 59.687901 23.929199 Z M 57.682899 23.999399 C 57.682899 23.1588 57.489101 22.465799 57.099602 21.920401 C 56.674 21.351601 56.1026 21.0672 55.386299 21.0672 C 54.900799 21.0672 54.459599 21.225599 54.065399 21.537901 C 53.6703 21.8529 53.4119 22.2642 53.290901 22.7736 C 53.23 23.0112 53.1996 23.205601 53.1996 23.358601 L 53.1996 24.798599 C 53.1996 25.4268 53.397099 25.9569 53.792198 26.389799 C 54.187302 26.822701 54.7005 27.0387 55.331902 27.0387 C 56.073101 27.0387 56.650002 26.759701 57.062599 26.203501 C 57.4762 25.6464 57.682899 24.912001 57.682899 23.999399 Z"/>
    <path id="path18" fill="black" stroke="none" d="M 69.8759 23.929199 C 69.8759 25.398001 69.468803 26.559 68.653801 27.411301 C 67.9254 28.17 67.019897 28.548901 65.939003 28.548901 C 64.772202 28.548901 63.934101 28.140301 63.4245 27.323099 L 63.3876 27.323099 L 63.3876 31.872601 L 61.419601 31.872601 L 61.419601 22.560301 C 61.419601 21.6369 61.394699 20.689199 61.346699 19.717199 L 63.0774 19.717199 L 63.187302 21.0861 L 63.224201 21.0861 C 63.879601 20.054701 64.875603 19.5399 66.213097 19.5399 C 67.257103 19.5399 68.129501 19.9422 68.829102 20.7477 C 69.5261 21.5541 69.8759 22.6143 69.8759 23.929199 Z M 67.871002 23.999399 C 67.871002 23.1588 67.676201 22.465799 67.286697 21.920401 C 66.861099 21.351601 66.291603 21.0672 65.574402 21.0672 C 65.087898 21.0672 64.647598 21.225599 64.252502 21.537901 C 63.857498 21.8529 63.599899 22.2642 63.479 22.7736 C 63.418999 23.0112 63.3876 23.205601 63.3876 23.358601 L 63.3876 24.798599 C 63.3876 25.4268 63.585098 25.9569 63.978401 26.389799 C 64.373398 26.8218 64.886703 27.0387 65.519897 27.0387 C 66.261101 27.0387 66.838097 26.759701 67.250702 26.203501 C 67.6642 25.6464 67.871002 24.912001 67.871002 23.999399 Z"/>
    <path id="path19" fill="black" stroke="none" d="M 81.266403 24.994801 C 81.266403 26.013599 80.903702 26.842501 80.1754 27.482401 C 79.375099 28.1817 78.260902 28.530899 76.829201 28.530899 C 75.507401 28.530899 74.447701 28.282499 73.6455 27.7848 L 74.101501 26.185499 C 74.9655 26.694901 75.913498 26.9505 76.946404 26.9505 C 77.687698 26.9505 78.264603 26.786699 78.679001 26.460899 C 79.091698 26.135099 79.297501 25.697701 79.297501 25.1523 C 79.297501 24.6663 79.127701 24.2568 78.787003 23.9247 C 78.448303 23.5926 77.882401 23.283899 77.0923 22.9986 C 74.941498 22.216499 73.867104 21.070801 73.867104 19.564199 C 73.867104 18.579599 74.243698 17.772301 74.997803 17.1441 C 75.749199 16.514999 76.751701 16.200899 78.005203 16.200899 C 79.123001 16.200899 80.051697 16.3908 80.7929 16.769699 L 80.300903 18.3339 C 79.608597 17.9667 78.825798 17.7831 77.949799 17.7831 C 77.2575 17.7831 76.716599 17.9496 76.328903 18.2808 C 76.001198 18.5769 75.836899 18.937799 75.836899 19.365299 C 75.836899 19.838699 76.0243 20.2302 76.400902 20.538 C 76.7286 20.822399 77.323997 21.130199 78.188004 21.462299 C 79.244904 21.877199 80.021202 22.362301 80.520599 22.918501 C 81.018097 23.4729 81.266403 24.1668 81.266403 24.994801 Z"/>
    <path id="path20" fill="black" stroke="none" d="M 87.773399 21.157101 L 85.604103 21.157101 L 85.604103 25.350201 C 85.604103 26.4167 85.986298 26.949499 86.752403 26.949499 C 87.104103 26.949499 87.395798 26.9198 87.626602 26.860399 L 87.681099 28.317499 C 87.293404 28.458799 86.782898 28.5299 86.150597 28.5299 C 85.373398 28.5299 84.765999 28.298599 84.327499 27.836901 C 83.8909 27.3743 83.671204 26.598499 83.671204 25.5086 L 83.671204 21.1553 L 82.378899 21.1553 L 82.378899 19.7153 L 83.671204 19.7153 L 83.671204 18.134001 L 85.604103 17.565201 L 85.604103 19.7153 L 87.773399 19.7153 L 87.773399 21.157101 Z"/>
    <path id="path21" fill="black" stroke="none" d="M 97.560799 23.9643 C 97.560799 25.2918 97.171204 26.381701 96.393997 27.233999 C 95.578903 28.1115 94.497101 28.548901 93.148499 28.548901 C 91.848801 28.548901 90.814003 28.128599 90.042297 27.288 C 89.270599 26.447399 88.884804 25.386299 88.884804 24.107401 C 88.884804 22.7691 89.2817 21.672899 90.0783 20.820601 C 90.8731 19.9674 91.945702 19.5408 93.294296 19.5408 C 94.594002 19.5408 95.639801 19.9611 96.4291 20.802601 C 97.184097 21.6189 97.560799 22.6728 97.560799 23.9643 Z M 95.518898 24.0264 C 95.518898 23.2299 95.344498 22.546801 94.990898 21.9771 C 94.5783 21.287701 93.988503 20.943899 93.224098 20.943899 C 92.433098 20.943899 91.8321 21.288601 91.419502 21.9771 C 91.066002 22.547701 90.891502 23.2416 90.891502 24.062401 C 90.891502 24.8589 91.066002 25.542 91.419502 26.1108 C 91.8451 26.8002 92.439499 27.143999 93.206596 27.143999 C 93.958 27.143999 94.547798 26.792999 94.973396 26.0928 C 95.336098 25.5123 95.518898 24.822001 95.518898 24.0264 Z"/>
    <path id="path22" fill="black" stroke="none" d="M 103.958 21.404699 C 103.763 21.3696 103.555 21.351601 103.337997 21.351601 C 102.644997 21.351601 102.110001 21.6063 101.733002 22.1166 C 101.405998 22.566601 101.240997 23.135401 101.240997 23.8221 L 101.240997 28.3536 L 99.274101 28.3536 L 99.292603 22.437 C 99.292603 21.441601 99.2677 20.535299 99.218803 19.7181 L 100.932999 19.7181 L 101.004997 21.370501 L 101.058998 21.370501 C 101.266998 20.802601 101.595001 20.3454 102.042999 20.002501 C 102.482002 19.6938 102.955002 19.5399 103.466003 19.5399 C 103.648003 19.5399 103.811996 19.5525 103.958 19.575001 L 103.958 21.404699 Z"/>
    <path id="path23" fill="black" stroke="none" d="M 112.759003 23.626801 C 112.759003 23.9706 112.736 24.260401 112.686996 24.497101 L 106.782997 24.497101 C 106.806 25.3503 107.092003 26.0028 107.639999 26.452801 C 108.137001 26.855101 108.780998 27.0567 109.570999 27.0567 C 110.445 27.0567 111.242996 26.920799 111.959999 26.6481 L 112.267998 27.980101 C 111.43 28.3365 110.440002 28.5138 109.299004 28.5138 C 107.925003 28.5138 106.847 28.1196 106.061996 27.3321 C 105.279999 26.5446 104.887001 25.487101 104.887001 24.1605 C 104.887001 22.8582 105.251999 21.773701 105.982002 20.9088 C 106.746002 19.985399 107.778999 19.523701 109.079002 19.523701 C 110.356003 19.523701 111.321999 19.985399 111.977997 20.9088 C 112.498001 21.6423 112.759003 22.5495 112.759003 23.626801 Z M 110.883003 23.129101 C 110.896004 22.560301 110.766998 22.068899 110.5 21.653999 C 110.160004 21.1203 109.636002 20.853901 108.931999 20.853901 C 108.289001 20.853901 107.764999 21.114 107.365997 21.636 C 107.038002 22.0509 106.843002 22.548599 106.782997 23.128201 L 110.883003 23.128201 L 110.883003 23.129101 Z"/>
</svg>
