<svg width="851" height="410" viewBox="0 0 851 410" fill="none" xmlns="http://www.w3.org/2000/svg">
<path d="M317.647 183.187H313.854C314.226 180.906 314.637 178.639 314.955 176.371C316.188 167.778 317.395 159.171 318.602 150.578C318.841 148.894 319.013 147.209 319.265 145.538C319.331 145.127 319.61 144.756 319.782 144.371C320.087 144.676 320.512 144.928 320.697 145.286C324.251 152.036 327.766 158.813 331.333 165.55C332.884 168.48 334.529 171.358 336.293 174.581C342.035 164.21 347.591 154.185 353.161 144.146L353.758 144.358C355.23 157.301 356.702 170.244 358.174 183.201H353.227C352.312 173.865 351.397 164.462 350.482 155.06L349.806 154.888L335.139 182.71C330.418 173.652 325.67 164.568 320.936 155.498L320.432 155.59C320.061 158.588 319.65 161.571 319.305 164.568C318.947 167.672 318.602 170.775 318.31 173.891C318.032 176.954 317.846 180.018 317.607 183.187H317.647Z" fill="white"/>
<path d="M284.865 167.552C284.798 171.941 282.106 178.466 274.627 181.808C266.697 185.349 258.554 185.269 250.995 180.734C244.219 176.662 242.336 169.952 242.72 162.486C242.985 157.221 244.763 152.553 248.874 148.999C251.764 146.506 255.159 145.154 258.899 144.557C263.302 143.854 267.665 144 271.935 145.313C280.25 147.872 284.878 154.622 284.865 167.552V167.552ZM279.441 164.131C279.136 161.889 278.99 159.595 278.473 157.407C276.842 150.445 271.298 146.135 263.965 145.923C257.149 145.737 251.353 149.835 249.351 156.426C247.839 161.399 247.813 166.491 249.245 171.464C250.969 177.458 255 181.198 261.22 182.073C267.227 182.922 272.505 181.33 276.152 176.105C278.645 172.538 279.295 168.427 279.441 164.131V164.131Z" fill="white"/>
<path d="M526.578 145.034H529.933C529.655 158.03 529.376 171.013 529.098 184.248C519.563 173.944 510.134 163.746 500.692 153.548L500.281 153.76V183.134H496.966C497.271 170.191 497.589 157.288 497.894 144C498.557 144.504 499.167 144.849 499.618 145.339C506.527 152.726 513.383 160.179 520.332 167.526C522.282 169.594 524.483 171.424 526.565 173.361V145.034H526.578Z" fill="white"/>
<path d="M395.411 183.214H390.425V144.968C393.661 144.968 397.029 144.928 400.397 144.981C402.559 145.021 404.747 145.008 406.882 145.326C411.51 146.016 414.216 148.442 414.945 152.262C415.78 156.678 413.884 161.133 410.184 163.388C407.718 164.886 404.999 165.496 402.161 165.616C399.946 165.709 397.719 165.629 395.411 165.629V183.2V183.214ZM395.212 147.13C395.212 152.5 395.199 157.566 395.252 162.645C395.252 163.003 395.756 163.653 396.061 163.666C399.403 163.918 402.745 163.905 405.795 162.234C408.938 160.51 410.516 156.956 409.892 153.163C409.309 149.623 407.36 147.647 403.341 147.169C400.861 146.878 398.315 147.116 395.212 147.116V147.13Z" fill="white"/>
<path d="M470.642 183.187H465.139C464.078 180.468 462.977 177.617 461.85 174.779C461.147 173.002 460.378 171.265 459.702 169.475C459.383 168.639 458.946 168.228 457.965 168.255C454.039 168.348 450.127 168.414 446.202 168.387C445.128 168.387 444.61 168.706 444.239 169.727C442.82 173.718 441.308 177.67 439.823 181.635C439.624 182.179 439.438 182.71 439.253 183.2H435.274C435.712 182.285 436.123 181.516 436.481 180.707C441.693 169.17 446.891 157.632 452.09 146.095C452.196 145.856 452.249 145.565 452.408 145.379C452.726 145.008 453.111 144.703 453.456 144.358C453.787 144.703 454.251 144.994 454.424 145.419C456.134 149.357 457.792 153.309 459.476 157.248C463.163 165.854 466.85 174.461 470.589 183.187H470.642ZM458.283 165.947C456.227 161.16 454.278 156.611 452.156 151.678C449.968 156.691 447.965 161.24 445.91 165.947H458.283Z" fill="white"/>
<path d="M216.422 146.374L215.189 150.989C214.884 150.776 214.672 150.657 214.486 150.498C205.906 142.515 192.724 146.135 189.542 157.42C188.189 162.208 188.202 167.088 189.794 171.822C192.645 180.256 201.238 184.195 209.725 180.933C212.006 180.057 214.088 178.638 216.369 177.405C215.972 179.089 215.985 180.88 213.797 181.808C206.848 184.752 199.899 185.057 193.016 181.914C187.911 179.593 184.927 175.389 183.68 169.966C182.527 164.926 182.778 159.953 184.914 155.192C187.088 150.339 190.775 147.023 195.841 145.445C202.75 143.297 209.606 143.708 216.436 146.347L216.422 146.374Z" fill="white"/>
<path d="M600.723 183.2V145.074H620.376V147.647C617.074 147.647 613.798 147.793 610.536 147.607C605.908 147.355 605.895 147.249 605.696 151.877C605.576 154.689 605.523 157.5 605.47 160.298C605.47 160.762 605.576 161.226 605.643 161.744C607.977 161.744 610.204 161.783 612.419 161.744C614.581 161.691 616.742 161.532 618.997 161.425V164.369H605.629V180.76C610.761 180.561 615.695 180.376 620.668 180.19V183.2H600.723V183.2Z" fill="white"/>
<path d="M645.825 175.814C646.992 177.113 647.921 178.413 649.101 179.394C652.589 182.299 657.217 182.285 660.506 179.646C663.516 177.22 664.855 170.668 659.816 167.671C658.278 166.756 656.567 166.133 654.949 165.337C653.199 164.475 651.395 163.68 649.737 162.645C643.412 158.667 644.698 149.822 649.751 146.294C654.167 143.218 661.553 143.456 665.943 146.851C665.452 148.363 664.948 149.915 664.325 151.824C663.94 151.161 663.702 150.737 663.463 150.339C661.845 147.687 659.524 146.162 656.368 146.414C653.039 146.692 650.838 148.522 650.056 151.36C649.286 154.132 650.215 157.062 652.761 158.561C655.254 160.033 657.933 161.213 660.598 162.354C664.59 164.064 667.547 166.637 667.6 171.252C667.653 176.053 665.571 179.938 661.261 182.232C655.97 185.057 650.679 184.686 645.534 181.649C644.725 181.171 644.486 180.681 644.817 179.726C645.268 178.479 645.48 177.153 645.812 175.787L645.825 175.814Z" fill="white"/>
<path d="M568.166 183.201H563.246V145.101H568.166V183.201Z" fill="white"/>
<path d="M208.454 16.3516C224.991 16.524 241.448 16.6832 257.866 16.8556C257.72 19.0967 257.561 21.444 257.401 23.9504C254.829 23.8178 252.269 23.6454 249.697 23.5658C240.745 23.2873 231.794 23.0088 222.843 22.7834C220.707 22.7303 220.641 22.8364 220.628 25.1041C220.548 35.3286 220.509 45.5663 220.455 55.7908C220.455 56.414 220.535 57.0373 220.601 57.9921C231.847 57.78 243 57.5678 254.206 57.3556V64.4902C250.24 64.3178 246.395 64.0923 242.549 63.9863C235.719 63.7873 228.876 63.668 222.047 63.4691C220.774 63.4293 220.455 63.973 220.495 65.1798C220.853 77.8443 221.185 90.5089 221.477 103.173C221.503 104.473 221.994 104.99 223.267 104.95C229.089 104.752 234.924 104.698 240.732 104.34C246.7 103.982 252.641 103.346 258.622 102.829V110.626H208.136C210.324 79.3031 209.634 47.7942 208.441 16.3384L208.454 16.3516Z" fill="white"/>
<path d="M0.30501 16.3511C16.8949 16.5235 33.3124 16.6959 49.7166 16.8683L49.2525 23.9631C46.7063 23.8305 44.1469 23.6581 41.5742 23.5785C32.6759 23.2867 23.7775 23.0083 14.8792 22.7828C12.5717 22.7298 12.4921 22.8359 12.4789 25.2229C12.3993 35.5004 12.3595 45.7912 12.3198 56.0687C12.3198 56.5859 12.3993 57.1031 12.4656 57.9916C23.6714 57.7794 34.8242 57.5805 46.0698 57.3683V64.5029C42.1179 64.3305 38.2721 64.1183 34.4263 63.9989C27.5968 63.8 20.7539 63.6674 13.9244 63.495C12.8369 63.4685 12.3065 63.7735 12.3463 65.0333C12.7176 77.804 13.0491 90.5746 13.3409 103.345C13.3674 104.632 13.9642 105.016 15.1046 104.963C22.2525 104.671 29.4003 104.472 36.5349 104.075C41.1764 103.809 45.8045 103.266 50.4858 102.828V110.705H0C2.18812 79.3025 1.49853 47.7936 0.30501 16.3511Z" fill="white"/>
<path d="M320.048 64.5028C313.404 64.211 306.893 63.8795 300.369 63.6673C296.125 63.5215 291.881 63.5612 287.651 63.5082C286.709 63.5082 286.365 63.906 286.391 64.8609C286.709 76.8889 286.935 88.9301 287.333 100.958C287.465 105.056 287.651 105.242 291.828 105.069C299.347 104.764 306.853 104.234 314.359 103.73C317.741 103.504 321.096 103.133 324.531 102.815V110.692H274.045C276.22 79.3289 275.53 47.8333 274.35 16.3643C290.887 16.5367 307.344 16.6958 323.748 16.8682C323.616 19.1359 323.47 21.4831 323.311 23.9762C320.857 23.8569 318.444 23.711 316.03 23.6315C307.185 23.3397 298.34 23.0082 289.494 22.8225C286.06 22.7562 286.524 22.5042 286.471 25.8063C286.325 34.2935 286.285 42.7808 286.219 51.2548C286.206 53.3633 286.219 55.4851 286.219 58.018C297.677 57.8058 308.829 57.6069 320.062 57.3947V64.5161L320.048 64.5028Z" fill="white"/>
<path d="M110.759 30.9256C108.637 27.0135 105.905 23.844 102.218 21.5233C95.2959 17.1869 83.6127 18.261 77.9368 23.539C71.2664 29.7586 71.3062 44.2532 80.5095 49.8627C84.3155 52.1835 88.5724 53.8146 92.6967 55.5916C96.9668 57.4349 101.476 58.7876 105.626 60.8431C118.437 67.1687 121.262 78.5867 117.137 90.8799C113.504 101.741 105.255 107.961 94.4206 110.666C83.0424 113.504 72.3538 111.581 62.5537 105.003C61.453 104.261 60.9889 103.571 61.3867 102.165C62.1957 99.3274 62.7791 96.4364 63.5085 93.2935C64.6092 94.6064 65.5242 95.7999 66.5321 96.9138C70.9348 101.821 75.9476 105.892 82.5915 107.178C90.7738 108.756 98.0675 106.74 103.544 100.269C108.756 94.1024 110.029 86.9281 107.258 79.2763C105.905 75.5234 103.014 72.8976 99.6058 71.0676C96.2639 69.264 92.7762 67.6859 89.2222 66.3333C83.5198 64.1584 77.9501 61.8112 72.818 58.4163C58.456 48.8947 60.1932 27.345 74.6215 18.5528C81.7296 14.2163 89.4874 13.1952 97.5768 14.0174C103.186 14.6009 108.425 16.3116 113.132 19.5474C114.326 20.3563 114.684 21.0592 114.021 22.5047C112.801 25.1834 111.846 27.9948 110.719 30.9123L110.759 30.9256Z" fill="white"/>
<path d="M122.947 16.8423H195.234V23.8443L165.662 22.5049C165.357 37.5697 164.839 52.2235 164.813 66.8772C164.786 81.4912 165.237 96.0919 165.489 110.679H152.506C152.718 107.815 153.063 104.884 153.13 101.94C153.382 89.5408 153.62 77.1414 153.74 64.7421C153.819 57.3688 153.74 50.0088 153.607 42.6355C153.514 36.4425 153.249 30.2362 153.09 24.0432C153.063 23.1414 152.864 22.6905 151.817 22.7436C143.515 23.1679 135.2 23.5392 126.899 23.9371C125.546 24.0034 124.18 24.1227 122.934 24.2156V16.8423H122.947Z" fill="white"/>
<path d="M207.897 5.47692V0H257.468V5.47692H207.897Z" fill="white"/>
<path d="M611.44 17.1828C620.657 18.2172 629.489 17.395 638.334 17.2623C647.643 17.1165 656.993 17.1695 666.289 17.7398C679.073 18.5222 688.13 25.67 694.867 36.0403C700.45 44.6337 702.227 54.2481 701.524 64.3135C700.384 80.4657 692.931 93.2231 680.054 102.864C673.636 107.665 666.169 109.72 658.319 110.609C647.113 111.882 635.867 111.086 624.635 111.179C620.723 111.205 616.798 111.431 612.885 111.55C612.527 111.55 612.156 111.55 611.891 111.55C613.084 80.0679 613.801 48.7049 611.427 17.1562L611.44 17.1828ZM623.455 65.4937C623.654 74.7766 623.892 88.449 624.303 102.108C624.436 106.59 624.065 105.994 628.295 106.1C636.65 106.312 645.057 106.431 653.386 105.835C668.238 104.76 678.595 96.7241 684.059 83.1445C689.761 69.008 688.939 54.5001 683.369 40.5094C679.285 30.2584 671.076 24.2908 660.215 22.5536C648.771 20.7103 637.286 21.4529 625.855 23.0973C624.768 23.2565 624.131 23.6145 624.197 24.8743C624.264 26.1872 624.105 27.5133 624.078 28.8395C623.892 39.5944 623.707 50.3493 623.455 65.507V65.4937Z" fill="white"/>
<path d="M812.892 64.7373C825.556 80.5713 838.088 96.2462 850.845 112.2C850.103 112.2 849.625 112.2 849.148 112.2C845.223 112.2 841.297 112.173 837.385 112.266C836.245 112.292 835.582 111.948 834.919 111.033C825.225 97.758 815.57 84.4569 804.922 71.9249C803.542 70.3071 802.123 68.7422 800.797 67.0846C799.962 66.0369 798.994 65.5993 797.641 65.7186C796.395 65.8247 795.121 65.7452 793.689 65.7452C793.331 81.0885 794.22 96.2462 794.87 111.391H781.263C782.881 80.1072 783.16 48.7309 781.224 17.2884C783.836 17.4077 786.25 17.6597 788.663 17.6066C797.402 17.421 806.142 17.0231 814.894 16.917C820.583 16.8507 826.179 17.5138 831.524 19.7815C843.711 24.9401 845.369 38.8512 841.324 47.113C838.34 53.2132 833.38 57.3375 827.333 59.9765C823.05 61.8463 818.448 63.0001 813.979 64.4588C813.74 64.5384 813.502 64.5914 812.905 64.7506L812.892 64.7373ZM802.561 60.7059V60.9844C805.16 60.7854 807.773 60.7324 810.319 60.3478C817.997 59.1808 824.217 55.6931 828.155 48.7309C832.492 41.0791 830.781 27.2874 818.926 23.4018C810.929 20.7761 802.813 21.4789 794.724 22.9244C793.809 23.0835 793.61 23.6538 793.623 24.5158C793.649 36.0796 793.663 47.6435 793.623 59.2074C793.623 60.3478 794.061 60.7191 795.108 60.7059C797.601 60.6926 800.081 60.7059 802.574 60.7059H802.561Z" fill="white"/>
<path d="M512.046 17.0368H525.32C525.201 19.2779 525.015 21.6915 524.962 24.1183C524.71 34.8732 524.392 45.6281 524.313 56.3963C524.26 63.8624 524.419 71.3418 524.697 78.8079C525.122 90.0138 530.148 98.5673 540.001 104.057C544.708 106.683 549.894 107.386 555.225 107.174C561.272 106.935 567.16 106.007 572.478 102.917C578.989 99.1375 582.636 93.1699 584.917 86.2343C586.853 80.3065 586.999 74.1267 587.039 67.9867C587.092 56.277 586.932 44.554 586.734 32.8443C586.667 28.6669 586.216 24.4896 585.964 20.3123C585.898 19.1718 585.964 18.0181 585.964 17.05H595.314C595.314 18.1905 595.34 19.5432 595.314 20.8826C594.995 36.0402 594.717 51.1979 594.306 66.3423C594.12 73.3708 594.16 80.4656 591.959 87.2686C587.94 99.7475 579.745 108.142 567.041 111.524C554.296 114.918 541.658 114.096 529.697 108.288C520.52 103.819 514.924 96.3129 514.274 85.9823C513.651 76.0496 513.863 66.0638 513.544 56.1179C513.147 43.5196 512.576 30.9214 512.086 18.3099C512.072 17.8457 512.086 17.3816 512.086 17.0103L512.046 17.0368Z" fill="white"/>
<path d="M506.662 111.099C502.392 111.219 497.804 111.378 493.215 111.404C492.791 111.404 492.181 110.622 491.969 110.078C489.184 103.09 486.505 96.0611 483.68 89.0989C481.691 84.1922 479.477 79.3784 477.421 74.4849C477.05 73.6097 476.559 73.3445 475.644 73.3445C464.451 73.371 453.259 73.371 442.066 73.3445C441.271 73.3445 440.7 73.4241 440.342 74.3126C435.648 85.8897 430.728 97.3872 427.227 109.415C426.988 110.224 426.75 111.02 426.59 111.564H416.737C418.435 107.651 420.039 103.872 421.724 100.119C434.401 71.899 447.106 43.6922 459.797 15.4721C460.442 14.0311 461.684 13.4255 463.523 13.6553C478.005 46.371 492.406 78.901 506.649 111.073L506.662 111.099ZM459.147 32.8445L458.537 32.8179C453.312 44.4614 448.1 56.118 442.809 67.9206H474.756C469.478 56.065 464.73 44.2624 459.147 32.8312V32.8445Z" fill="white"/>
<path d="M764.422 17.3812C764.276 19.6754 764.131 22.0359 763.985 24.3036C751.758 23.8925 739.597 23.4947 727.145 23.0836V58.5974C738.417 58.3719 749.57 58.1332 760.775 57.9078V64.923C749.57 64.565 738.417 64.2202 727.065 63.8621C727.065 64.9628 727.065 65.6391 727.065 66.3022C727.291 77.2162 727.503 88.1303 727.755 99.0576C727.795 100.649 728.02 102.227 728.047 103.818C728.047 105.038 728.577 105.556 729.757 105.542C732.569 105.516 735.393 105.662 738.178 105.463C746.798 104.84 755.405 104.097 764.011 103.394C764.382 103.368 764.741 103.394 765.191 103.394V111.258H714.692C716.894 79.9879 716.191 48.4525 715.011 16.9038C731.548 17.0629 748.005 17.2221 764.409 17.3812H764.422Z" fill="white"/>
<path d="M359.594 16.9703H373.332C373.041 21.015 372.669 25.126 372.47 29.2237C372.192 35.0455 371.834 40.8804 371.847 46.7021C371.9 62.3903 372.112 78.0784 372.325 93.7665C372.378 97.2675 372.683 100.755 372.829 104.243C372.868 105.145 373.12 105.622 374.088 105.649C375.308 105.688 376.515 105.861 377.735 105.874C388.556 105.98 399.364 105.543 410.119 104.336C410.676 104.269 411.26 104.336 411.764 104.336V111.404H359.647C361.53 79.9482 361.265 48.4526 359.594 16.957V16.9703Z" fill="white"/>
<path d="M601.09 399.21H533.33V395.53C533.16 372.61 535.5 370.6 562.77 368.26C580.17 366.59 588.2 364.25 593.22 359.9C599.07 354.71 601.42 347.02 601.42 332.3C601.42 304.36 593.39 297 563.28 297C540.69 297 529.65 300.35 525.14 308.54C521.96 314.23 521.29 319.08 520.96 336.31H533.17C533 332.46 533 329.78 533 328.45C533 310.21 536.35 307.87 563.78 307.87C585.36 307.87 589.54 311.72 589.54 330.79C589.54 342.67 588.2 348.52 585.02 351.54C581.84 354.22 576.49 355.55 560.26 357.39C527.64 360.23 520.95 365.59 520.78 388.84V409.75H601.08V399.21H601.09ZM505.28 399.21H437.53V395.53C437.36 372.61 439.7 370.6 466.97 368.26C484.37 366.59 492.4 364.25 497.42 359.9C503.27 354.71 505.62 347.02 505.62 332.3C505.62 304.36 497.59 297 467.48 297C444.9 297 433.85 300.35 429.34 308.54C426.16 314.23 425.49 319.08 425.16 336.31H437.37C437.2 332.46 437.2 329.78 437.2 328.45C437.2 310.21 440.55 307.87 467.98 307.87C489.56 307.87 493.74 311.72 493.74 330.79C493.74 342.67 492.4 348.52 489.22 351.54C486.04 354.22 480.69 355.55 464.46 357.39C431.84 360.23 425.15 365.59 424.98 388.84V409.75H505.28V399.21ZM398.6 298.16H380.36L349.58 331.62L357.44 339.15L386.05 307.53V409.75H398.6V298.16ZM330.31 399.21H262.55V395.53C262.38 372.61 264.72 370.6 291.99 368.26C309.39 366.59 317.42 364.25 322.44 359.9C328.3 354.71 330.64 347.02 330.64 332.3C330.64 304.36 322.61 297 292.5 297C269.91 297 258.87 300.35 254.36 308.54C251.18 314.23 250.51 319.08 250.18 336.31H262.39C262.22 332.46 262.22 329.78 262.22 328.45C262.22 310.21 265.57 307.87 293 307.87C314.58 307.87 318.76 311.72 318.76 330.79C318.76 342.67 317.42 348.52 314.24 351.54C311.06 354.22 305.71 355.55 289.48 357.39C256.86 360.23 250.17 365.59 250 388.84V409.75H330.3V399.21H330.31Z" fill="white"/>
</svg>
