<svg width="197" height="26" viewBox="0 0 197 26" fill="none" xmlns="http://www.w3.org/2000/svg">
<path d="M47.3706 3.83545H58.7146V5.46095C57.8258 5.41022 56.9958 5.34325 56.1637 5.31687C54.3312 5.25802 52.4987 5.22352 50.6642 5.17278C50.4024 5.16467 50.2644 5.23163 50.2644 5.53198C50.2726 8.00168 50.2705 10.4714 50.2726 12.9431C50.2726 13.0162 50.2969 13.0913 50.3274 13.2516C52.8397 13.2008 55.3479 13.1501 57.8542 13.1014V14.5301C56.8963 14.5301 55.9385 14.5382 54.9806 14.5301C53.4911 14.5159 52.0016 14.4915 50.5141 14.4712C50.2746 14.4671 50.1447 14.5443 50.1528 14.8223C50.2279 17.8338 50.2949 20.8433 50.3659 23.9097C53.2273 24.001 55.9973 23.7027 58.7552 23.4774V25.1536H47.3929C47.6953 18.0489 47.7947 10.9442 47.3726 3.83951" fill="white"/>
<path d="M73.7443 25.1497H62.3902C62.7169 18.049 62.7859 10.9423 62.376 3.8335H73.6753V5.38594C73.0909 5.38594 72.5531 5.40015 72.0174 5.38391C69.8906 5.31897 67.7618 5.24592 65.6351 5.17286C65.3895 5.16474 65.2171 5.19112 65.2191 5.50973C65.2292 8.0119 65.2272 10.512 65.2313 13.0142C65.2313 13.0589 65.2536 13.1035 65.2921 13.2476C67.8085 13.1989 70.3432 13.1482 72.8697 13.0974V14.5768C70.3452 14.7168 67.7984 14.1851 65.1399 14.4956C65.2191 17.6371 65.2982 20.7602 65.3794 24.0132C68.2266 23.8468 70.9824 23.6865 73.7464 23.5262V25.1476L73.7443 25.1497Z" fill="white"/>
<path d="M11.551 23.4653C11.5226 24.0599 11.4942 24.6119 11.4678 25.1496H0C0.606772 18.0409 0.284107 10.9159 0.148142 3.82129H11.275C11.2324 4.34283 11.1877 4.86031 11.139 5.45896C10.3334 5.41026 9.55006 5.34329 8.76268 5.31894C6.93019 5.26009 5.09567 5.22559 3.26115 5.17283C2.98921 5.16471 2.87151 5.24994 2.86948 5.54014C2.84107 7.96317 2.80657 10.3882 2.75584 12.8113C2.74772 13.2049 2.94457 13.2293 3.24491 13.2232C5.46704 13.1806 7.68916 13.1441 9.91129 13.1075C10.0797 13.1055 10.2502 13.1075 10.4511 13.1075V14.6519C7.90427 14.7554 5.3676 14.2683 2.76396 14.5504C2.76396 15.285 2.74772 15.9791 2.76802 16.6711C2.83296 18.8749 2.90804 21.0808 2.98516 23.2847C3.00748 23.9219 3.01965 23.9503 3.64875 23.9158C6.1773 23.7819 8.70383 23.6276 11.2324 23.4795C11.3257 23.4734 11.4171 23.4693 11.553 23.4612" fill="white"/>
<path d="M14.4389 21.3548C14.9117 21.8642 15.3298 22.3634 15.7965 22.8099C17.1217 24.0782 18.6701 24.6931 20.5432 24.5003C22.6699 24.2811 24.545 22.3938 24.7175 20.261C24.8717 18.3798 24.131 16.9796 22.5035 16.0927C21.6086 15.6057 20.6243 15.2891 19.6969 14.8589C18.7127 14.4043 17.7041 13.9822 16.7848 13.4181C13.3532 11.3197 13.7023 6.44325 16.7584 4.37941C19.2342 2.70521 23.2949 2.71333 25.7159 4.43623C25.9818 4.62496 26.0629 4.78325 25.9189 5.112C25.6611 5.70254 25.4704 6.32555 25.2492 6.94855C24.9854 6.58327 24.7479 6.20784 24.4638 5.87097C22.747 3.8457 20.2002 3.82134 18.3129 5.01256C15.8878 6.54269 16.2207 10.4268 18.8933 11.7682C20.0419 12.3446 21.2575 12.787 22.4446 13.2862C22.9723 13.5094 23.5182 13.6981 24.0336 13.9477C26.8767 15.3175 27.6296 17.6817 26.7854 20.5106C26.1218 22.7368 24.5612 24.1979 22.4041 24.9468C19.5711 25.931 16.8437 25.7138 14.3293 23.9321C14.0675 23.7454 13.9782 23.5709 14.0635 23.2401C14.2218 22.6292 14.3171 22.0002 14.443 21.3508" fill="white"/>
<path d="M28.0249 5.52369V3.80078H44.3976C44.426 4.36494 44.4564 4.94736 44.4849 5.48513C42.2729 5.37961 40.0629 5.27408 37.8002 5.16653C37.5323 11.8999 37.3477 18.5216 37.7738 25.1799H34.7785C34.7684 25.1514 34.74 25.1088 34.742 25.0662C34.8151 21.0745 34.9206 17.0848 34.9551 13.0931C34.9774 10.6234 34.8861 8.15371 34.8678 5.68401C34.8638 5.26393 34.7339 5.16856 34.324 5.19088C32.5097 5.29032 30.6915 5.3512 28.8772 5.43237C28.5992 5.44455 28.3232 5.49122 28.0269 5.52572" fill="white"/>
<path d="M145.607 23.4512C147.61 23.7475 149.55 23.6886 151.49 23.6156C152.109 23.5932 152.738 23.5506 153.341 23.4207C156.09 22.8282 157.957 21.1073 159.061 18.6051C160.33 15.7295 160.232 12.7342 159.437 9.75112C158.706 7.01151 156.965 5.19728 154.181 4.58645C151.431 3.98374 148.647 4.22117 145.879 4.58848C145.55 4.63313 145.497 4.82389 145.495 5.10596C145.459 10.0778 145.4 15.0497 145.388 20.0216C145.384 21.1519 145.53 22.2802 145.609 23.4491L145.607 23.4512ZM142.664 24.7601C142.967 17.5904 142.904 10.4817 142.632 3.44394C143.403 3.44394 144.113 3.45814 144.824 3.44191C147.62 3.37697 150.416 3.26738 153.213 3.25318C154.23 3.24709 155.273 3.35262 156.259 3.59614C159.366 4.36728 161.312 6.48997 162.44 9.36554C164.532 14.6986 161.846 21.3711 156.744 23.6683C155.037 24.4374 153.211 24.6241 151.374 24.6566C149.075 24.6972 146.772 24.6647 144.472 24.6769C143.886 24.6789 143.299 24.7297 142.666 24.7601" fill="white"/>
<path d="M184.053 8.85204C184.053 10.1569 184.061 11.4618 184.047 12.7666C184.045 13.0304 184.114 13.1847 184.384 13.2111C186.5 13.418 188.568 13.3876 190.447 12.1639C191.943 11.1919 192.69 9.47301 192.371 7.59994C192.087 5.91964 190.939 4.80554 189.088 4.41996C187.491 4.08715 185.906 4.25965 184.323 4.53969C184.043 4.59043 184.047 4.77104 184.049 4.98412C184.053 6.27275 184.049 7.56138 184.049 8.85204H184.053ZM197 24.8554C195.848 24.8554 194.853 24.8696 193.859 24.8412C193.684 24.8371 193.463 24.6849 193.351 24.5348C192.367 23.2157 191.43 21.8601 190.425 20.5552C189.051 18.7714 187.6 17.0465 186.247 15.2465C185.679 14.4916 185.007 14.2501 183.998 14.3942C184.081 17.8136 184.165 21.2635 184.248 24.7174H181.21C181.539 17.6127 181.557 10.5059 181.216 3.34847C181.616 3.37688 181.981 3.43168 182.344 3.42153C184.347 3.36268 186.35 3.27745 188.353 3.22062C189.68 3.18207 190.985 3.3018 192.252 3.75434C195.77 5.00847 195.977 9.0915 194.121 11.1817C192.86 12.5982 191.229 13.3389 189.457 13.8462C189.12 13.9436 188.777 14.0268 188.38 14.1324C191.253 17.706 194.086 21.229 197 24.8554Z" fill="white"/>
<path d="M108.03 6.88957H107.807C106.607 9.51553 105.408 12.1435 104.184 14.8243H111.48C110.311 12.1334 109.17 9.51147 108.03 6.88957ZM118.84 24.7985H115.498C115.08 23.727 114.666 22.5946 114.201 21.4846C113.507 19.8266 112.774 18.1849 112.066 16.533C111.952 16.2692 111.782 16.1799 111.492 16.1799C109.02 16.19 106.548 16.1921 104.079 16.1799C103.754 16.1778 103.624 16.2976 103.515 16.5837C102.459 19.3639 101.388 22.14 100.322 24.9141C99.7196 24.8756 99.0033 24.8309 98.2524 24.7843C98.498 24.212 98.7456 23.6133 99.0114 23.0208C101.775 16.9003 104.543 10.7798 107.309 4.6573C107.52 4.19055 107.721 3.71974 107.924 3.25097C108.122 2.79233 108.463 2.58128 108.947 2.61781C112.255 10.033 115.551 17.4218 118.84 24.7985Z" fill="white"/>
<path d="M136.909 3.2876H138.892C138.892 3.40327 138.894 3.53924 138.892 3.67317C138.827 6.64006 138.776 9.60696 138.689 12.5738C138.638 14.311 138.618 16.0582 138.421 17.7811C137.936 22.0001 134.785 24.6565 130.947 25.0502C128.542 25.2958 126.188 25.1334 123.988 24.0416C121.912 23.0087 120.754 21.2838 120.466 18.9967C120.358 18.1363 120.334 17.2616 120.326 16.3931C120.295 13.4708 120.313 10.5506 120.265 7.62835C120.244 6.38843 120.1 5.15053 120.019 3.9106C120.005 3.69955 120.017 3.48444 120.017 3.29369H122.917C122.917 4.0486 122.919 4.83395 122.917 5.61931C122.901 9.41011 122.86 13.2009 122.876 16.9897C122.885 18.7735 123.353 20.4152 124.624 21.7708C126.042 23.2827 127.789 23.9219 129.817 23.8062C130.633 23.7596 131.463 23.6479 132.248 23.4308C134.878 22.7023 136.24 20.7845 136.755 18.2438C137.019 16.943 137.12 15.5894 137.116 14.2623C137.108 11.2974 136.982 8.3305 136.913 5.36564C136.897 4.68378 136.911 4.00192 136.911 3.2876" fill="white"/>
<path d="M166.168 3.21045C168.21 3.25104 170.186 3.3038 172.165 3.32612C173.734 3.34439 175.304 3.33018 176.875 3.33018H177.368C177.34 3.87607 177.315 4.36717 177.291 4.84001C174.547 4.74057 171.796 4.64113 169.042 4.54169C169.009 4.73245 168.985 4.80754 168.985 4.88262C168.969 7.28739 168.963 9.69215 168.934 12.0969C168.928 12.5515 169.097 12.6692 169.535 12.659C171.678 12.6063 173.823 12.5819 175.966 12.5495C176.151 12.5474 176.337 12.5495 176.565 12.5495V14.0796C174.044 14.0146 171.522 13.9497 169.05 13.8848C168.981 13.9943 168.95 14.0207 168.95 14.0451C168.971 16.1109 168.987 18.1748 169.019 20.2407C169.034 21.095 169.113 21.9473 169.111 22.8017C169.111 23.2765 169.35 23.3983 169.742 23.3861C170.876 23.3455 172.011 23.3212 173.141 23.24C174.594 23.1345 176.045 22.9782 177.531 22.8423C177.5 23.4003 177.468 23.9503 177.433 24.5794H166.16C166.631 17.4523 166.513 10.2786 166.168 3.21248" fill="white"/>
<path d="M85.2828 3.2793H88.4486C88.408 3.91448 88.3532 4.55778 88.3248 5.20108C88.2477 7.06401 88.1198 8.92491 88.1198 10.7878C88.1198 14.6862 88.1929 18.5866 88.2355 22.4849C88.2355 22.5783 88.2355 22.6716 88.2436 22.765C88.2903 23.3718 88.3633 23.4489 88.9782 23.4631C91.5758 23.528 94.1652 23.4266 96.7486 23.1343C96.8541 23.1222 96.9616 23.1343 97.1037 23.1343V24.7314H85.295C85.7982 17.58 85.7069 10.4307 85.2808 3.2793" fill="white"/>
<path d="M58.7128 0C58.7128 0.353105 58.7331 0.708239 58.6986 1.05728C58.6885 1.15063 58.514 1.29066 58.4064 1.29675C57.9742 1.32516 57.5379 1.30892 57.1015 1.30892C54.0271 1.30892 50.9506 1.30081 47.8762 1.31907C47.4561 1.3211 47.2714 1.2176 47.3222 0.779266C47.3506 0.535745 47.3262 0.286137 47.3262 0H58.7108L58.7128 0Z" fill="white"/>
</svg>
