<svg width="122" height="37" viewBox="0 0 122 37" fill="none" xmlns="http://www.w3.org/2000/svg">
<path d="M117.489 36.0943H4.6944C2.1678 36.0943 0.182617 34.1091 0.182617 31.5825V4.51178C0.182617 1.98518 2.1678 0 4.6944 0H117.489C120.016 0 122.001 1.98518 122.001 4.51178V31.5825C122.001 34.0188 120.016 36.0943 117.489 36.0943Z" fill="white"/>
<path d="M117.489 0.721885C119.564 0.721885 121.279 2.43636 121.279 4.51178V31.5825C121.279 33.6579 119.564 35.3724 117.489 35.3724H4.6944C2.61898 35.3724 0.904502 33.6579 0.904502 31.5825V4.51178C0.904502 2.43636 2.61898 0.721885 4.6944 0.721885H117.489ZM117.489 0H4.6944C2.1678 0 0.182617 1.98518 0.182617 4.51178V31.5825C0.182617 34.1091 2.1678 36.0943 4.6944 36.0943H117.489C120.016 36.0943 122.001 34.1091 122.001 31.5825V4.51178C122.001 2.07542 120.016 0 117.489 0Z" fill="#A6A6A6"/>
<path d="M42.0877 8.79906C42.0189 8.58864 41.9283 8.40009 41.8158 8.23342C41.7054 8.06466 41.5731 7.92091 41.4189 7.80215C41.2668 7.6834 41.0939 7.59277 40.9001 7.53027C40.7064 7.46777 40.4939 7.43652 40.2626 7.43652C39.8834 7.43652 39.5386 7.53444 39.2282 7.73028C38.9178 7.92612 38.6709 8.21467 38.4876 8.59593C38.3042 8.9772 38.2125 9.44492 38.2125 9.99911C38.2125 10.5533 38.3053 11.021 38.4907 11.4023C38.6761 11.7835 38.9272 12.0721 39.2438 12.2679C39.5605 12.4638 39.9168 12.5617 40.3126 12.5617C40.6793 12.5617 41.0022 12.4836 41.2814 12.3273C41.5627 12.169 41.7814 11.946 41.9377 11.6585C42.096 11.3689 42.1752 11.0283 42.1752 10.6366L42.4127 10.6866H40.4876V9.99911H42.9252V10.6866C42.9252 11.2137 42.8127 11.6721 42.5877 12.0617C42.3648 12.4513 42.0564 12.7534 41.6627 12.968C41.271 13.1805 40.821 13.2867 40.3126 13.2867C39.7459 13.2867 39.248 13.1534 38.8188 12.8867C38.3917 12.62 38.0584 12.2409 37.8188 11.7492C37.5813 11.2575 37.4625 10.6741 37.4625 9.99911C37.4625 9.49284 37.5302 9.03761 37.6657 8.63343C37.8032 8.22717 37.9969 7.88132 38.2469 7.5959C38.4969 7.31047 38.7928 7.09171 39.1345 6.93962C39.4761 6.78754 39.8522 6.71149 40.2626 6.71149C40.6001 6.71149 40.9147 6.76253 41.2064 6.86462C41.5002 6.96463 41.7616 7.10734 41.9908 7.29276C42.2221 7.4761 42.4148 7.6959 42.5689 7.95216C42.7231 8.20634 42.8294 8.48864 42.8877 8.79906H42.0877ZM44.2526 13.1992V6.79899H48.1152V7.48652H45.0276V9.64909H47.9152V10.3366H45.0276V12.5117H48.1652V13.1992H44.2526ZM49.1621 7.48652V6.79899H53.9623V7.48652H51.9497V13.1992H51.1747V7.48652H49.1621ZM58.4086 6.79899V13.1992H57.6335V6.79899H58.4086ZM59.6125 7.48652V6.79899H64.4127V7.48652H62.4001V13.1992H61.6251V7.48652H59.6125ZM73.4841 9.99911C73.4841 10.6741 73.3622 11.2575 73.1185 11.7492C72.8747 12.2409 72.5403 12.62 72.1153 12.8867C71.6903 13.1534 71.2048 13.2867 70.659 13.2867C70.1131 13.2867 69.6277 13.1534 69.2027 12.8867C68.7777 12.62 68.4433 12.2409 68.1995 11.7492C67.9558 11.2575 67.8339 10.6741 67.8339 9.99911C67.8339 9.32408 67.9558 8.74073 68.1995 8.24905C68.4433 7.75736 68.7777 7.37818 69.2027 7.11151C69.6277 6.84483 70.1131 6.71149 70.659 6.71149C71.2048 6.71149 71.6903 6.84483 72.1153 7.11151C72.5403 7.37818 72.8747 7.75736 73.1185 8.24905C73.3622 8.74073 73.4841 9.32408 73.4841 9.99911ZM72.7341 9.99911C72.7341 9.44492 72.6414 8.9772 72.4559 8.59593C72.2726 8.21467 72.0236 7.92612 71.709 7.73028C71.3965 7.53444 71.0465 7.43652 70.659 7.43652C70.2715 7.43652 69.9204 7.53444 69.6058 7.73028C69.2933 7.92612 69.0444 8.21467 68.8589 8.59593C68.6756 8.9772 68.5839 9.44492 68.5839 9.99911C68.5839 10.5533 68.6756 11.021 68.8589 11.4023C69.0444 11.7835 69.2933 12.0721 69.6058 12.2679C69.9204 12.4638 70.2715 12.5617 70.659 12.5617C71.0465 12.5617 71.3965 12.4638 71.709 12.2679C72.0236 12.0721 72.2726 11.7835 72.4559 11.4023C72.6414 11.021 72.7341 10.5533 72.7341 9.99911ZM79.8624 6.79899V13.1992H79.1124L75.6248 8.17404H75.5623V13.1992H74.7873V6.79899H75.5373L79.0374 11.8367H79.0999V6.79899H79.8624Z" fill="black"/>
<path d="M42.0877 8.79906L41.9879 8.83168L42.0115 8.90408H42.0877V8.79906ZM41.8158 8.23342L41.7279 8.29092L41.7288 8.29217L41.8158 8.23342ZM41.4189 7.80215L41.3543 7.88493L41.3548 7.88535L41.4189 7.80215ZM40.9001 7.53027L40.9324 7.43033H40.9324L40.9001 7.53027ZM38.4876 8.59593L38.5822 8.64144L38.4876 8.59593ZM38.4907 11.4023L38.3962 11.4482L38.4907 11.4023ZM39.2438 12.2679L39.1886 12.3573L39.2438 12.2679ZM41.2814 12.3273L41.3327 12.419L41.3329 12.4188L41.2814 12.3273ZM41.9377 11.6585L41.8455 11.6082L41.8454 11.6084L41.9377 11.6585ZM42.1752 10.6366L42.1968 10.5339L42.0702 10.5072V10.6366H42.1752ZM42.4127 10.6866V10.7916H43.4213L42.4343 10.5839L42.4127 10.6866ZM40.4876 10.6866H40.3826V10.7916H40.4876V10.6866ZM40.4876 9.99911V9.89409H40.3826V9.99911H40.4876ZM42.9252 9.99911H43.0302V9.89409H42.9252V9.99911ZM42.5877 12.0617L42.4968 12.0092L42.4965 12.0095L42.5877 12.0617ZM41.6627 12.968L41.7127 13.0603L41.7129 13.0602L41.6627 12.968ZM38.8188 12.8867L38.7632 12.9758L38.7634 12.9759L38.8188 12.8867ZM37.8188 11.7492L37.7242 11.7948L37.7244 11.7952L37.8188 11.7492ZM37.6657 8.63343L37.5662 8.59977L37.5661 8.60007L37.6657 8.63343ZM38.2469 7.5959L38.3259 7.66509L38.2469 7.5959ZM41.2064 6.86462L41.1717 6.96375L41.1726 6.96403L41.2064 6.86462ZM41.9908 7.29276L41.9247 7.37441L41.9256 7.37505L41.9908 7.29276ZM42.5689 7.95216L42.479 8.0063L42.4792 8.00662L42.5689 7.95216ZM42.8877 8.79906V8.90408H43.0143L42.9909 8.77967L42.8877 8.79906ZM42.1875 8.76645C42.116 8.54769 42.0213 8.35018 41.9028 8.17467L41.7288 8.29217C41.8353 8.45 41.9218 8.6296 41.9879 8.83168L42.1875 8.76645ZM41.9037 8.17592C41.7871 7.99769 41.6468 7.84515 41.483 7.71896L41.3548 7.88535C41.4993 7.99667 41.6237 8.13164 41.7279 8.29092L41.9037 8.17592ZM41.4835 7.71938C41.3212 7.59264 41.1372 7.4964 40.9324 7.43033L40.8679 7.63021C41.0506 7.68915 41.2124 7.77416 41.3543 7.88493L41.4835 7.71938ZM40.9324 7.43033C40.7269 7.36404 40.5034 7.3315 40.2626 7.3315V7.54153C40.4844 7.54153 40.6859 7.57149 40.8679 7.63021L40.9324 7.43033ZM40.2626 7.3315C39.8643 7.3315 39.4999 7.43467 39.1722 7.64146L39.2842 7.81909C39.5773 7.6342 39.9026 7.54153 40.2626 7.54153V7.3315ZM39.1722 7.64146C38.8426 7.84935 38.5835 8.15415 38.3929 8.55042L38.5822 8.64144C38.7583 8.27519 38.9929 8.00288 39.2842 7.81909L39.1722 7.64146ZM38.3929 8.55042C38.201 8.94958 38.1075 9.43385 38.1075 9.99911H38.3176C38.3176 9.45599 38.4075 9.00482 38.5822 8.64144L38.3929 8.55042ZM38.1075 9.99911C38.1075 10.5645 38.2021 11.0489 38.3962 11.4482L38.5851 11.3564C38.4085 10.9931 38.3176 10.5421 38.3176 9.99911H38.1075ZM38.3962 11.4482C38.5891 11.8448 38.8528 12.1496 39.1886 12.3573L39.2991 12.1786C39.0016 11.9946 38.7631 11.7223 38.5851 11.3564L38.3962 11.4482ZM39.1886 12.3573C39.5229 12.564 39.8985 12.6667 40.3126 12.6667V12.4567C39.935 12.4567 39.5981 12.3635 39.2991 12.1786L39.1886 12.3573ZM40.3126 12.6667C40.6946 12.6667 41.0357 12.5852 41.3327 12.419L41.2301 12.2357C40.9688 12.3819 40.664 12.4567 40.3126 12.4567V12.6667ZM41.3329 12.4188C41.6316 12.2507 41.8644 12.0133 42.0299 11.7087L41.8454 11.6084C41.6984 11.8788 41.4937 12.0873 41.2299 12.2358L41.3329 12.4188ZM42.0298 11.7089C42.1981 11.4012 42.2802 11.0426 42.2802 10.6366H42.0702C42.0702 11.014 41.994 11.3367 41.8455 11.6082L42.0298 11.7089ZM42.1535 10.7394L42.3911 10.7894L42.4343 10.5839L42.1968 10.5339L42.1535 10.7394ZM42.4127 10.5816H40.4876V10.7916H42.4127V10.5816ZM40.5926 10.6866V9.99911H40.3826V10.6866H40.5926ZM40.4876 10.1041H42.9252V9.89409H40.4876V10.1041ZM42.8202 9.99911V10.6866H43.0302V9.99911H42.8202ZM42.8202 10.6866C42.8202 11.1985 42.7111 11.6381 42.4968 12.0092L42.6786 12.1142C42.9143 11.7061 43.0302 11.229 43.0302 10.6866H42.8202ZM42.4965 12.0095C42.2833 12.3823 41.9891 12.6705 41.6124 12.8757L41.7129 13.0602C42.1238 12.8363 42.4463 12.5203 42.6788 12.1138L42.4965 12.0095ZM41.6126 12.8757C41.2383 13.0787 40.806 13.1817 40.3126 13.1817V13.3917C40.836 13.3917 41.3036 13.2822 41.7127 13.0603L41.6126 12.8757ZM40.3126 13.1817C39.7631 13.1817 39.2848 13.0526 38.8742 12.7975L38.7634 12.9759C39.2112 13.2541 39.7288 13.3917 40.3126 13.3917V13.1817ZM38.8744 12.7976C38.4655 12.5423 38.1449 12.1787 37.9132 11.7032L37.7244 11.7952C37.9718 12.303 38.3179 12.6978 38.7632 12.9758L38.8744 12.7976ZM37.9133 11.7035C37.6841 11.229 37.5675 10.662 37.5675 9.99911H37.3575C37.3575 10.6863 37.4784 11.286 37.7242 11.7948L37.9133 11.7035ZM37.5675 9.99911C37.5675 9.50211 37.634 9.05842 37.7652 8.6668L37.5661 8.60007C37.4264 9.01681 37.3575 9.48357 37.3575 9.99911H37.5675ZM37.7651 8.6671C37.8988 8.27221 38.0861 7.93887 38.3259 7.66509L38.1679 7.5267C37.9077 7.82378 37.7075 8.18213 37.5662 8.59977L37.7651 8.6671ZM38.3259 7.66509C38.5661 7.39093 38.8496 7.18138 39.1772 7.03556L39.0917 6.84368C38.736 7.00205 38.4278 7.23001 38.1679 7.5267L38.3259 7.66509ZM39.1772 7.03556C39.5041 6.89002 39.8655 6.81651 40.2626 6.81651V6.60648C39.8389 6.60648 39.4481 6.68505 39.0917 6.84368L39.1772 7.03556ZM40.2626 6.81651C40.5894 6.81651 40.8922 6.8659 41.1717 6.96374L41.2411 6.7655C40.9373 6.65917 40.6109 6.60648 40.2626 6.60648V6.81651ZM41.1726 6.96403C41.4552 7.06027 41.7057 7.19715 41.9247 7.3744L42.0569 7.21112C41.8176 7.01752 41.5451 6.86898 41.2402 6.76521L41.1726 6.96403ZM41.9256 7.37505C42.1468 7.55046 42.3312 7.76068 42.479 8.0063L42.6589 7.89802C42.4984 7.63112 42.2973 7.40174 42.056 7.21047L41.9256 7.37505ZM42.4792 8.00662C42.6264 8.24935 42.7283 8.51965 42.7845 8.81846L42.9909 8.77967C42.9304 8.45762 42.8199 8.16332 42.6587 7.8977L42.4792 8.00662ZM42.8877 8.69405H42.0877V8.90408H42.8877V8.69405ZM44.2526 13.1992H44.1476V13.3042H44.2526V13.1992ZM44.2526 6.79899V6.69398H44.1476V6.79899H44.2526ZM48.1152 6.79899H48.2203V6.69398H48.1152V6.79899ZM48.1152 7.48652V7.59153H48.2203V7.48652H48.1152ZM45.0276 7.48652V7.3815H44.9226V7.48652H45.0276ZM45.0276 9.64909H44.9226V9.75411H45.0276V9.64909ZM47.9152 9.64909H48.0202V9.54408H47.9152V9.64909ZM47.9152 10.3366V10.4416H48.0202V10.3366H47.9152ZM45.0276 10.3366V10.2316H44.9226V10.3366H45.0276ZM45.0276 12.5117H44.9226V12.6167H45.0276V12.5117ZM48.1652 12.5117H48.2703V12.4067H48.1652V12.5117ZM48.1652 13.1992V13.3042H48.2703V13.1992H48.1652ZM44.3576 13.1992V6.79899H44.1476V13.1992H44.3576ZM44.2526 6.90401H48.1152V6.69398H44.2526V6.90401ZM48.0102 6.79899V7.48652H48.2203V6.79899H48.0102ZM48.1152 7.3815H45.0276V7.59153H48.1152V7.3815ZM44.9226 7.48652V9.64909H45.1326V7.48652H44.9226ZM45.0276 9.75411H47.9152V9.54408H45.0276V9.75411ZM47.8102 9.64909V10.3366H48.0202V9.64909H47.8102ZM47.9152 10.2316H45.0276V10.4416H47.9152V10.2316ZM44.9226 10.3366V12.5117H45.1326V10.3366H44.9226ZM45.0276 12.6167H48.1652V12.4067H45.0276V12.6167ZM48.0602 12.5117V13.1992H48.2703V12.5117H48.0602ZM48.1652 13.0942H44.2526V13.3042H48.1652V13.0942ZM49.1621 7.48652H49.0571V7.59153H49.1621V7.48652ZM49.1621 6.79899V6.69398H49.0571V6.79899H49.1621ZM53.9623 6.79899H54.0673V6.69398H53.9623V6.79899ZM53.9623 7.48652V7.59153H54.0673V7.48652H53.9623ZM51.9497 7.48652V7.3815H51.8447V7.48652H51.9497ZM51.9497 13.1992V13.3042H52.0548V13.1992H51.9497ZM51.1747 13.1992H51.0697V13.3042H51.1747V13.1992ZM51.1747 7.48652H51.2797V7.3815H51.1747V7.48652ZM49.2672 7.48652V6.79899H49.0571V7.48652H49.2672ZM49.1621 6.90401H53.9623V6.69398H49.1621V6.90401ZM53.8573 6.79899V7.48652H54.0673V6.79899H53.8573ZM53.9623 7.3815H51.9497V7.59153H53.9623V7.3815ZM51.8447 7.48652V13.1992H52.0548V7.48652H51.8447ZM51.9497 13.0942H51.1747V13.3042H51.9497V13.0942ZM51.2797 13.1992V7.48652H51.0697V13.1992H51.2797ZM51.1747 7.3815H49.1621V7.59153H51.1747V7.3815ZM58.4086 6.79899H58.5136V6.69398H58.4086V6.79899ZM58.4086 13.1992V13.3042H58.5136V13.1992H58.4086ZM57.6335 13.1992H57.5285V13.3042H57.6335V13.1992ZM57.6335 6.79899V6.69398H57.5285V6.79899H57.6335ZM58.3035 6.79899V13.1992H58.5136V6.79899H58.3035ZM58.4086 13.0942H57.6335V13.3042H58.4086V13.0942ZM57.7386 13.1992V6.79899H57.5285V13.1992H57.7386ZM57.6335 6.90401H58.4086V6.69398H57.6335V6.90401ZM59.6125 7.48652H59.5075V7.59153H59.6125V7.48652ZM59.6125 6.79899V6.69398H59.5075V6.79899H59.6125ZM64.4127 6.79899H64.5177V6.69398H64.4127V6.79899ZM64.4127 7.48652V7.59153H64.5177V7.48652H64.4127ZM62.4001 7.48652V7.3815H62.2951V7.48652H62.4001ZM62.4001 13.1992V13.3042H62.5051V13.1992H62.4001ZM61.6251 13.1992H61.5201V13.3042H61.6251V13.1992ZM61.6251 7.48652H61.7301V7.3815H61.6251V7.48652ZM59.7175 7.48652V6.79899H59.5075V7.48652H59.7175ZM59.6125 6.90401H64.4127V6.69398H59.6125V6.90401ZM64.3077 6.79899V7.48652H64.5177V6.79899H64.3077ZM64.4127 7.3815H62.4001V7.59153H64.4127V7.3815ZM62.2951 7.48652V13.1992H62.5051V7.48652H62.2951ZM62.4001 13.0942H61.6251V13.3042H62.4001V13.0942ZM61.7301 13.1992V7.48652H61.5201V13.1992H61.7301ZM61.6251 7.3815H59.6125V7.59153H61.6251V7.3815ZM73.1185 11.7492L73.0244 11.7025L73.1185 11.7492ZM72.1153 12.8867L72.1711 12.9757L72.1153 12.8867ZM69.2027 12.8867L69.1469 12.9757L69.2027 12.8867ZM68.1995 11.7492L68.2936 11.7025L68.1995 11.7492ZM68.1995 8.24905L68.1054 8.2024L68.1995 8.24905ZM72.1153 7.11151L72.1711 7.02255L72.1153 7.11151ZM73.1185 8.24905L73.0244 8.29569L73.1185 8.24905ZM72.4559 8.59593L72.3613 8.64144L72.3615 8.64186L72.4559 8.59593ZM71.709 7.73028L71.6533 7.81926L71.6535 7.81943L71.709 7.73028ZM69.6058 7.73028L69.5503 7.64112L69.5501 7.64129L69.6058 7.73028ZM68.8589 8.59593L68.7645 8.55L68.7643 8.55042L68.8589 8.59593ZM68.8589 11.4023L68.7643 11.4478L68.7645 11.4482L68.8589 11.4023ZM69.6058 12.2679L69.5501 12.3569L69.5503 12.3571L69.6058 12.2679ZM71.709 12.2679L71.6535 12.1788L71.6533 12.1789L71.709 12.2679ZM72.4559 11.4023L72.3615 11.3564L72.3613 11.3568L72.4559 11.4023ZM73.3791 9.99911C73.3791 10.6616 73.2595 11.2283 73.0244 11.7025L73.2125 11.7958C73.465 11.2867 73.5891 10.6867 73.5891 9.99911H73.3791ZM73.0244 11.7025C72.7884 12.1785 72.4666 12.5423 72.0595 12.7978L72.1711 12.9757C72.6141 12.6977 72.961 12.3032 73.2125 11.7958L73.0244 11.7025ZM72.0595 12.7978C71.6527 13.053 71.1869 13.1817 70.659 13.1817V13.3917C71.2228 13.3917 71.7279 13.2538 72.1711 12.9757L72.0595 12.7978ZM70.659 13.1817C70.1311 13.1817 69.6653 13.053 69.2585 12.7978L69.1469 12.9757C69.5901 13.2538 70.0952 13.3917 70.659 13.3917V13.1817ZM69.2585 12.7978C68.8514 12.5423 68.5296 12.1785 68.2936 11.7025L68.1054 11.7958C68.357 12.3032 68.7039 12.6977 69.1469 12.9757L69.2585 12.7978ZM68.2936 11.7025C68.0585 11.2283 67.9389 10.6616 67.9389 9.99911H67.7289C67.7289 10.6867 67.853 11.2867 68.1054 11.7958L68.2936 11.7025ZM67.9389 9.99911C67.9389 9.33661 68.0585 8.76992 68.2936 8.29569L68.1054 8.2024C67.853 8.71153 67.7289 9.31155 67.7289 9.99911H67.9389ZM68.2936 8.29569C68.5296 7.81969 68.8514 7.45588 69.2585 7.20046L69.1469 7.02255C68.7039 7.30048 68.357 7.69504 68.1054 8.2024L68.2936 8.29569ZM69.2585 7.20046C69.6653 6.9452 70.1311 6.81651 70.659 6.81651V6.60648C70.0952 6.60648 69.5901 6.74446 69.1469 7.02255L69.2585 7.20046ZM70.659 6.81651C71.1869 6.81651 71.6527 6.9452 72.0595 7.20046L72.1711 7.02255C71.7279 6.74446 71.2228 6.60648 70.659 6.60648V6.81651ZM72.0595 7.20046C72.4666 7.45588 72.7884 7.81969 73.0244 8.29569L73.2125 8.2024C72.961 7.69504 72.6141 7.30048 72.1711 7.02255L72.0595 7.20046ZM73.0244 8.29569C73.2595 8.76992 73.3791 9.33661 73.3791 9.99911H73.5891C73.5891 9.31155 73.465 8.71153 73.2125 8.2024L73.0244 8.29569ZM72.8391 9.99911C72.8391 9.4337 72.7446 8.94927 72.5504 8.55L72.3615 8.64186C72.5382 9.00512 72.6291 9.45614 72.6291 9.99911H72.8391ZM72.5506 8.55042C72.3598 8.1538 72.0984 7.84893 71.7645 7.64112L71.6535 7.81943C71.9489 8.0033 72.1853 8.27554 72.3613 8.64144L72.5506 8.55042ZM71.7648 7.64129C71.4347 7.43443 71.0652 7.3315 70.659 7.3315V7.54153C71.0278 7.54153 71.3583 7.63444 71.6533 7.81926L71.7648 7.64129ZM70.659 7.3315C70.2528 7.3315 69.8824 7.43443 69.5503 7.64112L69.6613 7.81943C69.9585 7.63444 70.2902 7.54153 70.659 7.54153V7.3315ZM69.5501 7.64129C69.2185 7.84907 68.9572 8.15375 68.7645 8.55L68.9534 8.64186C69.1315 8.27559 69.3681 8.00317 69.6616 7.81926L69.5501 7.64129ZM68.7643 8.55042C68.5723 8.94958 68.4789 9.43385 68.4789 9.99911H68.6889C68.6889 9.45599 68.7788 9.00482 68.9536 8.64144L68.7643 8.55042ZM68.4789 9.99911C68.4789 10.5644 68.5723 11.0486 68.7643 11.4478L68.9536 11.3568C68.7788 10.9934 68.6889 10.5422 68.6889 9.99911H68.4789ZM68.7645 11.4482C68.9572 11.8445 69.2185 12.1491 69.5501 12.3569L69.6616 12.1789C69.3681 11.995 69.1315 11.7226 68.9534 11.3564L68.7645 11.4482ZM69.5503 12.3571C69.8824 12.5638 70.2528 12.6667 70.659 12.6667V12.4567C70.2902 12.4567 69.9585 12.3638 69.6613 12.1788L69.5503 12.3571ZM70.659 12.6667C71.0652 12.6667 71.4347 12.5638 71.7648 12.3569L71.6533 12.1789C71.3583 12.3638 71.0278 12.4567 70.659 12.4567V12.6667ZM71.7645 12.3571C72.0984 12.1493 72.3598 11.8444 72.5506 11.4478L72.3613 11.3568C72.1853 11.7227 71.9489 11.9949 71.6535 12.1788L71.7645 12.3571ZM72.5504 11.4482C72.7446 11.0489 72.8391 10.5645 72.8391 9.99911H72.6291C72.6291 10.5421 72.5382 10.9931 72.3615 11.3564L72.5504 11.4482ZM79.8624 6.79899H79.9675V6.69398H79.8624V6.79899ZM79.8624 13.1992V13.3042H79.9675V13.1992H79.8624ZM79.1124 13.1992L79.0261 13.2591L79.0575 13.3042H79.1124V13.1992ZM75.6248 8.17404L75.7111 8.11417L75.6797 8.06903H75.6248V8.17404ZM75.5623 8.17404V8.06903H75.4573V8.17404H75.5623ZM75.5623 13.1992V13.3042H75.6673V13.1992H75.5623ZM74.7873 13.1992H74.6823V13.3042H74.7873V13.1992ZM74.7873 6.79899V6.69398H74.6823V6.79899H74.7873ZM75.5373 6.79899L75.6235 6.73907L75.5922 6.69398H75.5373V6.79899ZM79.0374 11.8367L78.9512 11.8966L78.9825 11.9417H79.0374V11.8367ZM79.0999 11.8367V11.9417H79.2049V11.8367H79.0999ZM79.0999 6.79899V6.69398H78.9949V6.79899H79.0999ZM79.7574 6.79899V13.1992H79.9675V6.79899H79.7574ZM79.8624 13.0942H79.1124V13.3042H79.8624V13.0942ZM79.1987 13.1393L75.7111 8.11417L75.5385 8.23392L79.0261 13.2591L79.1987 13.1393ZM75.6248 8.06903H75.5623V8.27906H75.6248V8.06903ZM75.4573 8.17404V13.1992H75.6673V8.17404H75.4573ZM75.5623 13.0942H74.7873V13.3042H75.5623V13.0942ZM74.8923 13.1992V6.79899H74.6823V13.1992H74.8923ZM74.7873 6.90401H75.5373V6.69398H74.7873V6.90401ZM75.451 6.85891L78.9512 11.8966L79.1237 11.7768L75.6235 6.73907L75.451 6.85891ZM79.0374 11.9417H79.0999V11.7317H79.0374V11.9417ZM79.2049 11.8367V6.79899H78.9949V11.8367H79.2049ZM79.0999 6.90401H79.8624V6.69398H79.0999V6.90401Z" fill="white"/>
<path d="M61.6322 19.6708C59.4665 19.6708 57.7521 21.295 57.7521 23.5509C57.7521 25.7165 59.4665 27.431 61.6322 27.431C63.7978 27.431 65.5123 25.8068 65.5123 23.5509C65.5123 21.2048 63.7978 19.6708 61.6322 19.6708ZM61.6322 25.8068C60.4591 25.8068 59.4665 24.8142 59.4665 23.4607C59.4665 22.1071 60.4591 21.1145 61.6322 21.1145C62.8052 21.1145 63.7978 22.0169 63.7978 23.4607C63.7978 24.8142 62.8052 25.8068 61.6322 25.8068ZM53.2403 19.6708C51.0746 19.6708 49.3601 21.295 49.3601 23.5509C49.3601 25.7165 51.0746 27.431 53.2403 27.431C55.4059 27.431 57.1204 25.8068 57.1204 23.5509C57.1204 21.2048 55.4059 19.6708 53.2403 19.6708ZM53.2403 25.8068C52.0672 25.8068 51.0746 24.8142 51.0746 23.4607C51.0746 22.1071 52.0672 21.1145 53.2403 21.1145C54.4133 21.1145 55.4059 22.0169 55.4059 23.4607C55.4059 24.8142 54.4133 25.8068 53.2403 25.8068ZM43.2241 20.8438V22.4681H47.1042C47.014 23.3704 46.6531 24.0923 46.2019 24.5435C45.6605 25.0849 44.7581 25.7165 43.2241 25.7165C40.7877 25.7165 38.983 23.8216 38.983 21.3852C38.983 18.9489 40.878 17.0539 43.2241 17.0539C44.4874 17.0539 45.48 17.5953 46.2019 18.227L47.3749 17.0539C46.3824 16.1516 45.1191 15.4297 43.3143 15.4297C40.0659 15.4297 37.2686 18.1368 37.2686 21.3852C37.2686 24.6337 40.0659 27.3408 43.3143 27.3408C45.1191 27.3408 46.3824 26.7994 47.4652 25.6263C48.548 24.5435 48.909 23.0095 48.909 21.8364C48.909 21.4755 48.909 21.1145 48.8187 20.8438H43.2241ZM84.1911 22.1071C83.8301 21.2048 82.9278 19.6708 80.9426 19.6708C78.9574 19.6708 77.3332 21.2048 77.3332 23.5509C77.3332 25.7165 78.9574 27.431 81.1231 27.431C82.8376 27.431 83.9204 26.3482 84.2813 25.7165L83.018 24.8142C82.5669 25.4458 82.0254 25.897 81.1231 25.897C80.2207 25.897 79.6793 25.5361 79.2281 24.724L84.3716 22.5583L84.1911 22.1071ZM78.9574 23.3704C78.9574 21.9267 80.1305 21.1145 80.9426 21.1145C81.5743 21.1145 82.2059 21.4755 82.3864 21.9267L78.9574 23.3704ZM74.7163 27.0701H76.4308V15.7906H74.7163V27.0701ZM72.0093 20.4829C71.5581 20.0317 70.8362 19.5805 69.9339 19.5805C68.0389 19.5805 66.2342 21.295 66.2342 23.4607C66.2342 25.6263 67.9487 27.2506 69.9339 27.2506C70.8362 27.2506 71.5581 26.7994 71.919 26.3482H72.0093V26.8896C72.0093 28.3334 71.1972 29.1455 69.9339 29.1455C68.9413 29.1455 68.2194 28.4236 68.0389 27.792L66.5951 28.4236C67.0463 29.4162 68.1291 30.6795 70.0241 30.6795C72.0093 30.6795 73.6335 29.5064 73.6335 26.7091V19.8512H72.0093V20.4829ZM70.0241 25.8068C68.851 25.8068 67.8584 24.8142 67.8584 23.4607C67.8584 22.1071 68.851 21.1145 70.0241 21.1145C71.1972 21.1145 72.0995 22.1071 72.0995 23.4607C72.0995 24.8142 71.1972 25.8068 70.0241 25.8068ZM92.0416 15.7906H87.981V27.0701H89.6955V22.829H92.0416C93.9365 22.829 95.7413 21.4755 95.7413 19.3098C95.7413 17.1442 93.9365 15.7906 92.0416 15.7906ZM92.1318 21.2048H89.6955V17.3246H92.1318C93.3951 17.3246 94.117 18.4075 94.117 19.2196C94.0268 20.2122 93.3049 21.2048 92.1318 21.2048ZM102.509 19.5805C101.246 19.5805 99.9823 20.1219 99.5312 21.295L101.065 21.9267C101.426 21.295 101.968 21.1145 102.599 21.1145C103.502 21.1145 104.314 21.6559 104.404 22.5583V22.6485C104.133 22.4681 103.411 22.1974 102.689 22.1974C101.065 22.1974 99.4409 23.0997 99.4409 24.724C99.4409 26.258 100.794 27.2506 102.238 27.2506C103.411 27.2506 103.953 26.7091 104.404 26.1677H104.494V27.0701H106.118V22.7388C105.938 20.7536 104.404 19.5805 102.509 19.5805ZM102.328 25.8068C101.787 25.8068 100.975 25.5361 100.975 24.8142C100.975 23.9118 101.968 23.6411 102.78 23.6411C103.502 23.6411 103.862 23.8216 104.314 24.0021C104.133 25.0849 103.231 25.8068 102.328 25.8068ZM111.803 19.8512L109.908 24.724H109.818L107.833 19.8512H106.028L109.006 26.7091L107.291 30.499H109.006L113.608 19.8512H111.803ZM96.6436 27.0701H98.3581V15.7906H96.6436V27.0701Z" fill="black"/>
<path d="M18.8609 17.5039L9.2959 27.7005C9.56661 28.7834 10.5592 29.5955 11.8225 29.5955C12.2737 29.5955 12.7249 29.5052 13.176 29.2345L24.0043 23.0083L18.8609 17.5039Z" fill="#EA4335"/>
<path d="M28.6056 15.7891L23.9134 13.082L18.6797 17.7743L23.9134 23.008L28.5154 20.3009C29.3275 19.8497 29.8689 19.0376 29.8689 18.045C29.9591 17.0524 29.4177 16.2403 28.6056 15.7891Z" fill="#FBBC04"/>
<path d="M9.29531 8.39062C9.20508 8.5711 9.20508 8.8418 9.20508 9.02228V27.0694C9.20508 27.3401 9.20508 27.5206 9.29531 27.7011L19.2212 17.7751L9.29531 8.39062Z" fill="#4285F4"/>
<path d="M18.9505 18.0463L23.9135 13.0833L13.0852 6.85704C12.7243 6.58633 12.2731 6.49609 11.7317 6.49609C10.5586 6.49609 9.47579 7.30821 9.20508 8.39104L18.9505 18.0463Z" fill="#34A853"/>
</svg>
