<svg width="125" height="36" viewBox="0 0 125 36" fill="none" xmlns="http://www.w3.org/2000/svg">
<path d="M120 0.721127C122.137 0.721127 123.876 2.4165 123.876 4.5V31.5C123.876 33.5835 122.137 35.2789 120 35.2789H4.61538C2.47846 35.2789 0.739615 33.5835 0.739615 31.5V4.5C0.739615 2.4165 2.47846 0.721127 4.61538 0.721127H120ZM120 3.33786e-06H4.61538C2.07808 3.33786e-06 0 2.02613 0 4.5V31.5C0 33.9739 2.07808 36 4.61538 36H120C122.537 36 124.615 33.9739 124.615 31.5V4.5C124.615 2.02613 122.537 3.33786e-06 120 3.33786e-06Z" fill="black"/>
<path d="M8.93979 6.78483C8.66864 7.06158 8.51172 7.49246 8.51172 8.05046V27.954C8.51172 28.512 8.66864 28.9428 8.93979 29.2196L9.00672 29.2803L20.4459 18.1316V17.8683L9.00672 6.71959L8.93979 6.78483Z" fill="black"/>
<path d="M25.6394 21.8497L21.8306 18.1316V17.8684L25.644 14.1502L25.7294 14.1986L30.2456 16.704C31.5344 17.415 31.5344 18.585 30.2456 19.3005L25.7294 21.8014L25.6394 21.8497Z" fill="black"/>
<path d="M25.0373 22.4937L21.1385 18.6923L9.63232 29.9119C10.0604 30.3507 10.7585 30.4035 11.5523 29.9648L25.0373 22.4937Z" fill="black"/>
<path d="M25.0373 13.5063L11.5523 6.03518C10.7585 5.60093 10.0604 5.65381 9.63232 6.09256L21.1385 17.3077L25.0373 13.5063Z" fill="black"/>
<path d="M43.7698 9.21934C43.7698 9.97084 43.5391 10.5727 43.0845 11.0216C42.5618 11.5537 41.881 11.8215 41.0468 11.8215C40.2495 11.8215 39.5687 11.5492 39.0102 11.0126C38.4506 10.4681 38.1714 9.79984 38.1714 8.99997C38.1714 8.20009 38.4506 7.53184 39.0102 6.99184C39.5687 6.45072 40.2495 6.17847 41.0468 6.17847C41.4437 6.17847 41.8222 6.25834 42.1833 6.40684C42.5433 6.55647 42.8364 6.75897 43.0487 7.00872L42.5664 7.48347C42.196 7.05709 41.6918 6.84672 41.0468 6.84672C40.4652 6.84672 39.961 7.04472 39.5329 7.44409C39.1095 7.84459 38.8972 8.36322 38.8972 8.99997C38.8972 9.63672 39.1095 10.1598 39.5329 10.5603C39.961 10.9552 40.4652 11.1577 41.0468 11.1577C41.6641 11.1577 42.1833 10.9552 42.5929 10.5558C42.8629 10.2915 43.0164 9.92697 43.0568 9.46122H41.0468V8.81097H43.7283C43.7606 8.95159 43.7698 9.08772 43.7698 9.21934Z" fill="black" stroke="black" stroke-width="0.16" stroke-miterlimit="10"/>
<path d="M48.0239 6.96487H45.5051V8.67487H47.7758V9.32512H45.5051V11.0351H48.0239V11.6977H44.792V6.30225H48.0239V6.96487Z" fill="black" stroke="black" stroke-width="0.16" stroke-miterlimit="10"/>
<path d="M51.0261 11.6977H50.3131V6.96487H48.7681V6.30225H52.5723V6.96487H51.0261V11.6977Z" fill="black" stroke="black" stroke-width="0.16" stroke-miterlimit="10"/>
<path d="M55.3257 11.6977V6.30225H56.0376V11.6977H55.3257Z" fill="black" stroke="black" stroke-width="0.16" stroke-miterlimit="10"/>
<path d="M59.1931 11.6977H58.4858V6.96487H56.9351V6.30225H60.7439V6.96487H59.1931V11.6977Z" fill="black" stroke="black" stroke-width="0.16" stroke-miterlimit="10"/>
<path d="M67.9462 11.0036C67.4004 11.5492 66.7242 11.8215 65.9177 11.8215C65.1065 11.8215 64.4304 11.5492 63.8846 11.0036C63.34 10.4591 63.0688 9.79084 63.0688 8.99997C63.0688 8.20909 63.34 7.54084 63.8846 6.99634C64.4304 6.45072 65.1065 6.17847 65.9177 6.17847C66.7196 6.17847 67.3958 6.45072 67.9415 7.00084C68.4908 7.54984 68.7619 8.21359 68.7619 8.99997C68.7619 9.79084 68.4908 10.4591 67.9462 11.0036ZM64.4119 10.5513C64.8227 10.9552 65.3223 11.1577 65.9177 11.1577C66.5085 11.1577 67.0127 10.9552 67.4188 10.5513C67.8285 10.1475 68.0362 9.62884 68.0362 8.99997C68.0362 8.37109 67.8285 7.85247 67.4188 7.44859C67.0127 7.04472 66.5085 6.84222 65.9177 6.84222C65.3223 6.84222 64.8227 7.04472 64.4119 7.44859C64.0023 7.85247 63.7946 8.37109 63.7946 8.99997C63.7946 9.62884 64.0023 10.1475 64.4119 10.5513Z" fill="black" stroke="black" stroke-width="0.16" stroke-miterlimit="10"/>
<path d="M69.7627 11.6977V6.30225H70.6281L73.3189 10.4985H73.35L73.3189 9.46124V6.30225H74.0308V11.6977H73.2877L70.47 7.2945H70.4388L70.47 8.33624V11.6977H69.7627Z" fill="black" stroke="black" stroke-width="0.16" stroke-miterlimit="10"/>
<path d="M62.8941 19.5772C60.726 19.5772 58.9548 21.186 58.9548 23.4056C58.9548 25.6072 60.726 27.2329 62.8941 27.2329C65.0667 27.2329 66.8379 25.6072 66.8379 23.4056C66.8379 21.186 65.0667 19.5772 62.8941 19.5772ZM62.8941 25.7254C61.7044 25.7254 60.681 24.768 60.681 23.4056C60.681 22.0252 61.7044 21.0847 62.8941 21.0847C64.0837 21.0847 65.1117 22.0252 65.1117 23.4056C65.1117 24.768 64.0837 25.7254 62.8941 25.7254ZM54.2991 19.5772C52.1264 19.5772 50.3598 21.186 50.3598 23.4056C50.3598 25.6072 52.1264 27.2329 54.2991 27.2329C56.4706 27.2329 58.2383 25.6072 58.2383 23.4056C58.2383 21.186 56.4706 19.5772 54.2991 19.5772ZM54.2991 25.7254C53.1083 25.7254 52.0814 24.768 52.0814 23.4056C52.0814 22.0252 53.1083 21.0847 54.2991 21.0847C55.4887 21.0847 56.5121 22.0252 56.5121 23.4056C56.5121 24.768 55.4887 25.7254 54.2991 25.7254ZM44.0714 20.7506V22.3774H48.0556C47.9391 23.2864 47.6275 23.9546 47.1498 24.4204C46.5683 24.9829 45.6625 25.6072 44.0714 25.6072C41.6195 25.6072 39.6995 23.6779 39.6995 21.2872C39.6995 18.8966 41.6195 16.9672 44.0714 16.9672C45.3971 16.9672 46.3618 17.4724 47.0737 18.1271L48.2495 16.9807C47.2537 16.0537 45.9291 15.3416 44.0714 15.3416C40.7091 15.3416 37.8833 18.009 37.8833 21.2872C37.8833 24.5655 40.7091 27.2329 44.0714 27.2329C45.8887 27.2329 47.2537 26.6524 48.3268 25.5634C49.4264 24.4912 49.7691 22.9837 49.7691 21.7665C49.7691 21.3885 49.7368 21.0409 49.6791 20.7506H44.0714ZM85.8937 22.0117C85.5694 21.1556 84.569 19.5772 82.5314 19.5772C80.5121 19.5772 78.831 21.1286 78.831 23.4056C78.831 25.5499 80.4948 27.2329 82.7252 27.2329C84.5287 27.2329 85.5694 26.1607 85.9975 25.5364L84.659 24.6667C84.2125 25.3035 83.6044 25.7254 82.7252 25.7254C81.8517 25.7254 81.2252 25.335 80.8237 24.5655L86.0748 22.4471L85.8937 22.0117ZM80.5398 23.2864C80.4948 21.8104 81.7156 21.0544 82.5902 21.0544C83.2756 21.0544 83.8571 21.3885 84.051 21.8666L80.5398 23.2864ZM76.2717 27H77.9979V15.75H76.2717V27ZM73.4448 20.43H73.3871C72.9994 19.9822 72.2598 19.5772 71.3229 19.5772C69.3567 19.5772 67.5591 21.2602 67.5591 23.418C67.5591 25.5634 69.3567 27.2329 71.3229 27.2329C72.2598 27.2329 72.9994 26.8245 73.3871 26.3632H73.4448V26.9122C73.4448 28.3759 72.6429 29.1622 71.3494 29.1622C70.2948 29.1622 69.6406 28.4197 69.3706 27.7954L67.8694 28.4062C68.3021 29.421 69.4479 30.6697 71.3494 30.6697C73.3733 30.6697 75.081 29.5087 75.081 26.6839V19.8101H73.4448V20.43ZM71.4706 25.7254C70.281 25.7254 69.2852 24.7545 69.2852 23.418C69.2852 22.0691 70.281 21.0847 71.4706 21.0847C72.6429 21.0847 73.5671 22.0691 73.5671 23.418C73.5671 24.7545 72.6429 25.7254 71.4706 25.7254ZM93.9752 15.75H89.8467V27H91.5683V22.7374H93.9752C95.8871 22.7374 97.7621 21.3885 97.7621 19.2431C97.7621 17.0989 95.8825 15.75 93.9752 15.75ZM94.0202 21.1725H91.5683V17.3149H94.0202C95.3056 17.3149 96.0394 18.3555 96.0394 19.2431C96.0394 20.1139 95.3056 21.1725 94.0202 21.1725ZM104.662 19.5559C103.418 19.5559 102.125 20.0914 101.593 21.2782L103.121 21.9026C103.449 21.2782 104.054 21.0757 104.693 21.0757C105.586 21.0757 106.492 21.5989 106.506 22.5225V22.6406C106.194 22.4651 105.527 22.2052 104.707 22.2052C103.062 22.2052 101.385 23.0884 101.385 24.7365C101.385 26.244 102.733 27.2149 104.248 27.2149C105.406 27.2149 106.046 26.7052 106.447 26.1124H106.506V26.982H108.169V22.6665C108.169 20.6719 106.641 19.5559 104.662 19.5559ZM104.454 25.7209C103.891 25.7209 103.107 25.4486 103.107 24.768C103.107 23.8972 104.085 23.5631 104.932 23.5631C105.69 23.5631 106.046 23.7262 106.506 23.9411C106.371 24.9829 105.451 25.7209 104.454 25.7209ZM114.226 19.8022L112.247 24.6791H112.189L110.143 19.8022H108.286L111.36 26.6175L109.606 30.4099H111.405L116.142 19.8022H114.226ZM98.7083 27H100.434V15.75H98.7083V27Z" fill="black"/>
</svg>
