<svg width="103" height="10" viewBox="0 0 103 10" fill="none" xmlns="http://www.w3.org/2000/svg">
<path d="M4.044 9.12C6.06 9.12 7.44 8.016 7.44 5.82V0.599999H5.868V5.7C5.868 7.056 5.184 7.74 4.044 7.74C2.904 7.74 2.232 7.056 2.232 5.82H0.648C0.648 8.016 2.004 9.12 4.044 9.12ZM12.5019 9.12C14.8539 9.12 16.4619 7.428 16.4619 4.8C16.4619 2.16 14.8539 0.491999 12.5019 0.491999C10.1499 0.491999 8.55394 2.16 8.55394 4.8C8.55394 7.428 10.1499 9.12 12.5019 9.12ZM12.5019 7.752C11.0619 7.752 10.1739 6.636 10.1739 4.8C10.1739 2.952 11.0619 1.86 12.5019 1.86C13.9419 1.86 14.8299 2.952 14.8299 4.8C14.8299 6.636 13.9419 7.752 12.5019 7.752ZM17.5699 9H19.1419V0.599999H17.5699V9ZM20.4878 9H22.0598V3.204H22.0958L25.7078 9H27.4358V0.599999H25.8518V6.492H25.8158L22.1438 0.599999H20.4878V9ZM35.176 9.12C37.012 9.12 38.452 8.208 38.644 6.204H37.108C36.832 7.284 36.112 7.752 35.176 7.752C33.628 7.752 32.92 6.552 32.92 4.8C32.92 3.048 33.652 1.86 35.176 1.86C36.136 1.86 36.832 2.328 37.108 3.396H38.644C38.452 1.404 37.012 0.491999 35.176 0.491999C32.836 0.491999 31.3 2.064 31.3 4.8C31.3 7.548 32.836 9.12 35.176 9.12ZM43.416 9.12C45.768 9.12 47.376 7.428 47.376 4.8C47.376 2.16 45.768 0.491999 43.416 0.491999C41.064 0.491999 39.468 2.16 39.468 4.8C39.468 7.428 41.064 9.12 43.416 9.12ZM43.416 7.752C41.976 7.752 41.088 6.636 41.088 4.8C41.088 2.952 41.976 1.86 43.416 1.86C44.856 1.86 45.744 2.952 45.744 4.8C45.744 6.636 44.856 7.752 43.416 7.752ZM48.4839 9H50.0559V3.36H50.1039L52.2999 9H53.4999L55.6839 3.36H55.7439V9H57.3159V0.599999H55.3479L52.8999 6.876L50.4519 0.599999H48.4839V9ZM58.6558 9H60.2278V3.36H60.2758L62.4718 9H63.6718L65.8558 3.36H65.9158V9H67.4878V0.599999H65.5198L63.0718 6.876L60.6238 0.599999H58.6558V9ZM72.1651 9.12C74.1811 9.12 75.5611 8.016 75.5611 5.82V0.599999H73.9651V5.7C73.9651 7.044 73.3051 7.74 72.1651 7.74C71.0251 7.74 70.3531 7.044 70.3531 5.7V0.599999H68.7691V5.82C68.7691 8.016 70.1251 9.12 72.1651 9.12ZM76.855 9H78.427V3.204H78.463L82.075 9H83.803V0.599999H82.219V6.492H82.183L78.511 0.599999H76.855V9ZM85.1402 9H86.7122V0.599999H85.1402V9ZM90.1356 9H91.7076V1.98H94.2036V0.599999H87.6396V1.98H90.1356V9ZM97.5899 9H99.2099V5.856L102.258 0.599999H100.47L98.3939 4.332L96.3299 0.599999H94.5419L97.5899 5.856V9Z" fill="white"/>
</svg>
